<?xml version="1.0" encoding="utf-8"?>
<!-- Generator: Adobe Illustrator 23.0.6, SVG Export Plug-In . SVG Version: 6.00 Build 0)  -->
<svg version="1.1" id="Capa_1" xmlns="http://www.w3.org/2000/svg" xmlns:xlink="http://www.w3.org/1999/xlink" x="0px" y="0px"
	 viewBox="0 0 199 199" style="enable-background:new 0 0 199 199;" xml:space="preserve">
<style type="text/css">
	.st0{fill:none;stroke:#000000;stroke-miterlimit:10;}
	.st1{fill:none;stroke:#000000;stroke-width:0.25;stroke-miterlimit:10;}
</style>
<g>
	<path class="st0" d="M84.92,79.16c1.08-2.33,2.29-4.59,3.61-6.79c0.42-0.69-0.66-1.32-1.08-0.63c-1.32,2.2-2.53,4.47-3.61,6.79
		c-0.14,0.31-0.09,0.67,0.22,0.86C84.34,79.54,84.78,79.46,84.92,79.16L84.92,79.16z"/>
</g>
<g>
	<path class="st0" d="M56.23,81.95c-2.2,4.07-3.81,8.47-3.72,13.15c0.08,4.39,1.28,8.95,4.41,12.15c2.87,2.93,6.87,4.7,10.91,5.23
		c3.98,0.52,7.35-1.72,9.78-4.74c1.28-1.6,2.27-3.37,2.72-5.38c0.68-3.06,0.45-6.22,1.02-9.29c0.15-0.79-1.06-1.12-1.21-0.33
		c-0.76,4.14-0.05,8.67-2.26,12.43c-1.68,2.87-4.89,6.14-8.45,6.19c-3.78,0.06-7.92-1.71-10.74-4.15
		c-3.21-2.78-4.56-6.73-4.88-10.89c-0.37-4.9,1.19-9.47,3.5-13.73C57.7,81.87,56.62,81.24,56.23,81.95L56.23,81.95z"/>
</g>
<g>
	<path class="st0" d="M73.49,63.12c-3.01,2.53-5.87,5.23-8.49,8.16c-0.53,0.6,0.35,1.49,0.88,0.88c2.62-2.93,5.48-5.63,8.49-8.16
		C74.99,63.49,74.1,62.61,73.49,63.12L73.49,63.12z"/>
</g>
<g>
	<path class="st0" d="M112.37,81.54c-1.26-3.31-3.02-6.41-5.45-9.01c-0.55-0.59-1.43,0.3-0.88,0.88c2.27,2.43,3.95,5.36,5.13,8.46
		C111.45,82.61,112.66,82.29,112.37,81.54L112.37,81.54z"/>
</g>
<g>
	<path class="st0" d="M80.99,85.91c-0.78,5.1-2.16,11.67,0.85,16.32c2.26,3.49,5.93,6.33,9.36,8.62c3.38,2.26,7.28,3.61,11.33,2.54
		c4.72-1.24,9.32-4.96,11.76-9.15c2.73-4.69,3.18-10.33,2.63-15.63c-0.08-0.79-1.33-0.8-1.25,0c0.45,4.26,0.27,8.69-1.34,12.71
		c-1.82,4.55-5.77,8.25-10.23,10.2c-3.76,1.65-7.55,1.07-11.03-0.97c-3.27-1.92-6.43-4.51-8.93-7.36
		c-4.09-4.67-2.81-11.32-1.95-16.95C82.31,85.46,81.11,85.12,80.99,85.91L80.99,85.91z"/>
</g>
<g>
	<path class="st0" d="M142.94,75.7c-1.74-2.06-3.67-3.95-5.77-5.65c-0.26-0.21-0.63-0.26-0.88,0c-0.22,0.22-0.26,0.67,0,0.88
		c2.1,1.69,4.03,3.59,5.77,5.65c0.22,0.26,0.66,0.22,0.88,0C143.2,76.33,143.16,75.96,142.94,75.7L142.94,75.7z"/>
</g>
<g>
	<path class="st0" d="M115.9,95.51c-0.36,5.16,1.41,10.54,5.23,14.13c2.82,2.65,6.32,2.49,9.89,1.8c5.14-0.99,10.05-2.35,14.57-5.04
		c0.69-0.41,1.37-0.83,2.08-1.2c0.91-0.47,1.89-0.78,2.7-1.43c1.67-1.35,2.11-3.42,2.29-5.46c0.26-2.91,0.49-5.79-0.26-8.65
		c-0.82-3.11-2.55-5.89-4.19-8.61c-0.42-0.69-1.5-0.06-1.08,0.63c1.35,2.24,2.78,4.5,3.66,6.98c0.85,2.41,1.04,4.89,0.8,7.42
		c-0.19,2-0.02,4.35-1.31,6.02c-1.04,1.35-2.98,1.84-4.42,2.69c-1.54,0.91-3.06,1.82-4.7,2.54c-2.5,1.1-5.14,1.73-7.79,2.33
		c-3.28,0.75-7.34,1.95-10.38-0.12c-4.35-2.98-6.18-9.01-5.82-14.04C117.21,94.7,115.96,94.71,115.9,95.51L115.9,95.51z"/>
</g>
<g>
	<path class="st0" d="M42.83,118c0.82,7.4,5.96,14.12,13.62,15.16c3.25,0.44,7.77-0.11,10.01-2.81c1-1.19,1.16-2.75,0.25-4.05
		c-1.1-1.58-3.01-1.96-4.79-2.23c0.05,0.38,0.1,0.76,0.15,1.14c1.84-0.96,3.89-2.37,3.53-4.75c-0.4-2.66-3.02-3.81-5.16-4.84
		c-4.75-2.26-7.31-7.63-5.61-12.72c0.26-0.76-0.95-1.09-1.21-0.33c-1.32,3.96-0.28,8.46,2.53,11.53c1.62,1.76,3.7,2.48,5.73,3.61
		c1.3,0.73,2.86,2.1,2.46,3.78c-0.32,1.33-1.79,2.06-2.9,2.63c-0.44,0.23-0.39,1.06,0.15,1.14c1.57,0.23,3.82,0.53,4.4,2.31
		c0.61,1.87-1.72,3.11-3.12,3.65c-2.76,1.07-5.85,1.04-8.65,0.14c-5.8-1.86-9.49-7.49-10.14-13.38
		C43.99,117.21,42.74,117.2,42.83,118L42.83,118z"/>
</g>
<g>
	<path class="st0" d="M115.07,39.92c-14.12-4.04-29.29-2.46-42.97,2.51c-11.78,4.28-23.78,11.2-29.95,22.55
		c-3.26,6-4.44,12.78-6.24,19.29c-0.95,3.45-2.09,6.87-3.84,10.01c-1.64,2.94-3.78,5.54-6.01,8.04c-4.26,4.78-8.89,9.34-11.43,15.33
		c-1.47,3.46-2.55,7.18-3.47,10.82c-0.88,3.5-1.38,7.17-0.56,10.73c1.42,6.21,6.39,10.91,11.84,13.81c2.97,1.59,6.32,2.91,9.66,3.43
		c2.83,0.44,6.8-0.73,6.49-4.3c-0.26,0.2-0.53,0.4-0.79,0.6c4.17,0.97,8.81,0.61,12.6-1.48c2.75-1.52,5.01-5.22,2.35-7.93
		c-0.56-0.58-1.45,0.31-0.88,0.88c2.76,2.82-1.39,5.83-3.78,6.73c-3.19,1.2-6.65,1.37-9.96,0.6c-0.36-0.09-0.83,0.18-0.79,0.6
		c0.17,1.91-1.59,3.06-3.32,3.17c-1.7,0.12-3.45-0.44-5.06-0.94c-2.73-0.85-5.36-2.02-7.78-3.54c-4.69-2.94-8.69-7.39-9.58-13.01
		c-0.6-3.83,0.34-7.7,1.4-11.37c1-3.45,1.98-6.99,3.64-10.19c2.81-5.45,7.38-9.66,11.34-14.25c1.92-2.22,3.73-4.55,5.16-7.11
		c1.49-2.67,2.56-5.56,3.44-8.49c1.86-6.2,2.87-12.71,5.56-18.64c5.14-11.33,16.21-18.52,27.38-23.04
		c14.24-5.75,30.27-7.9,45.21-3.62C115.51,41.35,115.84,40.14,115.07,39.92L115.07,39.92z"/>
</g>
<g>
	<path class="st0" d="M152.83,105.97c-0.15-1.59-0.41-3.17-0.84-4.7c-0.09-0.33-0.44-0.53-0.77-0.44c-0.33,0.09-0.53,0.44-0.44,0.77
		c0.4,1.43,0.65,2.89,0.79,4.37c0.03,0.34,0.26,0.62,0.62,0.62C152.52,106.59,152.86,106.3,152.83,105.97L152.83,105.97z"/>
</g>
<g>
	<path class="st0" d="M63.51,131.53c5.11,14.1,19.13,21.89,33.25,24.4c7.38,1.31,15.09,1.47,22.38-0.45
		c7.89-2.08,15.02-6.4,20.84-12.08c3.42-3.34,6.69-7.18,8.79-11.5c2.23-4.58,3.15-9.59,3.77-14.61c0.1-0.8-1.15-0.79-1.25,0
		c-0.55,4.44-1.34,8.91-3.16,13.02c-1.73,3.91-4.41,7.32-7.31,10.43c-5.37,5.75-12.03,10.32-19.53,12.79
		c-6.96,2.29-14.33,2.54-21.56,1.59c-6.96-0.92-13.87-3-19.95-6.56c-6.82-3.98-12.35-9.89-15.06-17.38
		C64.44,130.45,63.23,130.77,63.51,131.53L63.51,131.53z"/>
</g>
<g>
	<path class="st0" d="M152.55,103.73c2.19-1.66,5.39-2.92,8.05-1.6c2.49,1.24,3.35,4.26,2.93,6.84c-0.43,2.62-1.38,5.55-3.22,7.53
		c-2.04,2.2-5.09,2.92-7.99,2.79c-0.8-0.04-0.8,1.21,0,1.25c2.61,0.12,5.33-0.41,7.49-1.95c2.05-1.47,3.26-3.7,4.08-6.03
		c0.8-2.29,1.36-4.8,0.69-7.2c-0.62-2.23-2.22-4.1-4.49-4.75c-2.83-0.8-5.91,0.34-8.17,2.05
		C151.28,103.13,151.91,104.22,152.55,103.73L152.55,103.73z"/>
</g>
<g>
	<path class="st0" d="M144.23,139.45c0.79,2.1,2.62,3.42,4.86,3.47c1.37,0.03,3.01-0.5,4.26,0.26c1.19,0.72,1.34,2.31,1.5,3.56
		c0.26,2.12,0.56,4.11,2.25,5.61c1.56,1.39,3.74,2.04,5.81,1.93c5.3-0.27,9.5-5.02,12.52-8.9c3.25-4.17,5.75-8.89,7.49-13.88
		c1.8-5.15,2.78-10.59,2.96-16.04c0.19-5.88-0.43-12-2.79-17.44c-4.34-10-13.8-16.36-19.61-25.36c-3.49-5.41-5.52-11.69-9.75-16.63
		c-4.23-4.93-10.13-8.01-15.8-10.95c-0.71-0.37-1.35,0.71-0.63,1.08c4.87,2.52,9.86,5.1,13.84,8.94c4,3.86,6.22,8.91,8.74,13.76
		c2.39,4.61,5.43,8.62,8.91,12.46c3.35,3.7,6.92,7.24,9.81,11.33c3.36,4.76,5.24,10.09,5.81,15.89c0.52,5.22,0.25,10.53-0.79,15.68
		c-1.04,5.16-2.84,10.17-5.43,14.77c-2.48,4.41-5.78,8.96-9.95,11.92c-2.37,1.68-5.26,2.7-8.12,1.74c-1.22-0.41-2.37-1.17-3.06-2.27
		c-0.69-1.09-0.79-2.39-0.94-3.64c-0.25-2.04-0.69-4.34-2.96-5c-1.33-0.39-2.7-0.02-4.05-0.06c-1.66-0.06-3.06-0.98-3.66-2.55
		C145.15,138.37,143.94,138.69,144.23,139.45L144.23,139.45z"/>
</g>
<g>
	<path class="st0" d="M97.57,148.96c2.29-0.1,4.24-1.37,6.23-2.36c-0.21,0-0.42,0-0.63,0c2.18,1.08,4.43,2.37,6.94,2.32
		c0.8-0.01,0.81-1.26,0-1.25c-1.2,0.02-2.34-0.31-3.44-0.77c-0.51-0.21-1-0.45-1.49-0.69c-0.46-0.23-1.02-0.65-1.53-0.75
		c-0.47-0.1-1.02,0.33-1.42,0.54c-0.45,0.24-0.9,0.47-1.35,0.7c-1.04,0.51-2.14,0.96-3.32,1.01
		C96.77,147.74,96.76,148.99,97.57,148.96L97.57,148.96z"/>
</g>
<g>
	<path class="st0" d="M53.04,133.3c1.38,1.01,2.63,2.18,3.73,3.48c1.09,1.28,2.14,2.74,2.68,4.35c0.49,1.45,0.53,3.15-0.4,4.44
		c-0.83,1.15-2.62,1.68-3.79,0.71c-0.62-0.51-1.5,0.37-0.88,0.88c1.34,1.11,3.26,1.12,4.68,0.13c1.55-1.08,2.16-3.12,1.95-4.93
		c-0.24-2.13-1.42-4-2.7-5.66c-1.33-1.71-2.89-3.2-4.64-4.48C53.02,131.75,52.4,132.83,53.04,133.3L53.04,133.3z"/>
</g>
<g>
	<path class="st0" d="M60.21,144.99c-0.04,1.97,1.62,3.6,3.53,3.81c2.06,0.22,3.97-1.23,4.8-3.03c-0.33,0.04-0.65,0.08-0.98,0.13
		c0.82,0.76,1.71,1.56,2.82,1.84c1.01,0.26,2.06,0.07,2.84-0.63c0.6-0.54-0.28-1.42-0.88-0.88c-1.28,1.14-2.97-0.36-3.89-1.22
		c-0.27-0.25-0.8-0.26-0.98,0.13c-0.61,1.32-1.87,2.47-3.4,2.43c-1.37-0.03-2.64-1.18-2.61-2.58
		C61.48,144.18,60.23,144.18,60.21,144.99L60.21,144.99z"/>
</g>
<g>
	<path class="st0" d="M134.88,148.53c1.39,1.65,3.2,3.39,5.56,3.03c1.05-0.16,1.71-0.77,2.46-1.45c0.58-0.53,0.87-0.74,1.58-0.26
		c0.47,0.32,0.98,0.54,1.54,0.67c4.63,1.03,8.58-3.16,7.79-7.69c-0.14-0.79-1.34-0.46-1.21,0.33c0.35,2.02-0.48,4.17-2.2,5.33
		c-0.81,0.54-1.76,0.87-2.74,0.92c-1.18,0.06-1.92-0.32-2.91-0.88c-1.64-0.94-2.52,0.87-3.75,1.55c-2.06,1.14-4.06-1.02-5.25-2.43
		C135.24,147.03,134.36,147.92,134.88,148.53L134.88,148.53z"/>
</g>
<path class="st0" d="M133.68,119.32c-1.94,1.75-4.75,2.02-7.25,2.26c-2.57,0.24-5.15,0.24-7.72,0.05c-1.32-0.1-1.31,1.96,0,2.05
	c2.35,0.17,5.16,0.34,7.91,0.12c-0.11,0.17-0.18,0.37-0.2,0.58c0,0.03,0,0.05-0.01,0.08c-0.03,0.09-0.06,0.19-0.07,0.29
	c-0.04,0.33-0.04,0.64-0.01,0.96c-0.01,0.34-0.01,0.68,0.01,1.02c0.02,0.49,0.31,0.79,0.67,0.92c0.51,0.45,1.56,0.24,1.68-0.5
	c0.16-0.99,0.22-1.97,0.14-2.97c-0.02-0.23-0.1-0.44-0.23-0.62c2.48-0.41,4.8-1.23,6.53-2.79
	C136.12,119.88,134.66,118.43,133.68,119.32z"/>
<path class="st0" d="M88.45,121.41c-5.01,1.03-10.09,0.17-14.53-2.33c-1.16-0.65-2.08,1.18-0.93,1.83c2.04,1.15,4.19,1.95,6.4,2.43
	c-0.13,0.17-0.21,0.38-0.21,0.66c-0.02,0.82,0.11,1.64,0.35,2.42c0.02,0.08,0.06,0.15,0.09,0.22c0.14,0.46,0.51,0.82,1.04,0.79
	c0.55-0.03,1-0.53,0.97-1.08c-0.03-0.46-0.06-0.93-0.09-1.39c0-0.08,0-0.15,0-0.23c0-0.08-0.01-0.15-0.03-0.23
	c-0.01-0.23-0.03-0.46-0.04-0.69c0-0.04-0.01-0.08-0.02-0.12c2.52,0.31,5.11,0.2,7.68-0.33C90.4,123.09,89.73,121.14,88.45,121.41z"
	/>
<path class="st0" d="M118.66,112.23c-0.43-0.04-0.87-0.07-1.31-0.05c-0.1-0.4-0.41-0.73-0.95-0.69c-1.75,0.11-3.14,1.12-4.28,2.41
	c-0.81,0.92-1.24,2.51,0.18,3.11c1.2,0.5,3.26,0.09,4.48-0.22c1.25-0.32,2.77-1.04,3.39-2.26
	C120.8,113.27,119.9,112.36,118.66,112.23z"/>
<path class="st0" d="M91.32,113.89c-1.13-1.29-2.53-2.3-4.28-2.41c-0.54-0.03-0.86,0.29-0.95,0.69c-0.44-0.01-0.88,0.01-1.31,0.05
	c-1.24,0.13-2.14,1.04-1.51,2.29c0.62,1.22,2.14,1.94,3.39,2.26c1.22,0.31,3.28,0.72,4.48,0.22
	C92.56,116.4,92.13,114.81,91.32,113.89z"/>
<g id="XMLID_67_">
	<g>
	</g>
	<g>
		<path class="st1" d="M149.58,79.12c0-0.04-0.02-0.08-0.06-0.09c-1.32-0.19-2.63-0.41-3.95-0.62c-0.01-1.35,0.01-2.7,0.11-4.05
			c0.02-0.2,0.04-0.4,0.05-0.6c0.01-0.11-0.14-0.13-0.15-0.02c-0.02,0.2-0.04,0.4-0.05,0.6c-0.12,1.33-0.27,2.65-0.44,3.98
			c-1.35-0.13-2.7-0.18-4.05-0.21c-0.09,0-0.12,0.16-0.02,0.17c1.34,0.16,2.67,0.39,4,0.66c-0.15,1.77-0.23,3.54-0.14,5.31
			c0.01,0.1,0.14,0.09,0.15,0c0.11-1.73,0.28-3.44,0.51-5.15c1.32,0.07,2.64,0.11,3.96,0.1c0.01,0,0.01,0,0.02,0l0,0
			C149.57,79.2,149.58,79.16,149.58,79.12z"/>
		<path class="st1" d="M145.54,78.93c-0.03-0.06-0.13-0.05-0.14,0.03c-0.17,1.26-0.31,2.53-0.41,3.8c0-1.27,0.07-2.53,0.17-3.79
			c0.07-0.01,0.08-0.15,0-0.17c-0.85-0.18-1.71-0.34-2.57-0.47c0.86,0.03,1.71,0.08,2.56,0.17c0.01,0,0.03,0,0.04-0.01
			c0.02-0.01,0.04-0.03,0.04-0.07c0.07-0.55,0.13-1.09,0.19-1.64c-0.01,0.57-0.01,1.14-0.01,1.72c0,0.04,0.02,0.07,0.05,0.07
			c0,0,0.01,0,0.01,0c0.95,0.16,1.91,0.31,2.86,0.46C147.41,79.01,146.48,78.98,145.54,78.93z"/>
	</g>
</g>
<g id="XMLID_66_">
	<g>
	</g>
	<g>
		<path class="st1" d="M79.98,133.85c-0.01-0.04-0.04-0.07-0.08-0.07c-1.32,0.19-2.64,0.35-3.97,0.52c-0.39-1.29-0.75-2.6-1.04-3.92
			c-0.04-0.2-0.08-0.39-0.12-0.59c-0.02-0.11-0.17-0.09-0.15,0.02c0.04,0.2,0.08,0.39,0.12,0.59c0.26,1.31,0.48,2.62,0.7,3.94
			c-1.33,0.26-2.64,0.59-3.95,0.95c-0.09,0.02-0.07,0.18,0.03,0.17c1.33-0.22,2.67-0.38,4.02-0.49c0.36,1.74,0.78,3.46,1.37,5.14
			c0.03,0.09,0.16,0.05,0.14-0.04c-0.38-1.69-0.7-3.38-0.97-5.09c1.29-0.3,2.56-0.64,3.83-1.02c0,0,0,0,0,0c0.01,0,0.01,0,0.02-0.01
			l0,0C79.99,133.93,79.99,133.88,79.98,133.85z"/>
		<path class="st1" d="M76.05,134.8c-0.05-0.05-0.14-0.02-0.12,0.07c0.19,1.26,0.42,2.51,0.67,3.76c-0.36-1.21-0.65-2.45-0.9-3.69
			c0.07-0.03,0.04-0.17-0.05-0.16c-0.87,0.07-1.74,0.16-2.6,0.27c0.83-0.21,1.66-0.4,2.5-0.56c0.02,0,0.03-0.01,0.04-0.02
			c0.02-0.02,0.03-0.04,0.02-0.08c-0.09-0.54-0.18-1.09-0.28-1.63c0.15,0.55,0.31,1.1,0.48,1.65c0.01,0.04,0.04,0.06,0.07,0.05
			c0,0,0.01,0,0.01,0c0.96-0.12,1.92-0.24,2.87-0.37C77.87,134.36,76.96,134.59,76.05,134.8z"/>
	</g>
</g>
</svg>
