<?xml version="1.0" encoding="utf-8"?>
<!-- Generator: Adobe Illustrator 23.0.6, SVG Export Plug-In . SVG Version: 6.00 Build 0)  -->
<svg version="1.1" xmlns="http://www.w3.org/2000/svg" xmlns:xlink="http://www.w3.org/1999/xlink" x="0px" y="0px"
	 viewBox="0 0 700 700" style="enable-background:new 0 0 700 700;" xml:space="preserve">
<style type="text/css">
	.st0{fill:none;stroke:#000000;stroke-width:5;stroke-miterlimit:10;}
	.st1{fill:none;stroke:#000000;stroke-width:3;stroke-miterlimit:10;}
	.st2{fill:none;stroke:#000000;stroke-width:2;stroke-miterlimit:10;}
	.st3{fill:none;stroke:#FF7BAC;stroke-width:1.6641;stroke-miterlimit:10;}
	.st4{fill:none;stroke:#FFCADE;stroke-width:1.7147;stroke-miterlimit:10;}
	.st5{fill:none;stroke:#FF7BAC;stroke-width:1.9568;stroke-miterlimit:10;}
	.st6{fill:none;stroke:#FF7BAC;stroke-width:1.1974;stroke-miterlimit:10;}
	.st7{fill:none;stroke:#FCD4A5;stroke-miterlimit:10;}
</style>
<g id="Capa_1">
	<g>
		<path class="st0" d="M-214.57,50.38c-0.42,2.61-0.11,5.22,0.76,7.78c1.31,3.86,9.56,2.33,8.78-1.64
			c-0.42-2.12-0.28-4.12-0.44-6.14c-0.13-1.67-2.28-3.08-4.55-3.08C-212.7,47.3-214.3,48.72-214.57,50.38L-214.57,50.38z"/>
		<g>
			<g>
				<g id="XMLID_42_">
					<g>
					</g>
					<g>
						<path class="st1" d="M-277.81,98.99c-0.43,0-0.84-0.18-1.17-0.46c-2.25-1.92-4.28-4.1-5.99-6.5l-0.24-0.28
							c-0.41-0.46-0.53-1.21-0.25-1.86c0.27-0.59,0.84-0.99,1.48-1.04c3.73-0.33,7.77-0.33,12.02,0c0.68,0,1.29,0.4,1.57,1.02
							c0.3,0.64,0.18,1.39-0.28,1.91l-0.22,0.3c-1.7,2.34-3.64,4.51-5.71,6.41c-0.33,0.31-0.74,0.49-1.18,0.5
							C-277.81,98.99-277.81,98.99-277.81,98.99z"/>
						<path class="st1" d="M-281.54,91.65c1.12,1.42,2.37,2.72,3.7,3.94c1.24-1.21,2.43-2.52,3.54-3.92
							C-276.83,91.53-279.24,91.53-281.54,91.65z"/>
						<line class="st1" x1="-273.01" y1="89.98" x2="-272.95" y2="89.89"/>
						<line class="st1" x1="-282.87" y1="89.93" x2="-282.96" y2="89.81"/>
					</g>
				</g>
			</g>
			<g>
				<g>
					<path d="M-314.67,123.69c4.71,5.84,12.4,8.78,19.74,9.16c4.13,0.21,8.28-0.52,12.11-2.06c1.81-0.73,3.6-1.56,5.5-2.03
						c1.85-0.46,3.55-0.32,5.35,0.3c1.28,0.44,2.73-0.5,3.08-1.75c0.38-1.38-0.47-2.63-1.75-3.08c-3.94-1.37-7.74-0.62-11.51,0.91
						c-3.61,1.46-7.1,2.69-11.05,2.74c-6.69,0.08-13.65-2.43-17.93-7.73c-0.85-1.05-2.65-0.88-3.54,0
						C-315.71,121.19-315.52,122.63-314.67,123.69L-314.67,123.69z"/>
				</g>
			</g>
			<g>
				<g>
					<path d="M-238.76,120.16c-4.28,5.3-11.24,7.81-17.93,7.73c-3.94-0.05-7.44-1.28-11.05-2.74c-3.76-1.52-7.56-2.28-11.51-0.91
						c-1.28,0.44-2.12,1.71-1.75,3.08c0.34,1.24,1.79,2.19,3.08,1.75c1.79-0.62,3.5-0.77,5.35-0.3c1.9,0.48,3.69,1.3,5.5,2.03
						c3.83,1.54,7.98,2.28,12.11,2.06c7.34-0.38,15.02-3.32,19.74-9.16c0.85-1.05,1.03-2.51,0-3.54
						C-236.11,119.28-237.91,119.1-238.76,120.16L-238.76,120.16z"/>
				</g>
			</g>
			<g>
				<g>
					<path d="M-243.16,129.83c2.88-2.14,6.65-3,8.96-5.89c0.61-0.76,1.12-1.54,1.12-2.56c0-1.11-0.62-2.17-1.57-2.74
						c-0.61-0.36-1.32-0.56-2.03-0.56c-0.33,0-0.69,0.05-1.01,0.13c-0.28,0.07-1.07,0.43-1.2,0.72c-0.04,0.08-0.26,0.23,0.09-0.04
						c0.39-0.3,0.03-0.03-0.04,0.02c-0.28,0.2-0.55,0.41-0.81,0.63c-0.33,0.27-0.65,0.56-0.95,0.86c-0.57,0.57-1.08,1.19-1.59,1.82
						c-0.55,0.67-1.09,1.34-1.7,1.95c-0.31,0.32-0.65,0.6-0.99,0.89c0.63-0.53,0.07-0.06-0.12,0.06c-0.22,0.14-0.45,0.27-0.68,0.39
						c-1.16,0.6-1.6,2.32-0.9,3.42C-245.81,130.12-244.4,130.48-243.16,129.83c1.76-0.91,3.1-2.37,4.34-3.88
						c0.55-0.67,1.1-1.35,1.71-1.97c0.31-0.32,0.67-0.59,0.99-0.9c-0.49,0.48-0.27,0.21-0.09,0.08c0.07-0.05,0.14-0.1,0.21-0.15
						c0.09-0.07,0.47-0.32,0.62-0.5c0.31-0.38-0.14,0.33-0.91,0.51c-0.22,0.03-0.44,0.06-0.66,0.09c0.16-0.02,0.31-0.03,0.47-0.01
						c-0.22-0.03-0.44-0.06-0.66-0.09c0.26,0.04,0.43,0.19-0.12-0.11c0.03,0.02,0.07,0.04,0.1,0.06c-0.42-0.26-0.7-0.61-0.83-1.06
						c-0.03-0.22-0.06-0.44-0.09-0.66c0.02,0.1,0.02,0.19,0,0.29c0.03-0.22,0.06-0.44,0.09-0.66c0.05-0.11,0.09-0.21,0.14-0.32
						c-0.12,0.18-0.11,0.18,0.02,0c0.28-0.31-0.02,0.02-0.06,0.07c-0.12,0.14-0.24,0.28-0.37,0.42c-0.12,0.13-0.24,0.25-0.36,0.37
						c-0.08,0.07-0.32,0.37-0.42,0.37c0.05,0,0.56-0.4,0.19-0.15c-0.06,0.04-0.13,0.09-0.19,0.13c-0.17,0.11-0.35,0.22-0.52,0.33
						c-0.39,0.23-0.79,0.43-1.19,0.63c-1.68,0.85-3.4,1.67-4.91,2.8c-0.54,0.4-0.96,0.82-1.15,1.49c-0.16,0.6-0.09,1.4,0.25,1.93
						C-245.91,129.97-244.28,130.67-243.16,129.83L-243.16,129.83z"/>
				</g>
			</g>
			<g>
				<g>
					<path d="M-306.41,124.35c-1.34-0.93-2.84-1.62-4.31-2.31c-0.71-0.33-1.44-0.64-2.12-1.03c-0.27-0.15-0.51-0.33-0.77-0.49
						c-0.25-0.15,0.45,0.37,0.23,0.18c-0.06-0.05-0.12-0.1-0.18-0.15c-0.14-0.12-0.27-0.24-0.39-0.36
						c-0.23-0.23-0.45-0.48-0.67-0.72c-0.18-0.2,0.19,0.29,0.22,0.36c0.26,0.56,0.11,1.28-0.26,1.77c-0.17,0.23-0.36,0.39-0.63,0.5
						c-0.21,0.08-0.25,0.1-0.13,0.06c0.19-0.05,0.08-0.04-0.35,0.03c0.04,0.01,0.22,0.01,0.26,0c-0.26-0.11-0.51-0.22-0.77-0.33
						c-0.71-0.44-0.96-0.54-0.74-0.3c0.12,0.14,0.26,0.23,0.4,0.34c0.21,0.16,0.42,0.3,0.64,0.45c0.05,0.04,0.11,0.08,0.16,0.12
						c0.41,0.28-0.46-0.39-0.08-0.07c1.07,0.91,1.98,1.97,2.92,3.01c1.16,1.29,2.48,2.52,4.06,3.28c0.62,0.29,1.25,0.44,1.93,0.25
						c0.58-0.16,1.21-0.61,1.49-1.15C-304.93,126.66-305.15,124.95-306.41,124.35c-0.36-0.17-0.72-0.37-1.05-0.6
						c-0.1-0.06-0.65-0.47-0.28-0.19c0.32,0.25,0.08,0.06,0-0.01c-0.1-0.08-0.2-0.17-0.3-0.26c-0.6-0.54-1.14-1.13-1.68-1.73
						c-1.19-1.33-2.36-2.62-3.86-3.63c-0.1-0.06-0.35-0.25,0,0.02c0.33,0.26,0.14,0.12,0.09,0.04c-0.13-0.21-0.39-0.34-0.61-0.46
						c-0.79-0.45-1.85-0.46-2.71-0.2c-2.02,0.6-3.08,2.81-2.05,4.71c0.43,0.8,1.18,1.57,1.89,2.15c0.75,0.62,1.53,1.13,2.41,1.55
						c1.9,0.91,3.88,1.72,5.63,2.93c1.08,0.74,2.82,0.24,3.42-0.9C-304.84,126.5-305.26,125.15-306.41,124.35L-306.41,124.35z"/>
				</g>
			</g>
			<g>
				<g>
					<path d="M-247.67,31.84c-0.02-0.86,0.61-1.85,1.04-2.69c0.54-1.04,1.11-2.04,1.97-2.85c1.53-1.43,3.72-2.07,5.73-2.71
						c-0.81-1.39-1.62-2.79-2.43-4.18c-3.2,3.73-6.4,7.46-9.59,11.18c-1.1,1.28-0.91,3.84,1.1,4.18c3.77,0.64,7.35-0.09,10.82-1.62
						c2.86-1.26,5.89-2.91,8.27-4.97c1.17-1.02,2.18-2.43,2.46-3.98c0.41-2.28-1.29-4.05-3.54-4.04c-3.37,0.02-6.56,2.02-9.3,3.76
						c1.22,0.94,2.45,1.88,3.67,2.82c-0.12,0.31,0.2-0.26,0.06-0.09c-0.08,0.09,0.31-0.34,0.33-0.35c-0.18,0.16,0.07-0.05,0.14-0.09
						c0.52-0.32-0.2,0.01,0.39-0.16c3.08-0.92,1.77-5.74-1.33-4.82c-2.15,0.64-3.6,2.13-4.4,4.19c-0.81,2.06,1.93,3.93,3.67,2.82
						c1.26-0.8,2.53-1.6,3.89-2.24c0.55-0.26,1.12-0.45,1.71-0.61c0.3-0.08,0.67-0.09,0.96-0.21c-0.09,0.01-0.02,0,0.22-0.01
						c-0.41-0.08-0.76-0.29-1.05-0.62c-0.11-0.42-0.23-0.84-0.34-1.26c0.11-0.21,0.11-0.17,0,0.13c0.06-0.15,0.02-0.08-0.12,0.2
						c-0.15,0.26-0.23,0.36-0.51,0.64c-0.47,0.47-0.83,0.72-1.38,1.08c-1.37,0.9-2.8,1.74-4.26,2.51c-2.71,1.44-5.9,2.64-9.02,2.11
						c0.37,1.39,0.74,2.79,1.1,4.18c3.2-3.73,6.4-7.46,9.59-11.18c0.73-0.85,0.98-2.02,0.39-3.03c-0.54-0.93-1.77-1.48-2.82-1.15
						c-2.92,0.93-5.95,1.98-8.16,4.22c-1.12,1.14-1.97,2.52-2.68,3.94c-0.79,1.56-1.61,3.13-1.57,4.92
						C-252.61,35.05-247.61,35.06-247.67,31.84L-247.67,31.84z"/>
				</g>
			</g>
			<g>
				<g>
					<path d="M-306.08,31.35c-0.06-1.81-0.88-3.32-1.76-4.85c-0.78-1.37-1.68-2.75-2.85-3.82c-2.33-2.13-5.34-3.07-8.33-3.85
						c-2.45-0.65-4.14,2.38-2.43,4.18c3.38,3.56,6.76,7.12,10.15,10.68c0.37-1.39,0.74-2.79,1.1-4.18c-3.16,0.7-6.43-0.28-9.29-1.63
						c-1.48-0.7-2.94-1.46-4.35-2.3c-0.56-0.33-1.03-0.63-1.43-1.01c-0.11-0.1-0.21-0.2-0.31-0.31c-0.21-0.23-0.26-0.29-0.15-0.18
						c-0.51-0.72,0.02-0.48-0.2,0.11c-0.21,0.37-0.43,0.74-0.64,1.1c-0.24,0.19-0.5,0.29-0.78,0.31c0.13,0,0.27,0,0.4,0.02
						c0.23,0.02,0.46,0.05,0.69,0.1c0.72,0.15,1.44,0.36,2.12,0.63c1.3,0.52,2.52,1.23,3.73,1.92c0.97,0.55,2.24,0.4,3.03-0.39
						c0.84-0.84,0.86-2.01,0.39-3.03c-0.79-1.73-2.44-3-4.27-3.45c-3.12-0.77-4.46,4.05-1.33,4.82c0.74,0.18,0.94,0.41,1.28,1.15
						c1.14-1.14,2.28-2.28,3.42-3.42c-2.85-1.61-6.08-3.41-9.46-3.35c-2.21,0.04-3.97,1.81-3.5,4.1c0.31,1.49,1.33,2.83,2.49,3.79
						c2.53,2.08,5.77,3.57,8.79,4.76c3.41,1.35,7.09,1.87,10.69,1.07c1.9-0.42,2.34-2.88,1.1-4.18c-3.38-3.56-6.76-7.12-10.15-10.68
						c-0.81,1.39-1.62,2.79-2.43,4.18c2.05,0.54,4.28,1.06,5.89,2.36c0.88,0.71,1.49,1.62,2.06,2.58c0.47,0.8,1.3,1.94,1.33,2.76
						c0.04,1.35,1.12,2.5,2.5,2.5C-307.26,33.85-306.04,32.7-306.08,31.35L-306.08,31.35z"/>
				</g>
			</g>
			<g>
				<g id="XMLID_41_">
					<g>
					</g>
					<g>
						<path class="st2" d="M-277.87,65.24c-0.35,0-0.63-0.21-0.74-0.52l-0.99-2.96c-3.88-11.68-3.79-24.48,0.29-36.1
							c0.12-0.33,0.42-0.53,0.78-0.53s0.66,0.22,0.77,0.56c3.87,11.84,4.31,24.5,1.25,36.57l-0.6,2.4
							c-0.09,0.34-0.38,0.56-0.72,0.58C-277.85,65.24-277.87,65.24-277.87,65.24z"/>
						<path class="st2" d="M-278.54,26.92c-3.7,11.14-3.7,23.36,0.02,34.49l0.62,1.82l0.3-1.23
							C-274.69,50.42-275,38.32-278.54,26.92z"/>
					</g>
				</g>
			</g>
			<g>
				<g>
					<path d="M-231.29,64.92c0.77-1.78,1.6-2.75,2.91-4.07c1.5-1.51,3.16-2.83,4.91-4.03c3.67-2.52,7.78-4.76,11.83-6.35
						c4.64-1.83,9.41-2.33,14.33-3.02c6.3-0.88,12.67-1.88,18.6-4.28c5.9-2.39,11.53-5.99,14.81-11.6c1.63-2.78-2.69-5.3-4.32-2.52
						c-2.66,4.54-7.39,7.57-12.2,9.46c-5.98,2.34-12.37,3.31-18.69,4.19c-4.87,0.68-9.55,1.23-14.14,3.06
						c-4.37,1.75-8.58,3.91-12.48,6.56c-3.76,2.56-8.02,5.78-9.88,10.09c-0.53,1.24-0.37,2.68,0.9,3.42
						C-233.66,66.43-231.83,66.16-231.29,64.92L-231.29,64.92z"/>
				</g>
			</g>
			<g>
				<g>
					<path d="M-318.65,61.5c-1.68-3.67-5.24-6.41-8.46-8.64c-3.92-2.71-8.2-4.87-12.61-6.66c-1.85-0.75-3.73-1.42-5.66-1.92
						c-2.48-0.64-5.06-0.87-7.59-1.2c-6.38-0.84-12.85-1.6-19-3.6c-5.36-1.74-11.01-4.59-14.06-9.53c-1.69-2.73-6.02-0.22-4.32,2.52
						c6.4,10.36,19.9,13.2,31.05,14.76c5.07,0.71,10.27,0.99,15.15,2.63c4.2,1.41,8.23,3.37,12.02,5.68
						c3.56,2.18,7.53,4.89,9.17,8.47c0.56,1.23,2.34,1.53,3.42,0.9C-318.28,64.18-318.08,62.73-318.65,61.5L-318.65,61.5z"/>
				</g>
			</g>
			<path class="st0" d="M-346.35,51.25c-0.08,1.98-0.11,3.87-0.42,5.83c-0.6,3.78,7.11,5.23,8.36,1.56c0.83-2.43,1.13-4.9,0.73-7.39
				c-0.26-1.57-1.81-2.93-4.33-2.93C-344.17,48.32-346.61,49.67-346.35,51.25L-346.35,51.25z"/>
		</g>
		<g>
			<g>
				<path d="M-168.05,96.1c-9.28,14.17-20.49,27.19-33.92,37.58c-12.52,9.68-26.87,16.84-42.16,20.91
					c-7.78,2.07-15.73,3.36-23.76,3.93c-8.27,0.58-16.68,0.59-24.91-0.51c-16.73-2.24-32.94-8.5-47.45-17.01
					c-14.74-8.64-28.34-19.99-38.24-34.02c-1.15-1.63-2.25-3.3-3.3-5.01c-1.68-2.74-6.01-0.23-4.32,2.52
					c9.32,15.15,22.7,27.56,37.53,37.23c14.84,9.68,31.64,16.93,49.09,20.23c16.67,3.16,34.29,2.42,50.84-1.14
					c15.92-3.42,31.13-10.03,44.48-19.36c14.32-10,26.4-22.79,36.47-37.01c1.36-1.91,2.67-3.86,3.96-5.82
					C-161.97,95.92-166.3,93.41-168.05,96.1L-168.05,96.1z"/>
			</g>
		</g>
		<g>
			<g>
				<path d="M-401.77-171.24c-11.5,6.73-22.78,14-32.66,23c-9.78,8.91-17.84,19.48-24.43,30.92
					c-14.42,25.02-16.74,53.99-19.72,82.09c-2.1,19.86-7.58,39.16-11.53,58.69c-2.18,10.8-4.3,21.71-5.17,32.7
					c-0.43,5.38-0.15,10.74,0.2,16.12c0.44,6.92,1.15,13.82,2.25,20.67c1.9,11.82,5.21,23.31,9.81,34.36
					c5.23,12.56,11.7,24.54,18.26,36.44c2.01,3.64,4.03,7.27,6.05,10.9c1.56,2.81,5.88,0.29,4.32-2.52
					c-12.67-22.77-26.16-45.68-31.87-71.38c-2.8-12.61-4.28-25.87-4.27-38.78c0-9.72,1.89-19.51,3.67-29.03
					c2.12-11.31,4.61-22.55,7.13-33.78c1.82-8.1,3.83-16.2,4.97-24.43c1.72-12.38,2.49-24.88,4.22-37.26
					c1.99-14.22,4.96-28.55,10.71-41.76c5.38-12.36,13.11-24.02,22.31-33.86c8.59-9.18,18.67-16.67,29.29-23.33
					c2.96-1.86,5.97-3.66,8.99-5.43C-396.47-168.55-398.99-172.87-401.77-171.24L-401.77-171.24z"/>
			</g>
		</g>
		<g>
			<g>
				<path d="M-113.43-90.56c7.75,16.72,10.34,34.93,14.01,52.82c3.76,18.38,9.92,36.17,13.95,54.49c1.95,8.86,3.47,17.83,4.05,26.89
					c0.56,8.77,0.11,17.49-1.07,26.18c-2.26,16.67-6.63,33.01-12.25,48.84c-6.17,17.38-13.85,34.18-22.26,50.58
					c-1.13,2.21-2.28,4.41-3.44,6.61c-1.5,2.84,2.81,5.37,4.32,2.52c8.92-16.91,17.15-34.23,23.92-52.13
					c6.07-16.05,10.92-32.61,13.71-49.56c1.42-8.66,2.43-17.42,2.34-26.2c-0.1-9.31-1.26-18.6-2.98-27.74
					c-1.76-9.36-4.13-18.59-6.62-27.78c-2.5-9.2-5.28-18.34-7.44-27.62c-4.16-17.91-6.17-36.31-12.95-53.54
					c-0.92-2.33-1.9-4.63-2.95-6.9c-0.57-1.23-2.33-1.53-3.42-0.9C-113.79-93.25-114-91.79-113.43-90.56L-113.43-90.56z"/>
			</g>
		</g>
		<g>
			<g>
				<path d="M-361.37-185.52c20-7,41.04-10.75,62.22-11.21c21.18-0.46,42.38,2.31,62.71,8.28c11.43,3.35,22.54,7.71,33.18,13.07
					c2.87,1.44,5.4-2.87,2.52-4.32c-19.38-9.75-40.27-16.37-61.71-19.62c-21.56-3.27-43.5-3.25-65.04,0.14
					c-11.98,1.88-23.77,4.84-35.21,8.84c-1.27,0.45-2.12,1.71-1.75,3.08C-364.1-186.03-362.65-185.07-361.37-185.52L-361.37-185.52z
					"/>
			</g>
		</g>
		<g>
			<g>
				<path d="M-163.49-159.54c12.16,9.67,22.06,21.42,30.8,34.2c2.59,3.79,5.11,7.64,7.6,11.5c1.74,2.69,6.07,0.19,4.32-2.52
					c-8.56-13.25-17.46-26.4-28.76-37.51c-3.31-3.25-6.8-6.32-10.43-9.21c-1.06-0.84-2.5-1.03-3.54,0
					C-164.36-162.2-164.55-160.38-163.49-159.54L-163.49-159.54z"/>
			</g>
		</g>
		<g>
			<g>
				<path d="M-444.79-69.76c-3.15,10.99-7.57,21.69-9.47,33.01c-0.69,4.11-1.17,8.26-1.56,12.41c-0.13,1.35,1.24,2.5,2.5,2.5
					c1.46,0,2.37-1.15,2.5-2.5c0.58-6.11,1.36-12.21,2.85-18.17c1.22-4.86,2.9-9.59,4.45-14.35c1.25-3.84,2.44-7.69,3.55-11.57
					C-439.08-71.53-443.9-72.85-444.79-69.76L-444.79-69.76z"/>
			</g>
		</g>
		<g>
			<g>
				<path d="M-449.9,32.18c1.1,17.24-2.38,34.42-1.17,51.67c0.34,4.92,1.06,9.83,2.3,14.6c0.81,3.11,5.63,1.79,4.82-1.33
					c-4.28-16.53-1.61-33.67-0.89-50.45c0.21-4.83,0.25-9.66-0.06-14.49c-0.09-1.35-1.09-2.5-2.5-2.5
					C-448.68,29.68-449.98,30.83-449.9,32.18L-449.9,32.18z"/>
			</g>
		</g>
		<g>
			<g>
				<path d="M-446.96,100.61c4.46,1.95,9.3,2.78,14.14,3.04c4.72,0.26,9.63-0.02,14.18-1.35c3.08-0.9,1.77-5.73-1.33-4.82
					c-4.03,1.18-8.29,1.39-12.47,1.19c-4.01-0.19-8.38-0.8-12-2.38c-1.24-0.54-2.68-0.36-3.42,0.9
					C-448.47,98.25-448.2,100.06-446.96,100.61L-446.96,100.61z"/>
			</g>
		</g>
		<g>
			<g>
				<path d="M-416.98,98.8c0.02-0.44,0.05-0.87,0.09-1.31c0.01-0.09,0.02-0.17,0.03-0.26c0.03-0.28,0.03-0.23-0.02,0.15
					c-0.02-0.21,0.07-0.48,0.11-0.69c0.14-0.8,0.33-1.6,0.57-2.38c0.12-0.39,0.25-0.78,0.39-1.16c0.08-0.22,0.17-0.43,0.25-0.65
					c0.19-0.47-0.21,0.46,0.02-0.05c0.37-0.79,0.76-1.57,1.21-2.32c0.68-1.12,0.29-2.8-0.9-3.42c-1.21-0.64-2.7-0.3-3.42,0.9
					c-2.04,3.38-3.16,7.24-3.33,11.18c-0.06,1.31,1.19,2.56,2.5,2.5C-418.07,101.23-417.03,100.2-416.98,98.8L-416.98,98.8z"/>
			</g>
		</g>
		<g>
			<g>
				<path d="M-418.8,89.63c1.87,4.75,4.1,9.33,6.76,13.69c0.68,1.12,2.27,1.64,3.42,0.9c1.12-0.72,1.63-2.23,0.9-3.42
					c-1.25-2.05-2.41-4.15-3.49-6.29c-0.53-1.05-1.03-2.12-1.51-3.2c-0.13-0.3-0.26-0.59-0.39-0.89c-0.04-0.08-0.31-0.72-0.13-0.3
					c-0.25-0.6-0.5-1.2-0.73-1.81c-0.48-1.21-1.7-2.19-3.08-1.75C-418.23,86.93-419.31,88.32-418.8,89.63L-418.8,89.63z"/>
			</g>
		</g>
		<g>
			<g>
				<path d="M-410.23,104.8c7.07,2.01,14.63,2.2,21.89,1.35c7.45-0.87,14.74-2.74,21.54-5.92c1.22-0.57,1.53-2.33,0.9-3.42
					c-0.73-1.25-2.19-1.47-3.42-0.9c-6.06,2.83-12.78,4.54-19.42,5.28c-6.71,0.75-13.63,0.64-20.16-1.22
					C-412,99.1-413.33,103.92-410.23,104.8L-410.23,104.8z"/>
			</g>
		</g>
		<g>
			<g>
				<path d="M-393.51,4.89c2.64,24.74,10.28,48.41,16.97,72.25c2.02,7.2,4.04,14.4,6.06,21.6c0.87,3.09,5.69,1.78,4.82-1.33
					c-3.49-12.42-6.95-24.84-10.52-37.24c-3.33-11.55-6.63-23.12-9.08-34.9c-1.4-6.74-2.52-13.54-3.26-20.39
					c-0.14-1.34-1.05-2.5-2.5-2.5C-392.25,2.39-393.65,3.54-393.51,4.89L-393.51,4.89z"/>
			</g>
		</g>
		<g>
			<g>
				<path d="M-150.21-2.11c-0.4,5.17-0.77,10.35-1.94,15.42c-1.21,5.24-3.31,10.18-5.4,15.12c-2.27,5.36-4.33,10.75-6.23,16.26
					c-1.9,5.53-3.87,11.04-6.26,16.38c-2.98,6.66-5.96,13.32-8.94,19.98c-0.55,1.23-0.36,2.69,0.9,3.42
					c1.07,0.62,2.87,0.34,3.42-0.9c5.2-11.64,10.69-23.15,14.88-35.2c1.94-5.59,3.88-11.14,6.19-16.6
					c2.16-5.12,4.47-10.22,5.88-15.62c1.56-5.97,2.02-12.14,2.49-18.27c0.1-1.35-1.22-2.5-2.5-2.5
					C-149.15-4.61-150.11-3.46-150.21-2.11L-150.21-2.11z"/>
			</g>
		</g>
		<g>
			<g>
				<path d="M-178.84,85.74c6.9,6.45,15.06,11.38,24,14.43c1.28,0.44,2.73-0.5,3.08-1.75c0.38-1.37-0.46-2.64-1.75-3.08
					c-8.11-2.77-15.54-7.3-21.8-13.14C-177.65,80.01-181.2,83.53-178.84,85.74L-178.84,85.74z"/>
			</g>
		</g>
		<g>
			<g>
				<path d="M-152.67,100.09c1.76-0.96,3.13-2.32,4.29-3.92c0.97-1.34,1.75-2.81,2.68-4.18c0.35-0.52,0.41-1.34,0.25-1.93
					c-0.16-0.58-0.61-1.21-1.15-1.49c-1.27-0.67-2.63-0.26-3.42,0.9c-1.01,1.49-1.85,3.1-2.95,4.53c0.13-0.17,0.26-0.34,0.39-0.51
					c-0.51,0.66-1.08,1.26-1.74,1.77c0.17-0.13,0.34-0.26,0.51-0.39c-0.44,0.34-0.9,0.64-1.39,0.9c-1.15,0.62-1.61,2.31-0.9,3.42
					C-155.34,100.36-153.9,100.76-152.67,100.09L-152.67,100.09z"/>
			</g>
		</g>
		<g>
			<g>
				<path d="M-149.77,91.5c0.54,3.38,1.56,6.61,2.91,9.74c0.23,0.53,0.96,1,1.49,1.15c0.6,0.16,1.4,0.09,1.93-0.25
					c0.53-0.34,1-0.86,1.15-1.49c0.16-0.7,0.03-1.27-0.25-1.93c-0.11-0.25-0.09-0.21,0.05,0.13c-0.04-0.1-0.09-0.21-0.13-0.31
					c-0.06-0.16-0.13-0.32-0.19-0.47c-0.14-0.37-0.28-0.74-0.42-1.12c-0.26-0.72-0.49-1.45-0.7-2.19c-0.43-1.5-0.77-3.04-1.02-4.58
					c-0.09-0.58-0.66-1.21-1.15-1.49c-0.54-0.31-1.33-0.45-1.93-0.25C-149.43,88.88-150,90.11-149.77,91.5L-149.77,91.5z"/>
			</g>
		</g>
		<g>
			<g>
				<path d="M-145.4,102.71c9.01,2.11,18.34,1.1,26.75-2.72c1.23-0.56,1.53-2.34,0.9-3.42c-0.74-1.26-2.19-1.46-3.42-0.9
					c-7.13,3.24-15.28,4-22.89,2.22C-147.2,97.16-148.54,101.98-145.4,102.71L-145.4,102.71z"/>
			</g>
		</g>
		<g>
			<g>
				<path d="M-117.71,98.91c10.01-21.48,11.28-45.42,10.11-68.74c-0.33-6.63-0.85-13.25-1.41-19.87c-0.11-1.35-1.07-2.5-2.5-2.5
					c-1.26,0-2.61,1.15-2.5,2.5c1.91,22.59,3.59,45.89-1.81,68.15c-1.49,6.16-3.52,12.19-6.2,17.94c-0.57,1.22-0.34,2.69,0.9,3.42
					C-120.05,100.44-118.28,100.14-117.71,98.91L-117.71,98.91z"/>
			</g>
		</g>
		<g>
			<g>
				<path d="M-456.5,176.31c15.11,1.92,30.85-1.86,43.49-10.35c2.66-1.79,0.16-6.12-2.52-4.32c-12.01,8.07-26.62,11.49-40.97,9.67
					c-1.34-0.17-2.5,1.27-2.5,2.5C-459,175.3-457.85,176.14-456.5,176.31L-456.5,176.31z"/>
			</g>
		</g>
		<g>
			<g>
				<path d="M-411.87,163.59c-0.17-1.81-0.19-3.63-0.05-5.44c0.03-0.42,0.07-0.84,0.12-1.25c0.02-0.14,0.03-0.28,0.05-0.42
					c-0.04,0.28-0.04,0.33-0.02,0.15c0.04-0.24,0.07-0.48,0.11-0.72c0.15-0.9,0.34-1.78,0.57-2.66c0.32-1.27-0.41-2.77-1.75-3.08
					c-1.3-0.3-2.73,0.39-3.08,1.75c-0.97,3.8-1.32,7.78-0.96,11.68c0.12,1.3,1.07,2.56,2.5,2.5
					C-413.12,166.03-411.74,164.98-411.87,163.59L-411.87,163.59z"/>
			</g>
		</g>
		<g>
			<g>
				<path d="M-415.05,153.73c2.78,3.27,5.57,6.54,8.35,9.8c0.85,1,2.67,0.94,3.54,0c0.98-1.06,0.91-2.47,0-3.54
					c-2.78-3.27-5.57-6.54-8.35-9.8c-0.85-1-2.67-0.94-3.54,0C-416.03,151.26-415.96,152.66-415.05,153.73L-415.05,153.73z"/>
			</g>
		</g>
		<g>
			<g>
				<path d="M-402.79,164.88c6.94-3.37,14.02-6.44,21.17-9.31c7.82-3.13,15.76-6.06,23.88-8.33c1.98-0.55,3.96-1.06,5.97-1.5
					c0.9-0.19,1.8-0.37,2.71-0.53c1.04-0.18,1.27-0.21,2.06-0.3c1.34-0.15,2.5-1.04,2.5-2.5c0-1.23-1.15-2.65-2.5-2.5
					c-7.53,0.86-14.86,3.18-22,5.63c-8.39,2.88-16.62,6.19-24.75,9.72c-3.89,1.69-7.75,3.45-11.56,5.3
					c-1.21,0.59-1.54,2.32-0.9,3.42C-405.49,165.22-404.01,165.47-402.79,164.88L-402.79,164.88z"/>
			</g>
		</g>
		<g>
			<g>
				<path d="M-222.72,153.52c2.63-0.15,5.28-0.26,7.9,0.01c0.64,0.07-0.31-0.06,0.24,0.03c0.21,0.04,0.41,0.07,0.61,0.11
					c0.37,0.08,0.74,0.17,1.1,0.27c0.31,0.09,0.61,0.19,0.91,0.3c0.16,0.06,0.31,0.12,0.47,0.18c0.21,0.08-0.5-0.23,0.02,0.01
					c4.04,1.88,8.08,3.26,12.46,4.13c1.32,0.26,2.7-0.38,3.08-1.75c0.34-1.23-0.42-2.81-1.75-3.08c-2.71-0.54-5.41-1.19-7.99-2.18
					c-0.22-0.08-0.44-0.17-0.65-0.26c-0.51-0.2,0.32,0.15-0.2-0.08c-0.33-0.15-0.65-0.29-0.98-0.44c-0.7-0.32-1.4-0.65-2.12-0.95
					c-4.13-1.74-8.69-1.57-13.09-1.32C-225.91,148.71-225.94,153.71-222.72,153.52L-222.72,153.52z"/>
			</g>
		</g>
		<g>
			<g>
				<path d="M-197.67,158.59c2.4-0.74,4.84-1.66,6.9-3.12c2.2-1.55,3.97-3.55,5.26-5.92c0.62-1.15,0.32-2.78-0.9-3.42
					c-1.17-0.62-2.75-0.33-3.42,0.9c-0.29,0.53-0.59,1.04-0.94,1.54c-0.07,0.1-0.14,0.21-0.22,0.31c-0.14,0.19-0.41,0.37,0.03-0.03
					c-0.19,0.17-0.34,0.42-0.51,0.61c-0.36,0.4-0.74,0.79-1.15,1.14c-0.17,0.15-0.35,0.3-0.53,0.45c-0.38,0.31,0.44-0.32,0.07-0.05
					c-0.11,0.08-0.22,0.16-0.34,0.24c-0.86,0.59-1.77,1.09-2.72,1.51c-0.14,0.06-0.64,0.26,0.06-0.02
					c-0.14,0.05-0.28,0.11-0.42,0.17c-0.24,0.09-0.47,0.18-0.71,0.27c-0.59,0.22-1.2,0.41-1.8,0.6c-1.25,0.38-2.17,1.76-1.75,3.08
					C-200.34,158.11-199.01,159-197.67,158.59L-197.67,158.59z"/>
			</g>
		</g>
		<g>
			<g>
				<path d="M-190.18,148.29c-0.29,4.22-0.95,8.63,0.4,12.74c0.41,1.24,1.75,2.18,3.08,1.75c1.24-0.4,2.18-1.75,1.75-3.08
					c-0.16-0.47-0.29-0.95-0.39-1.44c-0.05-0.23-0.09-0.46-0.13-0.69c-0.04-0.29-0.04-0.27,0.01,0.06
					c-0.02-0.14-0.03-0.27-0.04-0.41c-0.09-0.97-0.11-1.95-0.08-2.92c0.05-2.01,0.27-4.01,0.41-6.01c0.09-1.31-1.22-2.56-2.5-2.5
					C-189.11,145.86-190.08,146.89-190.18,148.29L-190.18,148.29z"/>
			</g>
		</g>
		<g>
			<g>
				<path d="M-188.07,163.65c6.17,1.59,12.6,2.26,18.96,2.53c5.81,0.25,11.69,0.16,17.46-0.7c0.97-0.14,1.22-0.22,2.16,0.76
					c0.59,0.61,1.15,1.12,1.85,1.62c1.37,0.99,2.88,1.77,4.38,2.53c4.3,2.16,8.78,4,13.28,5.69c3.75,1.42,7.69,3.06,11.7,3.53
					c1.34,0.16,2.5-1.26,2.5-2.5c0-1.48-1.15-2.34-2.5-2.5c-0.42-0.05,0.69,0.15,0.24,0.03c-0.12-0.03-0.25-0.04-0.37-0.07
					c-0.29-0.06-0.58-0.13-0.86-0.2c-0.8-0.2-1.59-0.43-2.37-0.67c-2.01-0.62-3.99-1.32-5.95-2.04c-4.36-1.61-8.32-3.22-12.47-5.25
					c-1.59-0.78-3.19-1.59-4.66-2.59c-0.13-0.09-0.26-0.19-0.39-0.27c-0.45-0.27,0.42,0.38,0.05,0.04
					c-0.17-0.16-0.35-0.31-0.52-0.48c-1.18-1.21-2.45-2.31-4.17-2.63c-0.86-0.16-1.59-0.07-2.45,0.06c-0.54,0.08-0.94,0.15-1.2,0.18
					c-1.21,0.15-2.43,0.26-3.66,0.35c-2.98,0.21-5.97,0.26-8.96,0.2c-6.95-0.12-13.98-0.7-20.72-2.44
					C-189.86,158.02-191.19,162.84-188.07,163.65L-188.07,163.65z"/>
			</g>
		</g>
		<g>
			<g>
				<path d="M-377.97-116.81c-5.6,6.35-10.79,13.1-15.19,20.35c-3.8,6.25-6.96,12.84-9.71,19.61c-2.78,6.85-5.25,13.84-7.06,21.02
					c-2.03,8.09-3.36,16.34-4.32,24.62c-1.16,9.94-1.73,19.94-2.05,29.94c-0.1,3.22,4.9,3.21,5,0c0.53-16.81,1.7-33.75,5.46-50.18
					c1.65-7.22,3.96-14.22,6.63-21.12c2.47-6.41,5.34-12.67,8.76-18.63c4.53-7.92,9.99-15.22,16.02-22.06c0.89-1.01,1-2.54,0-3.54
					C-375.34-117.72-377.07-117.82-377.97-116.81L-377.97-116.81z"/>
			</g>
		</g>
		<g>
			<g>
				<path d="M-414.67,1.12c4.7,2.36,9.63,3.77,14.85,4.35c3.9,0.44,7.82,0.73,11.74,0.92c8.87,0.44,17.81,0.44,26.65-0.44
					c4.47-0.45,8.96-1.08,13.28-2.33c3.09-0.89,1.77-5.72-1.33-4.82c-7.53,2.17-15.53,2.63-23.32,2.81
					c-8.31,0.19-16.64-0.11-24.91-0.92c-5.04-0.5-9.87-1.6-14.43-3.89C-415.02-4.64-417.55-0.33-414.67,1.12L-414.67,1.12z"/>
			</g>
		</g>
		<g>
			<g>
				<path d="M-347.06,2.97c2.39-2.61,3.41-6.42,4.39-9.73c0.95-3.22,1.63-6.61,2.93-9.72c0.52-1.25-0.56-2.75-1.75-3.08
					c-1.44-0.4-2.55,0.5-3.08,1.75c-1.24,2.96-1.89,6.18-2.79,9.25c-0.5,1.72-1.03,3.44-1.69,5.11c-0.07,0.17-0.13,0.33-0.2,0.5
					c0.21-0.52-0.02,0.04-0.07,0.16c-0.16,0.35-0.32,0.69-0.5,1.03c-0.16,0.3-0.34,0.59-0.53,0.89c-0.05,0.08-0.32,0.46-0.08,0.13
					c0.26-0.35-0.12,0.13-0.17,0.19c-0.91,1-0.98,2.55,0,3.54C-349.67,3.9-347.97,3.97-347.06,2.97L-347.06,2.97z"/>
			</g>
		</g>
		<g>
			<g>
				<path d="M-344.55-16.75c1.52,6.42,1.8,13.13,3.61,19.49c0.88,3.09,5.71,1.78,4.82-1.33c-1.81-6.35-2.09-13.07-3.61-19.49
					c-0.31-1.31-1.81-2.09-3.08-1.75C-344.15-19.46-344.87-18.07-344.55-16.75L-344.55-16.75z"/>
			</g>
		</g>
		<g>
			<g>
				<path d="M-339.2,5.07c5.5,2.04,11.41,2.9,17.21,3.57c6.51,0.75,13.07,1.06,19.62,1.1c13.26,0.08,26.46-0.43,39.67-1.66
					c8.04-0.75,16.04-1.9,23.8-4.15c3.08-0.89,1.77-5.72-1.33-4.82c-12.94,3.75-26.66,4.61-40.05,5.26
					c-12.87,0.63-25.93,0.8-38.77-0.42c-6.33-0.6-12.83-1.48-18.82-3.7c-1.27-0.47-2.74,0.52-3.08,1.75
					C-341.33,3.39-340.47,4.6-339.2,5.07L-339.2,5.07z"/>
			</g>
		</g>
		<g>
			<g>
				<path d="M-237.27,2.66c2.79-5.89,4.7-12.04,5.27-18.55c0.58-6.63-0.29-13.31-1.55-19.81c-0.26-1.33-1.85-2.08-3.08-1.75
					c-1.39,0.38-2,1.74-1.75,3.08c1.15,5.96,1.88,12.03,1.4,18.1c-0.45,5.71-2.18,11.25-4.62,16.41c-0.58,1.22-0.34,2.7,0.9,3.42
					C-239.6,4.19-237.85,3.89-237.27,2.66L-237.27,2.66z"/>
			</g>
		</g>
		<g>
			<g>
				<path d="M-236.77-16.99c0.32,1.57,0.95,3.09,1.52,4.58c0.66,1.74,1.36,3.48,2.07,5.2c1.51,3.69,2.74,7.53,5.56,10.48
					c2.23,2.33,5.76-1.21,3.54-3.54c-0.77-0.8-1.26-1.53-1.84-2.59c-0.28-0.51-0.54-1.03-0.78-1.56c-0.04-0.08-0.32-0.74-0.14-0.31
					c-0.09-0.21-0.17-0.42-0.26-0.63c-0.46-1.17-0.92-2.34-1.39-3.51c-0.69-1.69-1.37-3.38-2.02-5.09
					c-0.54-1.42-1.13-2.87-1.44-4.36c-0.27-1.32-1.84-2.09-3.08-1.75C-236.4-19.69-237.04-18.32-236.77-16.99L-236.77-16.99z"/>
			</g>
		</g>
		<g>
			<g>
				<path d="M-225.65,4.44c23.18,2.82,46.98,2.26,69.85-2.62c6.37-1.36,12.65-3.08,18.81-5.2c1.28-0.44,2.12-1.71,1.75-3.08
					c-0.34-1.24-1.79-2.19-3.08-1.75c-21.82,7.52-45.17,10.02-68.16,9.17c-6.41-0.24-12.8-0.75-19.17-1.53
					c-1.34-0.16-2.5,1.27-2.5,2.5C-228.15,3.43-227,4.28-225.65,4.44L-225.65,4.44z"/>
			</g>
		</g>
		<g>
			<g>
				<path d="M-135.75-4.92c3.94-14.38,2.01-29.92-1.7-44.13c-3.65-14.01-9.12-27.85-17.36-39.82c-4.85-7.04-10.51-13.48-16.5-19.57
					c-2.26-2.3-5.79,1.24-3.54,3.54c9.95,10.13,18.67,21.21,24.55,34.22c5.81,12.86,10.03,27.01,11.31,41.09
					c0.71,7.8,0.48,15.75-1.59,23.34C-141.42-3.14-136.6-1.81-135.75-4.92L-135.75-4.92z"/>
			</g>
		</g>
		<g>
			<g>
				<path d="M-415.54,139.92c-1.6-4.84-3.21-9.67-4.81-14.51c-0.41-1.24-1.74-2.18-3.08-1.75c-1.23,0.4-2.19,1.75-1.75,3.08
					c1.6,4.84,3.21,9.67,4.81,14.51c0.41,1.24,1.74,2.18,3.08,1.75C-416.05,142.6-415.1,141.25-415.54,139.92L-415.54,139.92z"/>
			</g>
		</g>
		<g>
			<g>
				<path d="M-146.47,161.42c5.2-10.47,8.47-21.71,9.74-33.33c0.15-1.34-1.25-2.5-2.5-2.5c-1.47,0-2.35,1.15-2.5,2.5
					c-1.17,10.69-4.28,21.18-9.06,30.8C-152.22,161.77-147.91,164.3-146.47,161.42L-146.47,161.42z"/>
			</g>
		</g>
		<g>
			<g>
				<path d="M-370.62,1.8c-1.26-14.61-2.52-29.85,2.94-43.82c0.49-1.26-0.54-2.74-1.75-3.08c-1.42-0.39-2.58,0.48-3.08,1.75
					c-5.61,14.36-4.41,30.12-3.11,45.15c0.12,1.35,1.07,2.5,2.5,2.5C-371.86,4.3-370.51,3.16-370.62,1.8L-370.62,1.8z"/>
			</g>
		</g>
		<g>
			<g>
				<path d="M-170.1-0.4c0.8-15.33-2.2-30.78-7.35-45.18c-0.45-1.27-1.7-2.12-3.08-1.75c-1.23,0.34-2.2,1.8-1.75,3.08
					c5.02,14.02,7.95,28.91,7.17,43.85C-175.27,2.82-170.27,2.81-170.1-0.4L-170.1-0.4z"/>
			</g>
		</g>
		<g>
			<g>
				<path d="M-298.19-97.16c-0.16,5.92-0.46,11.88-0.06,17.8c0.41,6.06,1.45,12.09,2.29,18.11c0.19,1.34,1.9,2.07,3.08,1.75
					c1.44-0.4,1.93-1.73,1.75-3.08c-0.8-5.77-1.75-11.22-2.12-17c-0.38-5.84-0.08-11.73,0.07-17.57
					C-293.1-100.38-298.1-100.38-298.19-97.16L-298.19-97.16z"/>
			</g>
		</g>
	</g>
</g>
<g id="Capa_2">
	<path class="st3" d="M326.92,269.14c0,0-44.47-157.92-83.5-179.7s-37.41-16.79-64.99-8.25s-30.88,58.65-30.88,58.65
		s1.33,51.64,11.98,80.07c11.29,30.12,29.76,75.55,39.28,89.02c3.33,4.71,4.95,10.49,5.66,16.02c1.29,10.16-1.07,20.44-6.45,29.15
		l0,0c-10.84,17.57-19.85,36.2-26.88,55.61l0,0c-5.53,15.26-9.81,30.94-12.8,46.89c-2.24,11.96-4.62,25.15-5.47,31.73
		c-1.77,13.75-3.92,91.29,81.63,113.58c85.69,22.32,121.9,23.07,233.81,0.89c64.94-12.87,79.66-68.58,81.37-109.53
		c1.04-24.86-3.05-49.66-11.51-73.06c-7.91-21.87-22.4-56.27-31.26-69.41c-13.93-20.65,0.55-57.16,0.55-57.16
		s38.98-95.22,42.04-113.65c3.04-18.29,3.99-55.01-4.88-74.98c-8.87-19.96-31.5-34.61-47.47-32.83s-40.82,3.99-62.56,38.15
		S388.03,213.7,388.03,213.7l-16.42,56.34C371.61,270.04,341.68,265.12,326.92,269.14z"/>
	<path class="st4" d="M244.15,308.48c0,0,29.25-16.81,42.64-20.75s-54.48-143.25-54.48-143.25s-35.94-47.47-39.49,12.42
		C189.27,216.8,244.15,308.48,244.15,308.48z"/>
	<path class="st4" d="M414.26,284.92c0,0,38.17,14.09,45.9,20.46c6.17,5.08,31.73-83.5,41.79-119.46
		c3.67-13.11,6.91-28.61,2.32-41.43c-5.35-14.94-19.08-23.6-37.71,10.2C435.5,211.04,423.18,278.95,414.26,284.92z"/>
	<path class="st5" d="M263.38,457.6L263.38,457.6c-6.24,16.25-6.24,35.73,0,51.98l0,0c2.25,5.86,8.37,5.66,10.41-0.34v0
		c5.54-16.24,5.54-35.06,0-51.31v0C271.75,451.95,265.63,451.75,263.38,457.6z"/>
	<path class="st5" d="M433.3,460l-1.32,3.45c-4.75,12.38-4.75,27.21,0,39.58l1.32,3.45c2.68,6.99,9.99,6.75,12.43-0.41l0,0
		c4.93-14.46,4.93-31.21,0-45.67l0,0C443.29,453.25,435.99,453.01,433.3,460z"/>
	<path class="st6" d="M363.86,540.06c0,0-15.84-9.97-27.36,0.12c-6.37,5.58-0.61,10.33,5.23,13.84c6.33,3.8,13,1.65,19.25-2.27
		C366.05,548.58,367.13,544.83,363.86,540.06z"/>
	<path class="st7" d="M384,353.27c-36.55,63.52-73.41,0-73.41,0s-10.37,52.03,34.63,54.26C390.22,409.76,384,353.27,384,353.27z"/>
	<circle class="st3" cx="219.59" cy="551.08" r="27.16"/>
	<circle class="st3" cx="476.26" cy="551.08" r="27.16"/>
</g>
</svg>
