<?xml version="1.0" encoding="utf-8"?>
<!-- Generator: Adobe Illustrator 23.0.6, SVG Export Plug-In . SVG Version: 6.00 Build 0)  -->
<svg version="1.1" id="Capa_1" xmlns="http://www.w3.org/2000/svg" xmlns:xlink="http://www.w3.org/1999/xlink" x="0px" y="0px"
	 viewBox="0 0 200 200" style="enable-background:new 0 0 200 200;" xml:space="preserve">
<style type="text/css">
	.st0{fill:none;stroke:#000000;stroke-width:2.2386;}
	.st1{font-family:'ArialMT';}
	.st2{font-size:12px;}
	.st3{fill:none;stroke:#000000;stroke-width:1.8315;stroke-miterlimit:10;}
	.st4{stroke:#000000;stroke-width:0.8637;}
</style>
<path class="st0" d="M100,57l-25.9,49.8c-10.5,20.2,4.2,44.5,27,44.5l0,0c22.5,0,37.2-23.5,27.4-43.7L103.9,57
	C103.1,55.4,100.8,55.4,100,57z"/>
<line class="st0" x1="101.6" y1="55.7" x2="101.6" y2="137.4"/>
<polyline class="st0" points="86.1,97.7 101.9,113.4 117.6,97.8 "/>
<polyline class="st0" points="92.2,86.3 101.9,95.9 112.2,85.7 "/>
<polyline class="st0" points="90,116.6 101.9,128.5 114,116.4 "/>
<text class="st1 st2"> </text>
<path class="st3" d="M139.4,140.5c-9.4,12.5-23.6,20.3-39.4,19.8c-18.8-0.6-34.8-12.8-42.6-30.2"/>
<path class="st3" d="M125.3,60.5c6.9,6.3,11.8,14.5,14.2,23.4"/>
<path class="st3" d="M63.8,85c3.6-11.9,11.7-22.2,22.9-28.5"/>
<path class="st3" d="M55.3,148.4c-13.1-15.6-18.2-37.4-11.8-58.3c5.2-17,17.1-30.2,31.9-37.5"/>
<path class="st3" d="M160.4,84.3c5.5,13,6.6,27.9,2.1,42.4c-7.1,23.3-26.7,39.3-49.1,43.1"/>
<g>
	<path class="st4" d="M43.5,60.5l5.7-6.5l1.1,1l-6.8,7.7L31.3,52l6.6-7.5l1.1,1l-5.6,6.3l4.2,3.7l5.2-5.9l1.1,1l-5.2,5.9L43.5,60.5z
		"/>
	<path class="st4" d="M66,40c0,0.5-0.1,1-0.2,1.5c-0.1,0.5-0.3,1-0.6,1.6c-0.3,0.5-0.6,1-1,1.5c-0.4,0.5-0.9,0.9-1.5,1.3
		c-1,0.7-2.1,1.1-3.2,1.3c-1.1,0.2-2.2,0.2-3.2,0c-1-0.2-2-0.6-3-1.3c-0.9-0.6-1.7-1.5-2.4-2.5c-0.7-1-1.1-2.1-1.4-3.2
		c-0.2-1.1-0.2-2.2,0-3.2s0.6-2,1.2-3c0.6-0.9,1.4-1.7,2.4-2.4c0.5-0.3,1-0.6,1.6-0.8c0.5-0.2,1.1-0.4,1.6-0.5
		c0.5-0.1,1.1-0.1,1.6-0.1c0.5,0,1,0.1,1.4,0.3l-0.6,1.6c-0.3-0.1-0.6-0.2-1-0.3c-0.4-0.1-0.8-0.1-1.2,0c-0.4,0-0.9,0.1-1.3,0.3
		c-0.4,0.1-0.9,0.4-1.3,0.7c-0.9,0.6-1.6,1.3-2,2c-0.5,0.8-0.8,1.6-0.9,2.5c-0.1,0.9-0.1,1.7,0.1,2.6c0.2,0.9,0.6,1.7,1.1,2.5
		c0.5,0.8,1.2,1.4,1.9,2s1.5,0.9,2.4,1.1c0.8,0.2,1.7,0.3,2.6,0.1c0.9-0.1,1.8-0.5,2.6-1.1c0.8-0.5,1.4-1.2,1.9-2
		c0.5-0.8,0.7-1.7,0.7-2.7L66,40z"/>
	<path class="st4" d="M86,32.6c-0.1,0.5-0.3,1-0.6,1.4c-0.3,0.5-0.6,0.9-1,1.3s-0.9,0.8-1.4,1.2c-0.5,0.3-1.2,0.6-1.9,0.9
		c-1.2,0.4-2.3,0.5-3.4,0.4c-1.1-0.1-2.1-0.4-3.1-0.9c-0.9-0.5-1.8-1.2-2.5-2c-0.7-0.9-1.3-1.9-1.7-3.1c-0.4-1.2-0.5-2.3-0.4-3.4
		c0.1-1.1,0.4-2.2,0.9-3.1c0.5-1,1.1-1.8,2-2.5c0.8-0.7,1.8-1.3,3-1.6c0.6-0.2,1.1-0.3,1.7-0.4c0.6-0.1,1.1-0.1,1.7,0
		c0.5,0.1,1.1,0.2,1.6,0.3c0.5,0.2,0.9,0.4,1.3,0.7l-1,1.4c-0.2-0.2-0.5-0.4-0.9-0.5c-0.3-0.2-0.7-0.3-1.2-0.3
		c-0.4-0.1-0.9-0.1-1.3-0.1c-0.5,0-0.9,0.1-1.4,0.3c-1,0.3-1.8,0.8-2.5,1.4c-0.7,0.6-1.2,1.3-1.5,2.1c-0.4,0.8-0.5,1.6-0.6,2.5
		c0,0.9,0.1,1.8,0.4,2.7c0.3,0.9,0.7,1.7,1.3,2.4c0.6,0.7,1.2,1.3,2,1.7c0.8,0.4,1.6,0.7,2.5,0.8c0.9,0.1,1.9,0,2.8-0.3
		c0.9-0.3,1.7-0.7,2.3-1.4c0.7-0.6,1.2-1.4,1.4-2.4L86,32.6z"/>
	<path class="st4" d="M109.6,25.5c0,1.2-0.2,2.4-0.6,3.4c-0.4,1-1,2-1.7,2.7c-0.7,0.8-1.6,1.4-2.6,1.8c-1,0.4-2.1,0.7-3.3,0.7
		c-1.2,0-2.3-0.2-3.4-0.6c-1-0.4-1.9-1-2.7-1.7c-0.8-0.7-1.4-1.6-1.8-2.7c-0.4-1-0.7-2.2-0.7-3.4c0-1.2,0.2-2.4,0.6-3.4
		c0.4-1,1-2,1.7-2.7c0.7-0.8,1.6-1.4,2.6-1.8c1-0.4,2.1-0.7,3.3-0.7c1.2,0,2.3,0.2,3.4,0.6c1,0.4,1.9,1,2.7,1.7
		c0.8,0.7,1.4,1.6,1.8,2.7S109.6,24.3,109.6,25.5z M107.9,25.6c0-0.9-0.2-1.8-0.5-2.7c-0.3-0.8-0.8-1.6-1.4-2.2
		c-0.6-0.6-1.3-1.1-2.1-1.5c-0.8-0.4-1.8-0.5-2.8-0.5c-1,0-2,0.2-2.8,0.6c-0.8,0.4-1.5,0.9-2.1,1.6c-0.6,0.7-1,1.4-1.3,2.3
		c-0.3,0.9-0.4,1.8-0.4,2.7c0,0.9,0.2,1.8,0.5,2.7c0.3,0.8,0.8,1.6,1.4,2.2c0.6,0.6,1.3,1.1,2.1,1.5c0.8,0.4,1.8,0.5,2.8,0.5
		c1,0,2-0.2,2.8-0.6c0.8-0.4,1.5-0.9,2.1-1.6c0.6-0.7,1-1.4,1.3-2.3C107.8,27.4,107.9,26.5,107.9,25.6z"/>
	<path class="st4" d="M121.7,19.4l4.4,1.2c0.8,0.2,1.5,0.5,2.1,0.8c0.6,0.3,1.1,0.7,1.5,1.2c0.4,0.5,0.6,1,0.7,1.6
		c0.1,0.6,0.1,1.2-0.1,1.9s-0.5,1.3-0.9,1.7c-0.4,0.5-0.9,0.8-1.4,1c-0.6,0.2-1.2,0.3-1.9,0.3c-0.7,0-1.5-0.1-2.3-0.3l-2.8-0.7
		l-1.9,7.3l-1.6-0.4L121.7,19.4z M121.4,26.9l2.7,0.7c1.3,0.3,2.3,0.3,3,0s1.3-0.9,1.5-1.9c0.3-1,0.1-1.8-0.4-2.4s-1.4-1.1-2.6-1.4
		l-2.7-0.7L121.4,26.9z"/>
	<path class="st4" d="M152.4,41.5c-0.6,1.1-1.4,1.9-2.3,2.6c-0.9,0.7-1.9,1.1-2.9,1.4c-1,0.3-2.1,0.3-3.2,0.2
		c-1.1-0.2-2.2-0.5-3.2-1.2c-1-0.6-1.9-1.4-2.6-2.3c-0.7-0.9-1.1-1.9-1.4-2.9c-0.3-1-0.3-2.1-0.2-3.2c0.2-1.1,0.6-2.2,1.2-3.3
		c0.6-1.1,1.4-1.9,2.3-2.6s1.9-1.1,2.9-1.4c1-0.3,2.1-0.3,3.2-0.2c1.1,0.2,2.2,0.5,3.2,1.2c1,0.6,1.9,1.4,2.6,2.3
		c0.7,0.9,1.1,1.9,1.4,2.9c0.3,1,0.3,2.1,0.2,3.2C153.5,39.4,153.1,40.5,152.4,41.5z M150.9,40.6c0.5-0.8,0.8-1.7,1-2.6
		c0.2-0.9,0.2-1.8,0-2.6s-0.5-1.7-1-2.4c-0.5-0.8-1.2-1.4-2.1-1.9s-1.8-0.8-2.7-0.9c-0.9-0.1-1.8,0-2.6,0.3
		c-0.8,0.3-1.6,0.7-2.3,1.3c-0.7,0.6-1.3,1.3-1.8,2.1c-0.5,0.8-0.8,1.7-1,2.6c-0.2,0.9-0.2,1.8,0,2.6s0.5,1.6,1,2.4
		c0.5,0.8,1.2,1.4,2.1,1.9s1.8,0.8,2.7,0.9c0.9,0.1,1.8,0,2.6-0.2c0.8-0.3,1.6-0.7,2.3-1.3C149.9,42.2,150.5,41.5,150.9,40.6z"/>
	<path class="st4" d="M156.4,54.1l5.3,5.4l-1.1,1l-6.4-6.6l11.6-11.3l1.1,1.2L156.4,54.1z"/>
	<path class="st4" d="M165.7,67.8l-0.9-1.4l13.5-9l0.9,1.4L165.7,67.8z"/>
</g>
</svg>
