<?xml version="1.0" encoding="utf-8"?>
<!-- Generator: Adobe Illustrator 23.0.6, SVG Export Plug-In . SVG Version: 6.00 Build 0)  -->
<svg version="1.1" id="Capa_1" xmlns="http://www.w3.org/2000/svg" xmlns:xlink="http://www.w3.org/1999/xlink" x="0px" y="0px"
	 viewBox="0 0 200 200" style="enable-background:new 0 0 200 200;" xml:space="preserve">
<style type="text/css">
	.st0{fill:none;stroke:#000000;stroke-width:2.2386;}
	.st1{fill:none;}
	.st2{fill:none;stroke:#000000;stroke-width:1.8315;stroke-miterlimit:10;}
</style>
<path class="st0" d="M99.99,56.96l-25.92,49.77c-10.54,20.25,4.15,44.46,26.97,44.46h0c22.45,0,37.17-23.5,27.36-43.7L103.9,57.02
	C103.11,55.4,100.82,55.37,99.99,56.96z"/>
<line class="st0" x1="101.59" y1="55.68" x2="101.59" y2="137.36"/>
<polyline class="st0" points="86.13,97.67 101.9,113.45 117.57,97.78 "/>
<polyline class="st0" points="92.23,86.28 101.9,95.94 112.17,85.67 "/>
<polyline class="st0" points="89.99,116.6 101.9,128.51 114.01,116.4 "/>
<path id="SVGID_x5F_1_x5F_" class="st1" d="M181.45,118.61c-4.11,44.06-43.3,76.43-87.52,72.3s-76.74-43.2-72.62-87.26
	s43.3-76.43,87.52-72.3S185.56,74.55,181.45,118.61z"/>
<text><textPath  xlink:href="#SVGID_x5F_1_x5F_" startOffset="5277.2969%">
<tspan  style="stroke:#000000;stroke-width:0.9227; font-family:'AvenirNext-Regular'; font-size:24.4068px; letter-spacing:241.11;">ECCOPOLI</tspan></textPath>
</text>
<path class="st2" d="M139.41,140.51c-9.38,12.49-23.64,20.27-39.37,19.81c-18.83-0.55-34.85-12.76-42.62-30.24"/>
<path class="st2" d="M125.3,60.55c6.87,6.34,11.75,14.5,14.16,23.41"/>
<path class="st2" d="M63.77,85.03c3.64-11.92,11.74-22.24,22.85-28.52"/>
<path class="st2" d="M55.32,148.42c-13.09-15.63-18.25-37.37-11.82-58.31c5.23-17.04,17.1-30.2,31.9-37.53"/>
<path class="st2" d="M160.45,84.28c5.46,12.98,6.57,27.87,2.11,42.38c-7.14,23.26-26.67,39.31-49.12,43.13"/>
</svg>
