<?xml version="1.0" encoding="utf-8"?>
<!-- Generator: Adobe Illustrator 23.0.6, SVG Export Plug-In . SVG Version: 6.00 Build 0)  -->
<svg version="1.1" id="Capa_1" xmlns="http://www.w3.org/2000/svg" xmlns:xlink="http://www.w3.org/1999/xlink" x="0px" y="0px"
	 viewBox="0 0 348 375" style="enable-background:new 0 0 348 375;" xml:space="preserve">
<style type="text/css">
	.st0{fill:#603813;}
	.st1{fill:none;}
</style>
<path class="st0" d="M141.5,30.5L141.5,30.5c-13.7,5.61-29.32,3.82-41.4-4.73l-13.32-9.43c-7.11-5.04-15.95-7.03-24.53-5.53
	l-0.28,0.05c-5.67,0.99-9.99,5.51-10.72,11.16c-0.24,1.84-0.47,3.65-0.66,5.11c-0.28,2.13-1.16,4.14-2.55,5.78l-7.45,8.8
	c-4.49,5.31-4.11,13.19,0.86,18.04L41.72,60c4.61,4.5,1.78,12.25-4.57,12.72c-1.64,0.12-3.28,0.24-4.87,0.36
	c-7.59,0.56-14.08,5.68-16.39,12.94l-0.07,0.23c-1.52,4.76-1.51,9.81,0,14.52c0.14,0.44,0.28,0.89,0.43,1.33
	c2.01,6.28,1.86,13.06-0.45,19.25l0,0c-1.52,4.08-2.54,8.34-3.04,12.67l-0.58,5.03c-0.92,7.98,4.8,15.2,12.79,16.12h0
	c7.64,0.88,15.38,0.49,22.9-1.15l6.94-1.52c7.31-1.6,14.38,3.52,15.15,10.96l0.47,4.54c0.67,6.47,4.85,12.04,10.87,14.49l7.7,3.14
	c4.68,1.9,9.84-1.34,10.16-6.38l0,0c0.19-2.98,3.04-5.06,5.93-4.31l17.15,4.41c6.47,1.66,12.9-2.81,13.6-9.45v0
	c0.43-4.09,2.49-7.84,5.72-10.39l5.12-4.04c5.56-4.39,12.86-5.91,19.71-4.11l0,0c3.91,1.03,7.63-2.19,7.17-6.21l-2.37-20.7
	c-0.44-3.88-2.06-7.53-4.63-10.47v0c-1.46-1.67-0.76-4.28,1.33-5l14.77-5.09c5.71-1.97,9.21-7.72,8.34-13.7l-2.74-18.71
	c-0.86-5.91-7.25-9.24-12.59-6.57l0,0c-3.34,1.67-7.15,2.11-10.78,1.24l0,0c-8.86-2.11-14.86-10.35-14.14-19.43l0.77-9.74
	C151.94,31.62,146.23,27.92,141.5,30.5L141.5,30.5z"/>
<rect class="st1" width="348" height="374"/>
</svg>
