<?xml version="1.0" encoding="utf-8"?>
<!-- Generator: Adobe Illustrator 23.0.6, SVG Export Plug-In . SVG Version: 6.00 Build 0)  -->
<svg version="1.1" id="Capa_1" xmlns="http://www.w3.org/2000/svg" xmlns:xlink="http://www.w3.org/1999/xlink" x="0px" y="0px"
	 viewBox="0 0 348 375" style="enable-background:new 0 0 348 375;" xml:space="preserve">
<style type="text/css">
	.st0{fill:#603813;}
</style>
<path class="st0" d="M251.9,62.1L251.9,62.1c-25.5,10.4-54.6,7.1-77.1-8.8L150,35.7c-13.2-9.4-29.7-13.1-45.7-10.3l-0.5,0.1
	c-10.6,1.8-18.6,10.3-20,20.8c-0.4,3.4-0.9,6.8-1.2,9.5c-0.5,4-2.2,7.7-4.7,10.8L64,83c-8.4,9.9-7.7,24.6,1.6,33.6l0.5,0.5
	c8.6,8.4,3.3,22.8-8.5,23.7c-3.1,0.2-6.1,0.4-9.1,0.7c-14.1,1-26.2,10.6-30.5,24.1l-0.1,0.4c-2.8,8.9-2.8,18.3,0,27
	c0.3,0.8,0.5,1.7,0.8,2.5c3.7,11.7,3.5,24.3-0.8,35.8l0,0c-2.8,7.6-4.7,15.5-5.7,23.6l-1.1,9.4c-1.7,14.9,8.9,28.3,23.8,30l0,0
	c14.2,1.6,28.6,0.9,42.6-2.1l12.9-2.8c13.6-3,26.8,6.6,28.2,20.4l0.9,8.5c1.2,12,9,22.4,20.2,27l14.3,5.8
	c8.7,3.5,18.3-2.5,18.9-11.9l0,0c0.4-5.5,5.7-9.4,11-8l31.9,8.2c12,3.1,24-5.2,25.3-17.6l0,0c0.8-7.6,4.6-14.6,10.7-19.3l9.5-7.5
	c10.4-8.2,23.9-11,36.7-7.7l0,0c7.3,1.9,14.2-4.1,13.4-11.6l-4.4-38.5c-0.8-7.2-3.8-14-8.6-19.5l0,0c-2.7-3.1-1.4-8,2.5-9.3
	l27.5-9.5c10.6-3.7,17.2-14.4,15.5-25.5l-5.1-34.8c-1.6-11-13.5-17.2-23.4-12.2l0,0c-6.2,3.1-13.3,3.9-20.1,2.3l0,0
	c-16.5-3.9-27.7-19.3-26.3-36.2l1.4-18.1C271.3,64.2,260.7,57.3,251.9,62.1L251.9,62.1z"/>
</svg>
