<?xml version="1.0" encoding="utf-8"?>
<!-- Generator: Adobe Illustrator 23.0.6, SVG Export Plug-In . SVG Version: 6.00 Build 0)  -->
<svg version="1.1" id="Capa_1" xmlns="http://www.w3.org/2000/svg" xmlns:xlink="http://www.w3.org/1999/xlink" x="0px" y="0px"
	 viewBox="0 0 700 700" style="enable-background:new 0 0 700 700;" xml:space="preserve">
<style type="text/css">
	.st0{stroke:#000000;stroke-width:1.2741;stroke-miterlimit:10;}
</style>
<g>
	<g>
		<path d="M163.56,524.95c-3.88,0.14-7.12-0.1-9.8-0.73c-2.03-0.5-3.64-1.39-4.88-2.74c-0.26-0.29-0.41-0.81-0.52-1.5
			c-0.04-0.75,0.05-1.23,0.27-1.43c0.93-0.85,1.75-0.88,2.54-0.03c0,0,0.03,0.17,0.12,0.48c0.02,0.31,0.08,0.52,0.18,0.62
			c0.95,1.03,3.11,1.74,6.45,2.09c3.27,0.35,7.02,0.2,11.22-0.44c4.97-0.81,8.49-2.14,10.52-4c1.64-1.51,1.81-2.97,0.53-4.36
			c-2.03-2.21-4.72-4.14-8-5.86c-1.68,0.03-2.93-0.47-3.78-1.4c-1.11-1.21-1.21-2.18-0.32-2.99c0.43-0.39,1.01-0.4,1.85-0.06
			c5.59,2.36,9.76,4.98,12.41,7.87c1.31,1.43,1.86,2.96,1.76,4.56c-0.14,1.57-0.81,2.91-2.09,4.09
			C178.22,522.6,172.07,524.49,163.56,524.95z M187.9,520.48c-0.16-0.18-0.31-0.77-0.33-1.8c-0.01-0.51-0.05-1.27-0.08-2.23
			c-0.16-0.25-0.22-0.39-0.29-0.46c-0.65-0.71-0.52-1.5,0.48-2.41c0.78-0.72,1.47-0.83,2.06-0.19c0.33,0.36,0.41,2.45,0.31,6.28
			c0.02,0.38-0.1,0.68-0.35,0.91C189.07,521.18,188.49,521.12,187.9,520.48z M191.83,521.61c-0.52-0.57-0.48-1.6,0.24-3.11
			c0.26-1.29,0.61-2.13,0.96-2.46c0.18-0.16,0.42-0.26,0.76-0.17c0.34,0.01,0.65,0.13,0.87,0.38c0.43,0.46,0.31,1.49-0.27,3
			l-0.27,1.5c-0.15,0.4-0.37,0.74-0.59,0.93C192.93,522.24,192.35,522.18,191.83,521.61z"/>
		<path d="M210.99,564.71c-3.11,1.09-6.54,1.89-10.32,2.34c-4.33,0.48-7.27,0.22-8.78-0.83c-0.88-0.61-1.01-1.35-0.41-2.22
			c0.58-0.84,1.33-0.91,2.29-0.24c1.15,0.38,2.37,0.58,3.68,0.54c6.92-0.22,12.65-1.79,17.21-4.65c1.03-0.64,1.75-1.26,2.14-1.82
			c1.26-1.83,0.7-3.57-1.69-5.22c-0.64-0.44-2.83-1.6-6.48-3.48c-0.51,0.06-1.33-0.03-2.45-0.28c-1.38-0.3-2.39-0.71-3.07-1.18
			c-1.35-0.94-1.67-1.92-0.96-2.96c0.52-0.76,1.81-0.75,3.93,0.01c4.32,1.57,7.96,3.38,10.83,5.36c1.67,1.15,2.75,2.49,3.33,3.95
			c0.63,1.73,0.44,3.36-0.66,4.96C217.96,561.35,215.07,563.23,210.99,564.71z M223.86,546.77c-3.95-1.78-7.23-3.58-9.86-5.4
			c-1.35-0.93-2.38-1.76-3.09-2.6c-0.5-0.47-0.48-1.1,0.02-1.81c0.25-0.36,0.65-0.61,1.22-0.75c0.57-0.14,1.06-0.09,1.42,0.16
			c0.56,0.39,0.98,0.97,1.26,1.75c0.58,0.52,0.98,0.79,1.22,0.96c0.92,0.63,4,2.29,9.26,4.99c0.72,0.49,0.81,1.21,0.21,2.09
			C225.02,546.87,224.47,547.07,223.86,546.77z"/>
		<path d="M266.72,577.99c-0.03-0.01-0.73-0.35-2.05-1.04c-0.7-0.34-1.72-0.86-3.05-1.51c-3.98-1.98-6.36-3.17-7.18-3.51
			c-1.6-0.68-3.42-1.3-5.45-1.93c-1,0.09-2.14-0.15-3.5-0.74c-0.48-0.2-0.83-0.51-1.07-0.98c-0.28-0.48-0.32-0.94-0.13-1.38
			c0.44-1.02,3.75-0.21,9.96,2.45c2.75,1.18,5.65,2.58,8.67,4.15c0.89,0.46,1.38,0.71,1.52,0.77c0.1,0.04,0.27,0.12,0.56,0.2
			c0.22,0.05,0.4,0.09,0.54,0.15c0.58,0.25,1.12,0.68,1.61,1.21c0.59,0.69,0.77,1.3,0.54,1.84
			C267.52,578.09,267.2,578.19,266.72,577.99z"/>
		<path d="M312.91,596.27c-3.87,2.96-7.22,5.09-10.06,6.38c-3.39,1.58-7.17,2.67-11.29,3.21c-0.5,0.49-1.13,0.71-1.93,0.74
			c-1.19,0-2.02-0.02-2.5-0.12c-1.61-0.33-2.24-1.1-2.01-2.24c0.2-0.95,0.68-1.39,1.48-1.43c5.07-0.14,9.42-0.88,13.07-2.3
			c3.23-1.26,7.06-3.59,11.56-6.96c0.47-0.35,0.9-0.51,1.27-0.43c1,0.2,1.39,0.93,1.16,2.07
			C313.6,595.57,313.32,595.96,312.91,596.27z M299.97,587.58c-0.38-0.08-0.83-0.52-1.34-1.41c-0.34-0.51-1.27-1.5-2.86-2.91
			c-1.05-0.91-1.44-1.88-1.23-2.92c0.21-1.04,0.99-1.43,2.31-1.15c1,0.2,2.55,2.01,4.72,5.42c0.42,0.58,0.61,1.11,0.51,1.59
			C301.84,587.37,301.11,587.81,299.97,587.58z"/>
		<path d="M362.68,605.69c0.26,0.67,0.41,1.06,0.41,1.25c0.02,1.07-0.45,1.56-1.37,1.58c-1.12-0.07-2.18-0.15-3.2-0.13
			c-1.06,0.02-3,0.21-5.8,0.46c-3.09,0.26-4.79,0.49-5.17,0.69c-1.06,0.46-1.73,0.67-2.02,0.67c-0.63,0.01-1.12-0.12-1.46-0.5
			c-0.4-0.38-0.6-0.76-0.6-1.15c-0.02-0.87,0.55-1.46,1.71-1.73c4.1-1.01,8.78-1.59,14.11-1.7c1.42-1.39,2.97-3.69,4.56-6.88
			c1.72-3.38,2.59-5.96,2.55-7.8c-0.05-2.23-1.71-3.31-4.96-3.24c-4.07,0.08-7.69,0.6-10.87,1.53c-1.15,0.56-2.11,0.82-2.89,0.83
			c-1.79,0.04-2.67-0.48-2.7-1.59c-0.02-1.07,0.45-1.66,1.51-1.87c6.37-1.3,11.29-1.98,14.68-2.05c5.28-0.11,7.99,2.06,8.08,6.47
			C369.3,593.69,367.08,598.72,362.68,605.69z"/>
		<path d="M414.75,591.52c-0.52,0.93-1.22,1.5-2.07,1.72c-1.5,0.38-2.69,0.03-3.65-1.03c-0.36-0.26-0.68-0.53-0.95-0.81
			c-0.31-0.22-0.51-0.62-0.67-1.28c-0.46-1.83,0.27-3.11,2.29-3.82c0.23-0.26,0.59-0.45,0.96-0.54c0.56-0.14,1.35,0.01,2.26,0.43
			c1.27,0.68,2.02,1.49,2.28,2.52C415.43,589.65,415.27,590.59,414.75,591.52z"/>
		<path d="M511.67,532.53c-0.03,0.02-0.66,0.48-1.89,1.31c-0.63,0.45-1.57,1.11-2.78,1.97c-3.63,2.56-5.81,4.1-6.5,4.65
			c-1.36,1.08-2.77,2.39-4.28,3.88c-0.4,0.93-1.15,1.81-2.31,2.73c-0.4,0.32-0.84,0.48-1.37,0.47c-0.55,0.02-0.98-0.16-1.28-0.54
			c-0.69-0.87,1.6-3.39,6.89-7.6c2.34-1.86,4.95-3.75,7.77-5.66c0.83-0.56,1.28-0.88,1.4-0.97c0.09-0.07,0.23-0.18,0.44-0.4
			c0.15-0.17,0.27-0.31,0.39-0.4c0.49-0.39,1.13-0.66,1.83-0.84c0.89-0.19,1.51-0.06,1.87,0.4
			C512.14,531.87,512.07,532.21,511.67,532.53z"/>
		<path d="M548.75,504.4c0.07,0.44-0.04,0.79-0.22,1.02c-0.25,0.3-0.61,0.5-1.18,0.65c-0.5,0.21-0.99,0.43-1.47,0.54
			c-1.32,0.66-3.48,1.57-6.4,2.78c2.74,2.31,6.96,6.25,12.68,11.78c1.36,1.4,1.76,2.5,1.07,3.31c-0.75,0.89-1.54,0.92-2.35,0.23
			c-0.16-0.26-0.33-0.59-0.57-1.05c-1.1-1.18-3.98-3.92-8.64-8.24c-4.72-4.24-8.78-7.85-12.22-10.75c-0.67-0.56-1.91-1.49-3.74-2.78
			l-0.97-0.5c-0.3-0.25-0.5-0.61-0.54-1.09c-0.03-0.41,0.1-0.8,0.35-1.1c0.56-0.67,1.28-0.76,2.17-0.39
			c0.75,0.38,2.51,1.68,5.18,3.93c1.37,1.16,2.89,2.5,4.57,4.05c1.92-0.47,4.87-1.72,8.9-3.64c1.06-0.5,1.99-0.41,2.73,0.21
			C548.44,503.64,548.65,504,548.75,504.4z"/>
	</g>
	<g>
		<path class="st0" d="M102.34,241.19l4.81-11.21c0.61-1.42,1.38-2.79,2.3-4.11c0.92-1.32,2-2.4,3.22-3.24
			c1.22-0.84,2.61-1.36,4.16-1.55c1.55-0.19,3.27,0.11,5.14,0.92c1.98,0.85,3.45,2.2,4.4,4.04c0.95,1.84,1.22,3.88,0.81,6.1
			l0.11,0.05c1.33-2.32,3.15-3.93,5.45-4.85c2.3-0.92,4.84-0.78,7.6,0.4c1.56,0.67,2.84,1.61,3.86,2.82c1.01,1.21,1.71,2.61,2.1,4.2
			c0.39,1.59,0.46,3.36,0.21,5.3c-0.25,1.95-0.83,4-1.76,6.15l-4.78,11.14L102.34,241.19z M120.45,244.44l3.31-7.71
			c0.4-0.92,0.69-1.9,0.88-2.93c0.19-1.03,0.2-2.04,0.02-3.04c-0.18-1-0.59-1.92-1.24-2.77s-1.59-1.53-2.83-2.06
			c-1.2-0.52-2.33-0.72-3.36-0.59c-1.04,0.12-2,0.48-2.88,1.06c-0.88,0.59-1.67,1.38-2.37,2.38c-0.7,1-1.32,2.12-1.85,3.36
			l-2.85,6.64L120.45,244.44z M138.31,252.1l3.06-7.12c0.59-1.38,1.03-2.76,1.3-4.13c0.27-1.37,0.32-2.65,0.14-3.84
			c-0.18-1.19-0.62-2.27-1.32-3.24c-0.7-0.97-1.7-1.74-3.01-2.3c-2.48-1.06-4.69-1.02-6.64,0.14c-1.94,1.16-3.58,3.28-4.9,6.36
			l-3.35,7.81L138.31,252.1z"/>
		<path class="st0" d="M160.99,208.17l10.92-15.65l3.04,2.12l-13.31,19.06l-33.58-23.44l2.38-3.41L160.99,208.17z"/>
		<path class="st0" d="M186.64,180.98l-3.34,3.12l-15-42.01l2.96-2.76l40.79,17.94l-3.38,3.16l-10.64-4.79l-15.48,14.44
			L186.64,180.98z M181.09,166.23l13.19-12.31l-21.43-9.74L181.09,166.23z"/>
		<path class="st0" d="M249.02,127.67l0.1-0.06l-16.97-30.47l3.64-2.03l19.93,35.77l-4.55,2.53l-37.96-19.17l-0.1,0.06l17.14,30.77
			l-3.64,2.03l-19.93-35.77l4.55-2.53L249.02,127.67z"/>
		<path class="st0" d="M308.26,107.25c-0.4,1.19-0.96,2.35-1.67,3.5c-0.71,1.15-1.6,2.23-2.66,3.25c-1.07,1.01-2.3,1.92-3.7,2.72
			c-1.4,0.8-3,1.44-4.79,1.92c-2.98,0.8-5.88,1.01-8.69,0.64c-2.81-0.37-5.38-1.23-7.69-2.58c-2.32-1.36-4.33-3.16-6.03-5.42
			c-1.7-2.26-2.95-4.9-3.76-7.92c-0.81-3.02-1.03-5.93-0.66-8.74c0.37-2.81,1.23-5.39,2.58-7.72s3.15-4.36,5.38-6.08
			c2.24-1.71,4.83-2.96,7.77-3.75c1.45-0.39,2.92-0.62,4.4-0.69c1.48-0.07,2.9,0.01,4.28,0.23c1.38,0.22,2.67,0.58,3.88,1.08
			c1.21,0.5,2.28,1.15,3.21,1.93l-2.7,3.35c-0.58-0.52-1.3-1.01-2.16-1.46c-0.86-0.45-1.82-0.79-2.88-1.03
			c-1.06-0.23-2.18-0.35-3.36-0.36c-1.18,0-2.4,0.16-3.67,0.5c-2.57,0.69-4.75,1.77-6.53,3.24c-1.78,1.47-3.17,3.18-4.16,5.14
			c-0.99,1.96-1.59,4.07-1.78,6.35c-0.19,2.28,0.02,4.57,0.64,6.87c0.61,2.3,1.58,4.39,2.9,6.27c1.32,1.88,2.9,3.41,4.73,4.61
			c1.84,1.2,3.89,1.99,6.17,2.38c2.28,0.39,4.68,0.24,7.22-0.44c2.27-0.61,4.31-1.65,6.11-3.13c1.8-1.48,3.12-3.43,3.95-5.84
			L308.26,107.25z"/>
		<path class="st0" d="M368.03,90.3c0.05,3.12-0.44,6-1.48,8.64c-1.04,2.64-2.49,4.93-4.37,6.87c-1.88,1.94-4.11,3.47-6.69,4.59
			c-2.58,1.12-5.4,1.71-8.45,1.76c-3.05,0.05-5.88-0.45-8.5-1.48s-4.9-2.49-6.84-4.37c-1.94-1.88-3.47-4.12-4.59-6.72
			c-1.12-2.6-1.71-5.47-1.76-8.59c-0.05-3.12,0.44-6,1.48-8.64c1.04-2.64,2.49-4.93,4.37-6.87c1.88-1.94,4.11-3.47,6.69-4.59
			c2.58-1.12,5.4-1.71,8.45-1.76c3.04-0.05,5.88,0.45,8.5,1.48c2.62,1.04,4.9,2.49,6.84,4.37c1.94,1.88,3.47,4.12,4.59,6.72
			C367.39,84.32,367.98,87.18,368.03,90.3z M363.64,90.4c-0.04-2.39-0.46-4.65-1.27-6.79c-0.81-2.14-1.96-4.02-3.45-5.63
			c-1.49-1.61-3.3-2.88-5.41-3.81s-4.49-1.37-7.11-1.33c-2.62,0.04-4.98,0.56-7.06,1.56c-2.09,1-3.85,2.32-5.29,3.98
			c-1.44,1.66-2.53,3.57-3.26,5.74c-0.74,2.17-1.08,4.45-1.05,6.83c0.04,2.39,0.46,4.65,1.27,6.79c0.81,2.14,1.95,4.01,3.45,5.6
			c1.49,1.59,3.29,2.85,5.41,3.78c2.12,0.93,4.48,1.37,7.11,1.33c2.62-0.04,4.97-0.56,7.06-1.56c2.08-1,3.85-2.31,5.29-3.96
			c1.44-1.64,2.53-3.54,3.26-5.71C363.33,95.07,363.67,92.79,363.64,90.4z"/>
		<path class="st0" d="M419.02,122.3l-3.9-1.45l14.29-38.37l11.27,4.2c1.88,0.7,3.55,1.53,5.03,2.49c1.47,0.96,2.65,2.07,3.52,3.32
			s1.39,2.65,1.56,4.19c0.17,1.54-0.1,3.25-0.8,5.13c-0.52,1.41-1.26,2.6-2.19,3.57c-0.94,0.97-2,1.72-3.18,2.24
			c-1.18,0.53-2.46,0.82-3.85,0.88c-1.38,0.06-2.8-0.1-4.27-0.48l4.42,22.44l-4.77-1.78l-3.94-21.9l-6.5-2.42L419.02,122.3z
			 M426.96,101l6.77,2.52c3.14,1.17,5.78,1.5,7.9,1c2.12-0.51,3.61-1.9,4.46-4.17c0.47-1.26,0.63-2.42,0.49-3.46
			c-0.15-1.04-0.54-1.99-1.16-2.84c-0.63-0.85-1.49-1.63-2.59-2.32c-1.1-0.7-2.37-1.31-3.82-1.85l-6.94-2.58L426.96,101z"/>
		<path class="st0" d="M502.83,144.65c-1.76,2.58-3.83,4.65-6.19,6.21c-2.37,1.56-4.88,2.59-7.53,3.09s-5.36,0.46-8.12-0.11
			c-2.76-0.58-5.4-1.72-7.91-3.44c-2.52-1.72-4.54-3.75-6.09-6.11s-2.56-4.86-3.06-7.52c-0.5-2.65-0.46-5.37,0.13-8.14
			c0.58-2.77,1.76-5.45,3.52-8.03s3.82-4.65,6.19-6.21c2.37-1.56,4.88-2.59,7.53-3.09c2.65-0.5,5.36-0.46,8.12,0.11
			c2.76,0.58,5.39,1.72,7.91,3.44c2.52,1.72,4.54,3.75,6.09,6.11c1.54,2.36,2.56,4.86,3.06,7.52c0.5,2.65,0.46,5.37-0.13,8.14
			C505.76,139.39,504.59,142.07,502.83,144.65z M499.18,142.2c1.34-1.97,2.31-4.06,2.88-6.28c0.58-2.22,0.72-4.41,0.43-6.59
			c-0.29-2.18-1.03-4.26-2.22-6.23c-1.19-1.98-2.87-3.71-5.04-5.19c-2.17-1.48-4.39-2.41-6.67-2.8c-2.28-0.39-4.48-0.32-6.62,0.21
			c-2.13,0.53-4.12,1.46-5.98,2.81c-1.85,1.35-3.45,3.01-4.8,4.98c-1.34,1.97-2.31,4.07-2.88,6.28c-0.58,2.22-0.72,4.4-0.42,6.56
			c0.3,2.16,1.05,4.23,2.24,6.21c1.19,1.98,2.87,3.71,5.04,5.18c2.17,1.48,4.39,2.41,6.67,2.8c2.28,0.39,4.48,0.33,6.6-0.18
			c2.12-0.51,4.11-1.44,5.96-2.78C496.23,145.83,497.83,144.17,499.18,142.2z"/>
		<path class="st0" d="M513.6,184.42l-2.82-3.07l27.43-25.19l-9.27-10.09l2.73-2.5l21.36,23.26l-2.73,2.5l-9.27-10.1L513.6,184.42z"
			/>
		<path class="st0" d="M570.46,232.67c-2.72,1.53-5.49,2.47-8.3,2.82c-2.81,0.35-5.52,0.16-8.12-0.57c-2.6-0.73-5.01-1.96-7.23-3.69
			s-4.08-3.93-5.57-6.59c-1.5-2.65-2.41-5.38-2.75-8.18c-0.34-2.8-0.14-5.5,0.58-8.1s1.96-5.01,3.72-7.24
			c1.75-2.23,3.99-4.11,6.71-5.64c2.72-1.53,5.49-2.47,8.3-2.82c2.81-0.35,5.52-0.16,8.12,0.57c2.6,0.73,5.01,1.96,7.23,3.69
			c2.22,1.74,4.08,3.93,5.57,6.59c1.5,2.65,2.41,5.38,2.75,8.18c0.34,2.8,0.14,5.5-0.58,8.1s-1.97,5.01-3.72,7.24
			C575.42,229.25,573.18,231.13,570.46,232.67z M568.28,228.85c2.08-1.17,3.87-2.62,5.37-4.35c1.5-1.73,2.6-3.63,3.31-5.71
			c0.71-2.08,0.96-4.27,0.77-6.57c-0.19-2.3-0.93-4.6-2.22-6.88c-1.29-2.28-2.87-4.11-4.74-5.46c-1.87-1.36-3.88-2.27-6.02-2.75
			c-2.14-0.47-4.34-0.52-6.6-0.13c-2.26,0.39-4.42,1.17-6.5,2.34s-3.87,2.62-5.37,4.35c-1.5,1.73-2.59,3.63-3.28,5.7
			c-0.69,2.07-0.94,4.26-0.74,6.56c0.19,2.3,0.93,4.6,2.22,6.88c1.29,2.28,2.87,4.1,4.74,5.46c1.87,1.36,3.87,2.28,6,2.76
			c2.13,0.48,4.32,0.53,6.58,0.14C564.03,230.8,566.2,230.02,568.28,228.85z"/>
	</g>
	<path d="M409.72,375.94c-0.34,2.11-0.09,4.21,0.62,6.28c1.06,3.12,7.72,1.88,7.09-1.32c-0.34-1.71-0.22-3.33-0.35-4.95
		c-0.11-1.35-1.84-2.49-3.67-2.49C411.23,373.45,409.94,374.59,409.72,375.94L409.72,375.94z"/>
	<g>
		<g>
			<g id="XMLID_44_">
				<g>
					<path d="M355.66,409.26c1.86-0.1,3.81-0.1,5.84,0.01c-0.88,1.12-1.84,2.19-2.86,3.15
						C357.59,411.45,356.58,410.39,355.66,409.26z"/>
					<path d="M361.5,409.27c-2.03-0.11-3.98-0.11-5.84-0.01c0.92,1.13,1.92,2.2,2.99,3.17C359.66,411.45,360.62,410.39,361.5,409.27
						z M364.67,407.82c0.23,0.51,0.14,1.11-0.23,1.53l-0.19,0.24c-1.36,1.89-2.93,3.64-4.61,5.18c-0.25,0.25-0.6,0.39-0.96,0.39
						c-0.36,0-0.69-0.13-0.94-0.37c-1.83-1.55-3.45-3.31-4.84-5.23l-0.19-0.24c-0.33-0.36-0.43-0.97-0.2-1.49
						c0.22-0.49,0.68-0.81,1.19-0.84c3.01-0.27,6.27-0.27,9.69-0.01C363.94,407,364.44,407.32,364.67,407.82z"/>
				</g>
				<g>
				</g>
			</g>
		</g>
		<g>
			<g>
				<path d="M329.01,435.02c3.78,4.65,9.86,7.02,15.73,7.35c3.39,0.19,6.77-0.42,9.91-1.68c2.93-1.18,5.6-2.45,8.76-1.37
					c2.31,0.79,3.31-2.87,1.01-3.66c-3.02-1.03-5.95-0.56-8.86,0.58c-2.99,1.18-5.82,2.28-9.08,2.36
					c-5.52,0.13-11.26-1.91-14.8-6.27c-0.65-0.8-2-0.66-2.68,0C328.22,433.12,328.37,434.23,329.01,435.02L329.01,435.02z"/>
			</g>
		</g>
		<g>
			<g>
				<path d="M390.28,432.35c-3.54,4.36-9.28,6.4-14.8,6.27c-3.26-0.08-6.09-1.18-9.08-2.36c-2.91-1.15-5.84-1.62-8.86-0.59
					c-2.3,0.79-1.31,4.45,1.01,3.66c3.16-1.08,5.83,0.19,8.76,1.37c3.14,1.27,6.53,1.87,9.91,1.68c5.87-0.33,11.96-2.7,15.73-7.35
					c0.65-0.8,0.77-1.9,0-2.68C392.3,431.67,390.92,431.55,390.28,432.35L390.28,432.35z"/>
			</g>
		</g>
		<g>
			<g>
				<path d="M386.59,439.96c2.32-1.72,5.35-2.41,7.2-4.73c0.47-0.59,0.87-1.19,0.87-1.98c0-0.86-0.48-1.67-1.21-2.1
					c-0.47-0.28-1.03-0.43-1.58-0.43c-0.25,0-0.54,0.04-0.78,0.1c-0.23,0.06-0.79,0.32-0.92,0.55c-0.03,0.06-0.19,0.17,0.06-0.02
					c0.3-0.22,0.01-0.01-0.05,0.03c-0.21,0.16-0.43,0.32-0.63,0.49c-0.27,0.22-0.52,0.45-0.76,0.69c-0.46,0.46-0.87,0.96-1.28,1.47
					c-0.44,0.54-0.88,1.08-1.37,1.58c-0.25,0.26-0.52,0.48-0.8,0.72c0.46-0.39,0.02-0.03-0.12,0.06c-0.18,0.12-0.36,0.22-0.55,0.32
					c-0.88,0.46-1.22,1.76-0.68,2.59C384.57,440.18,385.65,440.46,386.59,439.96c1.12-0.58,2.07-1.46,2.89-2.41
					c0.72-0.84,1.38-1.74,2.19-2.51c0.1-0.1,0.2-0.19,0.3-0.28c0.05-0.04,0.45-0.36,0.17-0.15c-0.27,0.2,0.08-0.06,0.15-0.1
					c0.2-0.15,0.42-0.29,0.58-0.48c0.31-0.36-0.9,0.48-1.14,0.47c0.02,0,0.21-0.02,0.21-0.01c0,0.05-0.51-0.15-0.2-0.02
					c-0.03-0.01-0.41-0.23-0.19-0.07c-0.08-0.08-0.16-0.16-0.24-0.25c-0.22-0.14-0.33-0.33-0.33-0.59
					c-0.03-0.11-0.06-0.23-0.09-0.34c0.22-0.61,0.26-0.79,0.12-0.56c-0.13,0.22,0.23-0.28,0.09-0.1c-0.06,0.07-0.11,0.14-0.17,0.2
					c-0.17,0.2-0.34,0.38-0.52,0.56c-0.09,0.08-0.18,0.16-0.27,0.24c-0.1,0.09-0.27,0.16,0.17-0.13c-0.06,0.04-0.12,0.09-0.19,0.14
					c-0.49,0.34-1.03,0.61-1.57,0.88c-1.32,0.67-2.67,1.32-3.86,2.2c-0.41,0.3-0.73,0.62-0.87,1.13c-0.13,0.45-0.07,1.06,0.19,1.46
					C384.5,440.07,385.74,440.6,386.59,439.96L386.59,439.96z"/>
			</g>
		</g>
		<g>
			<g>
				<path d="M335.53,435.75c-1.08-0.75-2.29-1.31-3.48-1.87c-0.57-0.27-1.16-0.52-1.71-0.83c-0.22-0.12-0.41-0.27-0.62-0.4
					c-0.19-0.12,0.33,0.27,0.16,0.13c-0.05-0.04-0.1-0.08-0.14-0.12c-0.11-0.09-0.21-0.19-0.32-0.29c-0.19-0.19-0.36-0.39-0.54-0.58
					c-0.14-0.16,0.13,0.2,0.15,0.25c0.19,0.41,0.08,0.95-0.19,1.3c-0.13,0.17-0.26,0.29-0.46,0.37c-0.15,0.06-0.18,0.07-0.09,0.04
					c0.15-0.04,0.06-0.03-0.25,0.02c0.03,0.01,0.19,0,0.21,0c-0.19-0.08-0.39-0.17-0.58-0.25c-0.54-0.33-0.72-0.41-0.56-0.23
					c0.09,0.11,0.2,0.18,0.31,0.27c0.16,0.13,0.33,0.24,0.5,0.36c0.04,0.03,0.09,0.06,0.13,0.09c0.32,0.22-0.34-0.29-0.04-0.04
					c0.87,0.73,1.6,1.59,2.36,2.43c0.93,1.03,1.98,2.02,3.25,2.63c0.89,0.43,2.09,0.28,2.59-0.68
					C336.66,437.5,336.48,436.21,335.53,435.75c-0.29-0.14-0.58-0.3-0.85-0.48c-0.07-0.05-0.51-0.36-0.24-0.16
					c0.24,0.17,0.05,0.03-0.01-0.02c-0.08-0.07-0.16-0.14-0.24-0.21c-0.48-0.43-0.92-0.91-1.35-1.4c-0.95-1.07-1.89-2.11-3.09-2.91
					c-0.07-0.05-0.28-0.2-0.01,0.01c0.24,0.19,0.1,0.09,0.06,0.02c-0.11-0.16-0.3-0.26-0.46-0.36c-0.61-0.35-1.43-0.35-2.09-0.15
					c-1.55,0.46-2.37,2.16-1.58,3.62c0.34,0.64,0.94,1.25,1.51,1.71c0.6,0.49,1.22,0.9,1.92,1.23c1.54,0.73,3.13,1.39,4.54,2.36
					c0.82,0.56,2.14,0.18,2.59-0.68C336.72,437.38,336.4,436.35,335.53,435.75L335.53,435.75z"/>
			</g>
		</g>
		<g>
			<g>
				<path d="M383.97,360.97c-0.01-0.73-0.2,0.48,0.02-0.22c0.25-0.78-0.27,0.49,0.09-0.26c0.2-0.4,0.39-0.8,0.59-1.2
					c0.25-0.48,0.53-0.94,0.81-1.39c0.28-0.45-0.12,0.08,0.1-0.14c0.18-0.19,0.35-0.39,0.54-0.57c0.19-0.18,0.41-0.34,0.07-0.09
					c0.2-0.15,0.41-0.29,0.62-0.42c0.4-0.24,0.81-0.43,1.23-0.64c0.31-0.16-0.42,0.15,0.11-0.04c0.24-0.09,0.48-0.18,0.72-0.27
					c0.48-0.17,0.97-0.32,1.45-0.48c-0.97-1.66-1.94-3.33-2.91-4.99c-2.58,3.01-5.16,6.02-7.74,9.03c-0.71,0.83-1.07,1.82-0.77,2.91
					c0.25,0.93,1.09,1.92,2.09,2.09c3.32,0.56,6.43-0.05,9.48-1.4c2.39-1.06,4.89-2.44,6.87-4.17c1.07-0.93,1.97-2.23,2.24-3.64
					c0.47-2.45-1.32-4.52-3.79-4.49c-2.91,0.04-5.62,1.66-8,3.17c1.46,1.12,2.92,2.25,4.39,3.37c-0.04,0.11-0.09,0.21-0.13,0.32
					c0.15-0.23,0.15-0.25,0-0.06c-0.19,0.49,0.08-0.33,0.19-0.19c0,0-0.49,0.36-0.09,0.08c0.53-0.37-0.54,0.15,0.08-0.03
					c1.5-0.45,2.59-2.12,2.09-3.67c-0.49-1.51-2.07-2.56-3.67-2.09c-2.08,0.62-3.45,2.07-4.23,4.06c-0.43,1.09,0.22,2.48,1.07,3.14
					c0.91,0.71,2.3,0.88,3.32,0.23c1.02-0.65,2.05-1.29,3.14-1.81c0.12-0.06,0.24-0.11,0.36-0.17c-0.3,0.13-0.3,0.13,0.03,0.01
					c0.25-0.07,0.5-0.17,0.76-0.24c0.26-0.07,0.51-0.12,0.77-0.17c-0.33,0.04-0.36,0.05-0.08,0.02c-0.67-0.06-1.24-0.39-1.68-0.98
					c-0.14-0.5-0.27-1-0.41-1.51c0.12-0.43,0.13-0.48,0.03-0.15c0.15-0.35,0.15-0.37,0-0.07c-0.18,0.28-0.16,0.27,0.06-0.03
					c-0.1,0.12-0.21,0.24-0.32,0.35c-0.17,0.17-0.35,0.32-0.54,0.48c0.54-0.47-0.26,0.17-0.38,0.24c-1.11,0.73-2.26,1.41-3.43,2.03
					c-0.29,0.15-0.59,0.31-0.88,0.45c-0.1,0.05-1.11,0.48-0.58,0.27c-0.62,0.24-1.24,0.46-1.89,0.63c-0.37,0.1-0.74,0.17-1.11,0.24
					c-0.63,0.12,0.37,0.02-0.33,0.03c-0.38,0.01-0.75,0.04-1.13,0.02c-0.19-0.01-0.38-0.02-0.56-0.03c0.33,0.05,0.31,0.05-0.05-0.01
					c0.44,1.66,0.88,3.33,1.32,4.99c2.58-3.01,5.16-6.02,7.74-9.03c0.84-0.98,1.22-2.45,0.47-3.62c-0.7-1.08-2.08-1.78-3.37-1.37
					c-2.52,0.8-5.11,1.73-7.02,3.65c-0.96,0.97-1.7,2.16-2.32,3.38c-0.72,1.41-1.43,2.83-1.4,4.46c0.03,1.56,1.35,3.06,2.99,2.99
					C382.58,363.89,384.01,362.64,383.97,360.97L383.97,360.97z"/>
			</g>
		</g>
		<g>
			<g>
				<path d="M336.83,360.57c-0.05-1.64-0.75-3.01-1.55-4.4c-0.67-1.17-1.45-2.36-2.46-3.28c-2.01-1.84-4.57-2.68-7.15-3.36
					c-2.92-0.77-4.95,2.84-2.91,4.99c2.73,2.87,5.46,5.75,8.19,8.62c0.44-1.66,0.88-3.33,1.32-4.99c-0.74,0.16-2.36,0.15-3.12,0
					c-0.68-0.14-1.35-0.33-2.01-0.55c-0.37-0.13-0.75-0.27-1.11-0.42c0.47,0.2-0.41-0.2-0.51-0.24c-1.19-0.56-2.37-1.18-3.51-1.85
					c-0.24-0.15-0.48-0.31-0.72-0.46c-0.27-0.2-0.26-0.19,0.03,0.03c-0.09-0.08-0.18-0.16-0.27-0.24c-0.16-0.15-0.54-0.77-0.22-0.2
					c-0.09-0.13-0.16-0.27-0.23-0.41c0.21,0.38,0.27,0.79,0.17,1.25c-0.26,0.44-0.51,0.88-0.77,1.32c-0.39,0.34-0.83,0.51-1.32,0.53
					c0.11,0,0.22,0,0.32,0.01c0.22,0.02,0.18,0.01-0.11-0.03c0.14,0.02,0.27,0.05,0.41,0.07c0.59,0.12,1.15,0.3,1.71,0.51
					c0.83,0.31-0.49-0.25,0.31,0.14c0.25,0.12,0.5,0.24,0.75,0.37c0.58,0.3,1.15,0.62,1.72,0.94c1.11,0.63,2.72,0.51,3.62-0.47
					c0.96-1.05,1.04-2.36,0.47-3.62c-0.74-1.61-2.33-2.81-4.03-3.23c-1.51-0.37-3.31,0.48-3.67,2.09c-0.35,1.54,0.46,3.27,2.09,3.67
					c0.13,0.03,0.61,0.29,0.3,0.08c-0.39-0.27,0.39,0.52-0.18-0.11c0.1,0.12,0.22,0.22,0.32,0.33c-0.43-0.5-0.06,0.03,0.01,0.19
					c1.36-1.36,2.72-2.72,4.09-4.09c-2.47-1.4-5.21-2.87-8.13-2.84c-2.41,0.03-4.31,2.09-3.76,4.53c0.31,1.36,1.2,2.6,2.26,3.48
					c2.17,1.8,4.92,3.06,7.53,4.09c2.91,1.15,6.07,1.54,9.14,0.86c2.27-0.5,2.79-3.44,1.32-4.99c-2.73-2.87-5.46-5.75-8.19-8.62
					c-0.97,1.66-1.94,3.33-2.91,4.99c0.9,0.24,1.81,0.48,2.69,0.8c0.21,0.08,0.7,0.31,0.23,0.08c0.23,0.11,0.45,0.21,0.68,0.33
					c0.18,0.1,0.36,0.21,0.54,0.32c0.11,0.07,0.21,0.14,0.31,0.21c-0.24-0.19-0.27-0.22-0.11-0.08c0.15,0.15,0.32,0.29,0.47,0.44
					c0.03,0.04,0.61,0.69,0.22,0.21c0.31,0.38,0.56,0.82,0.81,1.24c0.25,0.42,0.49,0.85,0.72,1.28c0.07,0.14,0.28,0.79,0.14,0.24
					c0.05,0.19,0.09,0.86,0.07,0.22c0.05,1.56,1.34,3.06,2.99,2.99C335.41,363.49,336.88,362.25,336.83,360.57L336.83,360.57z"/>
			</g>
		</g>
		<g>
			<g id="XMLID_43_">
				<g>
					<path d="M358.09,356.99c2.86,9.2,3.11,18.97,0.75,28.31l-0.26,0.99l-0.49-1.46C355.1,375.85,355.1,365.99,358.09,356.99z"/>
					<path d="M358.84,385.31c2.36-9.34,2.1-19.11-0.75-28.31c-2.99,9-2.99,18.85,0.01,27.85l0.49,1.46L358.84,385.31z M358.72,356
						c3.12,9.57,3.46,19.77,1.01,29.52l-0.49,1.95c-0.07,0.26-0.3,0.45-0.58,0.47c-0.01,0-0.02,0-0.02,0c-0.28,0-0.51-0.17-0.6-0.43
						l-0.8-2.39c-3.15-9.41-3.06-19.76,0.23-29.13c0.1-0.26,0.34-0.44,0.62-0.44c0.01,0,0.01,0,0.01,0
						C358.38,355.55,358.64,355.74,358.72,356z"/>
				</g>
				<g>
				</g>
			</g>
		</g>
		<g>
			<g>
				<path d="M396.67,387.93c0.64-1.48,1.26-2.18,2.34-3.25c1.19-1.19,2.47-2.2,3.84-3.14c2.99-2.06,6.36-3.88,9.65-5.15
					c3.75-1.45,7.66-1.82,11.62-2.38c5.11-0.72,10.25-1.57,15.04-3.55c4.77-1.97,9.24-4.92,11.91-9.46
					c1.65-2.81-2.72-5.36-4.37-2.55c-2.07,3.52-5.71,5.85-9.43,7.35c-4.83,1.95-10.06,2.71-15.19,3.43
					c-3.9,0.54-7.65,0.98-11.33,2.44c-3.61,1.43-7.09,3.21-10.31,5.4c-3.1,2.11-6.59,4.76-8.13,8.3c-0.55,1.25-0.37,2.72,0.91,3.46
					C394.28,389.46,396.12,389.19,396.67,387.93L396.67,387.93z"/>
			</g>
		</g>
		<g>
			<g>
				<path d="M326.1,384.68c-1.37-2.98-4.24-5.22-6.86-7.04c-3.16-2.2-6.62-3.95-10.18-5.41c-8.29-3.41-17.53-2.74-26.04-5.45
					c-4.3-1.37-8.85-3.61-11.31-7.56c-1.67-2.69-5.93-0.22-4.25,2.48c5.16,8.3,15.81,10.76,24.8,12.05
					c4.14,0.59,8.43,0.79,12.42,2.09c3.41,1.11,6.66,2.68,9.73,4.53c1.64,0.99,3.21,2.05,4.63,3.31c1.33,1.19,2.12,1.99,2.81,3.49
					c0.56,1.21,2.3,1.51,3.37,0.88C326.46,387.33,326.66,385.9,326.1,384.68L326.1,384.68z"/>
			</g>
		</g>
		<path d="M303.35,376.64c-0.06,1.6-0.09,3.12-0.34,4.71c-0.49,3.06,5.74,4.22,6.75,1.26c0.67-1.96,0.91-3.96,0.59-5.96
			c-0.21-1.27-1.46-2.36-3.5-2.36C305.12,374.28,303.14,375.36,303.35,376.64L303.35,376.64z"/>
	</g>
	<g>
		<g>
			<path d="M446.83,412.58c-7.44,11.36-16.43,21.82-27.21,30.16c-10.02,7.75-21.5,13.49-33.73,16.77
				c-12.57,3.37-26.19,4.5-39.11,2.81c-13.45-1.75-26.5-6.81-38.16-13.64c-11.82-6.92-22.76-16-30.7-27.24
				c-0.95-1.34-1.85-2.72-2.72-4.12c-1.71-2.77-6.09-0.23-4.37,2.55c7.56,12.28,18.39,22.34,30.4,30.18
				c12,7.84,25.61,13.72,39.72,16.41c13.6,2.59,27.96,2,41.46-0.92c12.9-2.78,25.22-8.15,36.03-15.71
				c11.62-8.13,21.41-18.5,29.58-30.04c1.09-1.54,2.15-3.1,3.18-4.67C452.99,412.4,448.61,409.86,446.83,412.58L446.83,412.58z"/>
		</g>
	</g>
	<g>
		<g>
			<path d="M258.36,196.61c-9.32,5.45-18.46,11.35-26.46,18.64c-7.92,7.22-14.46,15.8-19.8,25.06
				c-11.69,20.28-13.57,43.75-15.98,66.52c-1.68,15.91-6.11,31.51-9.29,47.24c-1.77,8.76-3.48,17.61-4.2,26.53
				c-0.35,4.35-0.12,8.67,0.16,13.01c0.36,5.63,0.94,11.25,1.84,16.82c1.54,9.54,4.21,18.81,7.92,27.73
				c4.24,10.18,9.47,19.89,14.79,29.53c1.62,2.94,3.25,5.87,4.88,8.8c1.58,2.85,5.96,0.3,4.37-2.55
				c-10.21-18.34-21.07-36.79-25.67-57.49c-2.25-10.13-3.43-20.79-3.43-31.17c0-7.89,1.49-15.55,2.94-23.3
				c1.71-9.13,3.72-18.2,5.75-27.26c1.47-6.54,3.09-13.07,4.01-19.72c2.97-21.42,3.23-43.5,12-63.67
				c4.32-9.94,10.53-19.31,17.93-27.23c6.9-7.38,15-13.4,23.54-18.75c2.39-1.5,4.82-2.95,7.25-4.38
				C263.72,199.33,261.18,194.95,258.36,196.61L258.36,196.61z"/>
		</g>
	</g>
	<g>
		<g>
			<path d="M490.92,262.43c6.27,13.54,8.33,28.29,11.31,42.77c3.03,14.72,7.96,28.97,11.19,43.65c1.57,7.11,2.79,14.3,3.26,21.57
				c0.45,7,0.11,13.97-0.82,20.92c-1.8,13.53-5.38,26.81-9.94,39.66c-5.63,15.85-12.83,31.09-20.67,45.96
				c-1.52,2.88,2.85,5.44,4.37,2.55c13.65-25.88,25.7-53.32,30.45-82.38c1.15-7.03,1.96-14.13,1.88-21.26
				c-0.09-7.54-1.04-15.06-2.44-22.46c-2.87-15.2-7.92-29.83-11.39-44.88c-1.83-7.91-3.08-15.95-4.81-23.88
				c-1.86-8.52-4.36-16.85-8.03-24.78c-0.57-1.24-2.36-1.55-3.46-0.91C490.56,259.71,490.34,261.18,490.92,262.43L490.92,262.43z"/>
		</g>
	</g>
	<g>
		<g>
			<path d="M291.37,186.02c16.08-5.62,32.99-8.65,50.02-9.03c17.03-0.38,34.07,1.84,50.42,6.62c9.23,2.7,18.2,6.21,26.8,10.54
				c2.9,1.46,5.47-2.91,2.55-4.37c-15.67-7.88-32.56-13.25-49.9-15.88c-17.46-2.65-35.21-2.64-52.66,0.09
				c-9.72,1.52-19.28,3.92-28.57,7.16c-1.29,0.45-2.15,1.73-1.77,3.11C288.6,185.5,290.07,186.47,291.37,186.02L291.37,186.02z"/>
		</g>
	</g>
	<g>
		<g>
			<path d="M450.6,206.86c6.33,5.04,12.04,10.77,17.11,17.06c5.04,6.25,9.45,12.99,13.81,19.72c1.76,2.73,6.15,0.19,4.37-2.55
				c-4.52-7-9.14-13.94-14.35-20.44c-5.14-6.41-10.93-12.25-17.36-17.37c-1.07-0.85-2.54-1.04-3.58,0
				C449.71,204.16,449.52,206,450.6,206.86L450.6,206.86z"/>
		</g>
	</g>
	<g>
		<g>
			<path d="M223.4,278.83c-1.74,6.05-3.89,11.96-5.66,17.99c-1.8,6.13-2.66,12.46-3.26,18.81c-0.13,1.36,1.26,2.53,2.53,2.53
				c1.48,0,2.4-1.16,2.53-2.53c0.57-6,1.44-11.93,3.16-17.72c1.77-5.94,3.87-11.77,5.58-17.74
				C229.18,277.03,224.3,275.69,223.4,278.83L223.4,278.83z"/>
		</g>
	</g>
	<g>
		<g>
			<path d="M219.26,361.25c1.13,17.9-3.63,35.95,0.93,53.63c0.81,3.15,5.7,1.82,4.88-1.35c-4.43-17.16,0.35-34.88-0.75-52.28
				c-0.09-1.36-1.1-2.53-2.53-2.53C220.49,358.72,219.17,359.88,219.26,361.25L219.26,361.25z"/>
		</g>
	</g>
	<g>
		<g>
			<path d="M221.89,416.92c3.69,1.61,7.66,2.3,11.66,2.52c3.85,0.21,7.87-0.02,11.59-1.1c3.12-0.91,1.79-5.8-1.35-4.88
				c-3.24,0.94-6.45,1.1-9.92,0.94c-1.73-0.08-3.28-0.25-4.94-0.57c-0.84-0.16-1.68-0.36-2.5-0.6c-0.41-0.12-0.82-0.25-1.22-0.39
				c-0.17-0.06-0.35-0.13-0.52-0.19c-0.06-0.02-0.57-0.24-0.26-0.1c-1.25-0.55-2.72-0.37-3.46,0.91
				C220.35,414.53,220.63,416.37,221.89,416.92L221.89,416.92z"/>
		</g>
	</g>
	<g>
		<g>
			<path d="M246.86,415.02c0.02-0.52,0.07-1.03,0.13-1.54c-0.03,0.22-0.06,0.45-0.09,0.67c0.21-1.49,0.6-2.95,1.19-4.33
				c-0.09,0.2-0.17,0.4-0.26,0.6c0.32-0.73,0.68-1.44,1.09-2.13c0.68-1.13,0.29-2.83-0.91-3.46c-1.23-0.65-2.73-0.3-3.46,0.91
				c-1.69,2.81-2.62,6.01-2.76,9.28c-0.06,1.32,1.2,2.59,2.53,2.53C245.75,417.49,246.8,416.44,246.86,415.02L246.86,415.02z"/>
		</g>
	</g>
	<g>
		<g>
			<path d="M244.38,407.75c1.52,3.87,3.34,7.61,5.51,11.17c0.69,1.13,2.3,1.66,3.46,0.91c1.13-0.73,1.65-2.25,0.91-3.46
				c-1.01-1.65-1.95-3.35-2.81-5.08c-0.42-0.85-0.83-1.71-1.22-2.58c-0.11-0.24-0.21-0.48-0.32-0.72c-0.06-0.13-0.3-0.68-0.05-0.12
				c-0.21-0.48-0.4-0.97-0.59-1.46c-0.25-0.63-0.55-1.16-1.16-1.51c-0.54-0.32-1.34-0.45-1.95-0.26
				C244.96,405.02,243.86,406.43,244.38,407.75L244.38,407.75z"/>
		</g>
	</g>
	<g>
		<g>
			<path d="M251.65,420.36c5.76,1.64,11.92,1.8,17.85,1.11c6.1-0.72,12.03-2.25,17.61-4.84c1.24-0.58,1.55-2.36,0.91-3.46
				c-0.74-1.27-2.22-1.49-3.46-0.91c-4.82,2.25-10.18,3.61-15.46,4.2c-5.37,0.59-10.88,0.51-16.1-0.97
				C249.86,414.59,248.52,419.47,251.65,420.36L251.65,420.36z"/>
		</g>
	</g>
	<g>
		<g>
			<path d="M264.78,339.22c2.15,20.11,8.35,39.34,13.79,58.72c1.61,5.72,3.21,11.45,4.82,17.17c0.88,3.13,5.76,1.8,4.88-1.35
				c-2.79-9.93-5.55-19.86-8.41-29.76c-2.71-9.4-5.4-18.81-7.4-28.38c-1.13-5.42-2.04-10.89-2.63-16.4
				c-0.15-1.36-1.06-2.53-2.53-2.53C266.05,336.69,264.63,337.85,264.78,339.22L264.78,339.22z"/>
		</g>
	</g>
	<g>
		<g>
			<path d="M461.21,333.57c-0.32,4.15-0.61,8.31-1.56,12.37c-0.97,4.18-2.63,8.12-4.3,12.05c-1.84,4.34-3.51,8.7-5.05,13.16
				c-1.55,4.51-3.16,9-5.11,13.36c-2.38,5.32-4.76,10.63-7.13,15.95c-0.55,1.22-0.35,2.66,0.89,3.39c1.06,0.62,2.84,0.34,3.39-0.89
				c4.22-9.43,8.67-18.77,12.06-28.54c1.53-4.41,3.06-8.8,4.87-13.1c1.79-4.23,3.7-8.44,4.87-12.9c1.26-4.85,1.64-9.87,2.02-14.85
				c0.1-1.34-1.21-2.48-2.48-2.48C462.26,331.09,461.32,332.23,461.21,333.57L461.21,333.57z"/>
		</g>
	</g>
	<g>
		<g>
			<path d="M438.24,404.8c5.63,5.26,12.28,9.28,19.58,11.76c1.27,0.43,2.71-0.5,3.05-1.73c0.37-1.36-0.46-2.61-1.73-3.05
				c-6.44-2.2-12.4-5.82-17.39-10.49c-0.98-0.91-2.54-0.97-3.5,0C437.32,402.22,437.26,403.88,438.24,404.8L438.24,404.8z"/>
		</g>
	</g>
	<g>
		<g>
			<path d="M459.92,416.46c1.49-0.81,2.64-1.97,3.63-3.33c0.78-1.08,1.41-2.27,2.16-3.37c0.35-0.51,0.41-1.33,0.25-1.91
				c-0.16-0.57-0.6-1.2-1.14-1.48c-0.58-0.3-1.27-0.46-1.91-0.25c-0.64,0.21-1.1,0.58-1.48,1.14c-0.82,1.2-1.49,2.5-2.38,3.66
				c0.13-0.17,0.26-0.33,0.39-0.5c-0.41,0.53-0.88,1.01-1.4,1.43c0.17-0.13,0.33-0.26,0.5-0.39c-0.35,0.27-0.73,0.51-1.12,0.73
				c-1.14,0.62-1.6,2.29-0.89,3.39C457.28,416.73,458.7,417.12,459.92,416.46L459.92,416.46z"/>
		</g>
	</g>
	<g>
		<g>
			<path d="M461.58,409.25c0.45,2.77,1.29,5.4,2.4,7.97c0.23,0.53,0.95,0.99,1.48,1.14c0.59,0.16,1.38,0.09,1.91-0.25
				c0.53-0.34,1-0.85,1.14-1.48c0.03-0.22,0.06-0.44,0.09-0.66c0-0.45-0.11-0.86-0.34-1.25c-0.04-0.08-0.07-0.17-0.11-0.25
				c0.08,0.2,0.17,0.39,0.25,0.59c-0.96-2.29-1.65-4.68-2.04-7.13c-0.09-0.57-0.66-1.2-1.14-1.48c-0.53-0.31-1.31-0.44-1.91-0.25
				c-0.6,0.19-1.18,0.57-1.48,1.14C461.5,407.96,461.47,408.55,461.58,409.25L461.58,409.25z"/>
		</g>
	</g>
	<g>
		<g>
			<path d="M465.44,418.62c7.4,1.74,15.04,0.9,21.94-2.24c1.22-0.55,1.52-2.32,0.89-3.39c-0.73-1.25-2.17-1.45-3.39-0.89
				c-5.64,2.56-12.11,3.15-18.12,1.74c-1.3-0.31-2.68,0.41-3.05,1.73C463.36,416.83,464.13,418.32,465.44,418.62L465.44,418.62z"/>
		</g>
	</g>
	<g>
		<g>
			<path d="M488.3,415.34c8.08-17.37,9.17-36.68,8.23-55.54c-0.27-5.41-0.69-10.82-1.15-16.22c-0.11-1.33-1.06-2.48-2.48-2.48
				c-1.25,0-2.59,1.14-2.48,2.48c1.53,18.2,2.9,36.96-1.45,54.89c-1.2,4.93-2.82,9.76-4.96,14.37c-0.56,1.21-0.34,2.67,0.89,3.39
				C485.99,416.86,487.74,416.56,488.3,415.34L488.3,415.34z"/>
		</g>
	</g>
	<g>
		<g>
			<path d="M214.44,478.1c12.29,1.55,25.08-1.53,35.36-8.43c2.69-1.81,0.16-6.19-2.55-4.37c-9.64,6.47-21.29,9.19-32.81,7.73
				c-1.36-0.17-2.53,1.29-2.53,2.53C211.91,477.07,213.08,477.92,214.44,478.1L214.44,478.1z"/>
		</g>
	</g>
	<g>
		<g>
			<path d="M250.98,467.32c-0.18-1.97-0.14-3.95,0.12-5.91c-0.03,0.22-0.06,0.45-0.09,0.67c0.14-1.01,0.33-2,0.58-2.99
				c0.33-1.28-0.42-2.81-1.77-3.11c-1.32-0.3-2.76,0.39-3.11,1.77c-0.79,3.11-1.08,6.37-0.79,9.57c0.06,0.68,0.24,1.29,0.74,1.79
				c0.44,0.44,1.16,0.77,1.79,0.74C249.72,469.79,251.11,468.73,250.98,467.32L250.98,467.32z"/>
		</g>
	</g>
	<g>
		<g>
			<path d="M247.54,459.72c2.25,2.64,4.49,5.28,6.74,7.91c0.4,0.47,1.19,0.74,1.79,0.74c0.62,0,1.36-0.28,1.79-0.74
				c0.99-1.08,0.92-2.5,0-3.58c-2.25-2.64-4.49-5.28-6.74-7.91c-0.4-0.47-1.19-0.74-1.79-0.74c-0.62,0-1.36,0.28-1.79,0.74
				C246.55,457.22,246.62,458.64,247.54,459.72L247.54,459.72z"/>
		</g>
	</g>
	<g>
		<g>
			<path d="M258.05,468.8c11.64-5.64,23.81-10.71,36.28-14.2c1.53-0.43,3.08-0.82,4.63-1.17c0.72-0.16,1.45-0.3,2.18-0.43
				c0.34-0.06,0.68-0.11,1.03-0.17c0.12-0.02,0.25-0.04,0.37-0.05c-0.51,0.07,0.26-0.03,0.29-0.03c1.36-0.16,2.53-1.05,2.53-2.53
				c0-1.25-1.16-2.69-2.53-2.53c-6.09,0.7-12,2.55-17.78,4.52c-6.82,2.34-13.52,5.03-20.13,7.9c-3.17,1.38-6.32,2.81-9.43,4.32
				c-1.23,0.6-1.56,2.35-0.91,3.46C255.32,469.15,256.82,469.4,258.05,468.8L258.05,468.8z"/>
		</g>
	</g>
	<g>
		<g>
			<path d="M403.15,459.7c2.13-0.12,4.25-0.18,6.38,0.01c0.6,0.05-0.45-0.1,0.05,0.01c0.16,0.04,0.33,0.06,0.5,0.09
				c0.3,0.06,0.6,0.13,0.89,0.22c0.25,0.07,0.49,0.15,0.73,0.24c0.13,0.05,0.25,0.11,0.38,0.15c0.25,0.08-0.61-0.28-0.11-0.04
				c3.29,1.55,6.6,2.67,10.18,3.39c1.34,0.27,2.73-0.38,3.11-1.77c0.34-1.25-0.42-2.85-1.77-3.11c-2.19-0.44-4.37-0.96-6.45-1.76
				c-0.18-0.07-0.35-0.14-0.53-0.21c-0.49-0.19,0.45,0.21-0.04-0.02c-0.26-0.12-0.53-0.24-0.79-0.36c-0.59-0.27-1.17-0.54-1.77-0.8
				c-3.4-1.44-7.14-1.32-10.76-1.11c-1.36,0.08-2.53,1.11-2.53,2.53C400.62,458.48,401.78,459.78,403.15,459.7L403.15,459.7z"/>
		</g>
	</g>
	<g>
		<g>
			<path d="M423.5,463.78c1.98-0.61,3.99-1.37,5.69-2.57c1.85-1.3,3.35-2.97,4.43-4.96c0.63-1.16,0.33-2.81-0.91-3.46
				c-1.18-0.62-2.79-0.33-3.46,0.91c-0.23,0.43-0.48,0.84-0.76,1.24c-0.13,0.19-0.64,0.78-0.07,0.12c-0.14,0.16-0.27,0.33-0.41,0.49
				c-0.29,0.33-0.6,0.63-0.92,0.92c-0.14,0.12-0.28,0.24-0.43,0.36c-0.34,0.28,0.5-0.36,0.16-0.12c-0.09,0.06-0.18,0.13-0.27,0.19
				c-0.69,0.48-1.43,0.88-2.2,1.22c-0.16,0.07-0.61,0.25,0.17-0.07c-0.11,0.05-0.22,0.09-0.34,0.14c-0.19,0.08-0.38,0.15-0.57,0.22
				c-0.48,0.17-0.97,0.33-1.45,0.48c-1.26,0.39-2.2,1.79-1.77,3.11C420.8,463.29,422.14,464.19,423.5,463.78L423.5,463.78z"/>
		</g>
	</g>
	<g>
		<g>
			<path d="M428.9,454.97c-0.24,3.45-0.76,7.05,0.34,10.42c0.41,1.26,1.77,2.2,3.11,1.77c1.25-0.41,2.21-1.77,1.77-3.11
				c-0.13-0.38-0.23-0.77-0.31-1.16c-0.04-0.19-0.07-0.37-0.1-0.56c-0.04-0.28-0.03-0.22,0.02,0.18c-0.01-0.11-0.02-0.22-0.03-0.33
				c-0.07-0.78-0.09-1.57-0.07-2.36c0.04-1.62,0.22-3.23,0.33-4.85c0.09-1.32-1.23-2.59-2.53-2.53
				C429.98,452.51,429,453.55,428.9,454.97L428.9,454.97z"/>
		</g>
	</g>
	<g>
		<g>
			<path d="M430.97,467.86c4.98,1.28,10.17,1.83,15.3,2.05c4.72,0.21,9.49,0.14,14.18-0.55c0.16-0.02,1-0.04,0.59-0.14
				c0.41,0.1,0.63,0.38,0.93,0.69c0.48,0.49,0.97,0.9,1.52,1.31c1.09,0.79,2.31,1.42,3.51,2.02c3.46,1.74,7.07,3.22,10.69,4.59
				c3.13,1.19,6.4,2.53,9.74,2.93c1.36,0.16,2.53-1.28,2.53-2.53c0-1.5-1.17-2.37-2.53-2.53c1,0.12,0.22,0.03-0.01-0.02
				c-0.24-0.06-0.49-0.11-0.73-0.17c-0.62-0.16-1.23-0.34-1.84-0.52c-1.6-0.49-3.19-1.05-4.76-1.63c-3.57-1.32-6.7-2.59-10.1-4.26
				c-1.27-0.62-2.51-1.29-3.7-2.06c-0.11-0.07-0.21-0.15-0.32-0.23c-0.28-0.19,0.45,0.43,0.13,0.09c-0.12-0.12-0.25-0.23-0.37-0.36
				c-1.04-1.06-2.17-1.98-3.67-2.25c-0.79-0.14-1.41-0.05-2.2,0.07c-0.17,0.03-0.34,0.05-0.51,0.08c-0.84,0.13,0.24-0.03-0.27,0.04
				c-1.06,0.14-2.12,0.23-3.19,0.3c-2.38,0.16-4.76,0.19-7.14,0.15c-5.52-0.11-11.09-0.57-16.44-1.95
				C429.16,462.17,427.82,467.05,430.97,467.86L430.97,467.86z"/>
		</g>
	</g>
	<g>
		<g>
			<path d="M277.47,240.62c-4.56,5.18-8.79,10.68-12.37,16.58c-3.1,5.1-5.66,10.48-7.9,16c-2.23,5.52-4.22,11.15-5.67,16.92
				c-1.64,6.53-2.7,13.19-3.48,19.87c-0.94,8.05-1.41,16.15-1.66,24.25c-0.1,3.26,4.96,3.25,5.06,0
				c0.43-13.51,1.36-27.13,4.38-40.34c2.53-11.07,6.7-22.07,12.34-31.94c3.64-6.37,8.03-12.25,12.88-17.76
				c0.9-1.03,1.01-2.57,0-3.58C280.13,239.7,278.38,239.59,277.47,240.62L277.47,240.62z"/>
		</g>
	</g>
	<g>
		<g>
			<path d="M247.95,336.61c3.86,1.93,7.89,3.09,12.18,3.57c3.13,0.35,6.27,0.59,9.41,0.74c7.18,0.36,14.43,0.37,21.59-0.35
				c3.67-0.36,7.35-0.88,10.9-1.9c3.13-0.9,1.8-5.78-1.35-4.88c-6.04,1.73-12.45,2.11-18.7,2.25c-6.64,0.15-13.3-0.08-19.9-0.72
				c-4.05-0.39-7.92-1.25-11.58-3.09c-1.22-0.61-2.74-0.32-3.46,0.91C246.38,334.27,246.72,336,247.95,336.61L247.95,336.61z"/>
		</g>
	</g>
	<g>
		<g>
			<path d="M303.15,338.03c1.99-2.18,2.85-5.31,3.67-8.08c0.77-2.6,1.31-5.34,2.36-7.85c0.51-1.23-0.55-2.84-1.77-3.11
				c-1.48-0.34-2.56,0.46-3.11,1.77c-1,2.39-1.53,4.99-2.25,7.47c-0.41,1.39-0.83,2.78-1.36,4.13c-0.04,0.11-0.08,0.3-0.16,0.4
				c0.36-0.42,0.09-0.22-0.01,0c-0.13,0.28-0.26,0.56-0.41,0.83c-0.13,0.24-0.28,0.48-0.42,0.71c-0.06,0.09-0.31,0.4-0.02,0.05
				c0.3-0.38-0.04,0.03-0.1,0.1c-0.89,0.98-1.04,2.63,0,3.58C300.54,338.93,302.19,339.08,303.15,338.03L303.15,338.03z"/>
		</g>
	</g>
	<g>
		<g>
			<path d="M304.31,321.89c1.23,5.18,1.45,10.6,2.92,15.73c0.36,1.27,1.8,2.19,3.11,1.77c1.3-0.42,2.16-1.75,1.77-3.11
				c-1.46-5.13-1.69-10.55-2.92-15.73c-0.31-1.29-1.84-2.18-3.11-1.77C304.73,319.21,303.98,320.51,304.31,321.89L304.31,321.89z"/>
		</g>
	</g>
	<g>
		<g>
			<path d="M308.99,339.86c4.5,1.66,9.33,2.36,14.07,2.91c5.27,0.61,10.58,0.85,15.89,0.89c10.73,0.06,21.42-0.35,32.1-1.36
				c6.47-0.61,12.92-1.54,19.17-3.35c3.12-0.9,1.8-5.79-1.35-4.88c-10.4,3.01-21.41,3.7-32.18,4.22c-10.32,0.5-20.8,0.64-31.1-0.32
				c-5.14-0.48-10.4-1.2-15.26-2.99c-1.28-0.47-2.77,0.53-3.11,1.77C306.83,338.16,307.7,339.39,308.99,339.86L308.99,339.86z"/>
		</g>
	</g>
	<g>
		<g>
			<path d="M391.84,337.68c2.29-4.84,3.85-9.86,4.33-15.2c0.48-5.41-0.24-10.86-1.26-16.16c-0.26-1.34-1.87-2.11-3.11-1.77
				c-1.4,0.39-2.03,1.77-1.77,3.11c0.92,4.76,1.5,9.59,1.12,14.44c-0.36,4.53-1.73,8.93-3.67,13.02c-0.58,1.24-0.34,2.73,0.91,3.46
				C389.48,339.23,391.26,338.92,391.84,337.68L391.84,337.68z"/>
		</g>
	</g>
	<g>
		<g>
			<path d="M391.31,321.69c0.26,1.26,0.77,2.49,1.23,3.7c0.54,1.41,1.1,2.81,1.67,4.2c1.26,3.06,2.28,6.23,4.62,8.68
				c0.92,0.96,2.67,0.99,3.58,0c0.94-1.03,0.98-2.56,0-3.58c-0.16-0.17-0.31-0.34-0.46-0.51c-0.18-0.23-0.19-0.24-0.03-0.03
				c-0.07-0.09-0.13-0.19-0.2-0.28c-0.26-0.38-0.49-0.77-0.71-1.17c-0.23-0.41-0.43-0.83-0.63-1.26c-0.06-0.13-0.3-0.71-0.06-0.13
				c-0.07-0.17-0.14-0.34-0.21-0.51c-0.37-0.94-0.74-1.89-1.12-2.83c-0.56-1.36-1.11-2.73-1.63-4.11c-0.43-1.15-0.92-2.32-1.16-3.52
				c-0.26-1.3-1.87-2.17-3.11-1.77C391.7,319.02,391.03,320.3,391.31,321.69L391.31,321.69z"/>
		</g>
	</g>
	<g>
		<g>
			<path d="M400.78,339.37c18.71,2.27,37.9,1.82,56.36-2.1c5.19-1.1,10.32-2.51,15.34-4.23c1.29-0.44,2.15-1.74,1.77-3.11
				c-0.35-1.26-1.82-2.21-3.11-1.77c-17.6,6.06-36.4,8.08-54.94,7.38c-5.15-0.19-10.29-0.61-15.41-1.23
				c-1.36-0.16-2.53,1.28-2.53,2.53C398.25,338.35,399.42,339.21,400.78,339.37L400.78,339.37z"/>
		</g>
	</g>
	<g>
		<g>
			<path d="M473.84,331.44c3.21-11.74,1.64-24.41-1.4-36.02c-2.97-11.34-7.42-22.56-14.1-32.24c-3.92-5.68-8.49-10.87-13.32-15.79
				c-2.29-2.33-5.86,1.25-3.58,3.58c7.97,8.12,14.96,16.99,19.68,27.41c4.69,10.34,8.1,21.76,9.12,33.1
				c0.56,6.24,0.38,12.56-1.28,18.63C468.1,333.24,472.98,334.58,473.84,331.44L473.84,331.44z"/>
		</g>
	</g>
	<g>
		<g>
			<path d="M248,448.08c-1.29-3.9-2.59-7.81-3.88-11.71c-0.42-1.25-1.77-2.2-3.11-1.77c-1.25,0.4-2.21,1.77-1.77,3.11
				c1.29,3.9,2.59,7.81,3.88,11.71c0.42,1.25,1.77,2.2,3.11,1.77C247.48,450.78,248.45,449.42,248,448.08L248,448.08z"/>
		</g>
	</g>
	<g>
		<g>
			<path d="M465.13,465.82c4.24-8.55,6.89-17.68,7.93-27.16c0.15-1.36-1.27-2.53-2.53-2.53c-1.49,0-2.38,1.17-2.53,2.53
				c-0.94,8.53-3.43,16.91-7.24,24.6c-0.61,1.22-0.33,2.74,0.91,3.46C462.79,467.38,464.52,467.05,465.13,465.82L465.13,465.82z"/>
		</g>
	</g>
	<g>
		<g>
			<path d="M284.27,336.73c-1.01-11.76-2.03-23.99,2.35-35.23c0.5-1.27-0.55-2.78-1.77-3.11c-1.43-0.39-2.62,0.49-3.11,1.77
				c-4.53,11.64-3.58,24.4-2.53,36.58c0.12,1.36,1.08,2.53,2.53,2.53C283.02,339.26,284.39,338.1,284.27,336.73L284.27,336.73z"/>
		</g>
	</g>
	<g>
		<g>
			<path d="M446.13,334.95c0.64-12.42-1.78-24.93-5.95-36.6c-0.46-1.29-1.73-2.15-3.11-1.77c-1.24,0.34-2.23,1.82-1.77,3.11
				c4.03,11.29,6.39,23.24,5.77,35.26C440.9,338.21,445.96,338.2,446.13,334.95L446.13,334.95z"/>
		</g>
	</g>
	<g>
		<g>
			<path d="M341.72,256.84c-0.13,4.78-0.37,9.6-0.05,14.38c0.34,4.93,1.18,9.84,1.86,14.73c0.19,1.36,1.92,2.1,3.11,1.77
				c1.46-0.4,1.96-1.75,1.77-3.11c-0.65-4.66-1.4-8.94-1.7-13.61c-0.3-4.71-0.06-9.45,0.06-14.16
				C346.86,253.58,341.8,253.59,341.72,256.84L341.72,256.84z"/>
		</g>
	</g>
	<polygon points="596.29,372.61 546.14,371.5 595.97,376.31 595.1,412.18 600.35,376.55 636,376.43 600.8,372.74 599.25,338.41 	"/>
	<polygon points="104.74,372.61 154.16,372.27 105,376.31 105.32,412.2 100.68,376.49 65.56,375.81 100.3,372.67 102.33,338.37 	"/>
	<path d="M458.41,588.96c-0.23,0-0.66-0.05-0.92-0.39l-11.09-14.3c-1.23-1.58-2.63-3.37-1.43-5.19c0.76-1.16,2.3-2.03,3.65-2.81
		c0.4-0.23,0.78-0.44,1.12-0.66l0.86-0.53c1.36-0.84,2.77-1.7,4.1-2.66c0.63-0.45,1.23-0.96,1.83-1.48
		c0.95-0.82,1.94-1.66,3.04-2.22c0.92-0.46,1.87-0.7,2.82-0.7c1.08,0,2.1,0.3,3.03,0.9c1.45,0.93,2.61,2.33,3.73,3.69
		c0.27,0.33,0.54,0.65,0.81,0.97l1.72,2.01c2.63,3.04,5.34,6.19,7.61,9.57c0.3,0.44,0.34,0.89,0.12,1.3
		c-0.27,0.5-0.89,0.86-1.5,0.86l0,0c-0.36,0-0.86-0.12-1.24-0.69c-0.29-0.43-0.59-0.86-0.89-1.28l-0.79-1.1l-0.03,1.36
		c-0.01,0.31-0.13,1.07-1.04,1.33c-5.47,1.55-10.51,4.49-14.57,8.5l-0.29,0.28l0.49,0.63c0.47,0.61,0.73,1.49,0.04,2.16
		C459.3,588.79,458.84,588.96,458.41,588.96z M448.18,571.66c0.1,0.17,0.2,0.33,0.26,0.41l8.74,11.27l0.36-0.35
		c4.35-4.2,9.73-7.29,15.55-8.94c0.15-0.04,0.31-0.07,0.45-0.07c0.07,0,0.14,0.01,0.21,0.02l1.14,0.18l-0.71-0.91
		c-1.51-1.92-3.13-3.8-4.7-5.62c-0.59-0.69-1.19-1.37-1.78-2.06c-0.27-0.32-0.55-0.66-0.82-1.01c-0.88-1.11-1.79-2.25-2.95-3.02
		c-0.5-0.33-1.03-0.5-1.57-0.5c-1.12,0-2.12,0.7-2.95,1.39c-2.31,1.91-4.89,3.73-8.36,5.89c-0.82,0.51-1.64,1.03-2.45,1.55
		c-0.09,0.06-0.18,0.13-0.27,0.19c-0.13,0.1-0.26,0.19-0.4,0.26l-0.52,0.26c0,0,0.43,0.49,0.45,0.52l0.02,0.32l0.19-0.01
		C448.1,571.52,448.14,571.59,448.18,571.66z"/>
</g>
</svg>
