<?xml version="1.0" encoding="utf-8"?>
<!-- Generator: Adobe Illustrator 23.0.6, SVG Export Plug-In . SVG Version: 6.00 Build 0)  -->
<svg version="1.1" id="Capa_1" xmlns="http://www.w3.org/2000/svg" xmlns:xlink="http://www.w3.org/1999/xlink" x="0px" y="0px"
	 viewBox="0 0 430.1 430.1" style="enable-background:new 0 0 430.1 430.1;" xml:space="preserve">
<style type="text/css">
	.st0{fill:#F2149E;}
</style>
<g>
	<path id="Behance" class="st0" d="M373.2,127.5h-98.3v-24.4h98.3L373.2,127.5C373.2,127.5,373.2,127.5,373.2,127.5z M209.5,227.7
		c6.3,9.8,9.5,21.8,9.5,35.8c0,14.5-3.6,27.5-10.8,39c-4.6,7.6-10.4,14-17.3,19.2c-7.8,6-17,10.1-27.6,12.3
		c-10.6,2.2-22.1,3.3-34.5,3.3H18.9V93h117.9c29.7,0.5,50.8,9.1,63.2,26c7.5,10.4,11.2,22.8,11.2,37.3c0,14.9-3.7,26.9-11.3,35.9
		c-4.2,5.1-10.4,9.7-18.6,13.9C193.7,210.7,203.2,217.8,209.5,227.7z M75.2,189.2h51.7c10.6,0,19.2-2,25.8-6.1
		c6.6-4,9.9-11.2,9.9-21.5c0-11.4-4.4-18.9-13.1-22.5c-7.5-2.5-17.1-3.8-28.8-3.8H75.2V189.2z M167.5,260c0-12.7-5.2-21.4-15.5-26.2
		c-5.8-2.7-13.9-4-24.4-4.1H75.2v65.1h51.6c10.6,0,18.8-1.4,24.7-4.3C162.2,285.1,167.5,275,167.5,260z M409.7,220.2
		c1.2,8,1.7,19.6,1.5,34.7H283.9c0.7,17.6,6.8,29.9,18.3,36.9c6.9,4.4,15.4,6.6,25.2,6.6c10.4,0,18.9-2.6,25.4-8
		c3.6-2.9,6.7-6.9,9.4-12h46.7c-1.2,10.4-6.8,20.9-16.9,31.6c-15.6,17-37.6,25.5-65.8,25.5c-23.3,0-43.8-7.2-61.6-21.5
		c-17.7-14.4-26.7-37.7-26.7-70.1c0-30.3,8-53.6,24.1-69.7c16.1-16.2,36.9-24.3,62.6-24.3c15.2,0,28.9,2.7,41.1,8.2
		c12.2,5.5,22.3,14.1,30.2,25.9C402.9,194.5,407.5,206.5,409.7,220.2z M363.7,224.8c-0.9-12.2-4.9-21.3-12.2-27.6
		c-7.2-6.3-16.3-9.5-27.1-9.5c-11.8,0-20.8,3.4-27.3,10c-6.5,6.6-10.5,15.7-12.2,27.1L363.7,224.8L363.7,224.8z"/>
</g>
<polygon class="st0" points="28.7,58.6 55.5,58.4 28.9,60.6 29,80 26.5,60.7 7.5,60.3 26.3,58.6 27.4,40 "/>
<polygon class="st0" points="393.8,370.9 367.1,371 393.6,368.9 393.5,349.4 396,368.8 415,369.1 396.2,370.8 395.1,389.4 "/>
<circle class="st0" cx="377.5" cy="76.4" r="4.6"/>
<circle class="st0" cx="334.5" cy="31.4" r="8.5"/>
<circle class="st0" cx="109.2" cy="365.5" r="11.1"/>
<circle class="st0" cx="68.8" cy="382.5" r="4.6"/>
</svg>
