<?xml version="1.0" encoding="utf-8"?>
<!-- Generator: Adobe Illustrator 23.0.6, SVG Export Plug-In . SVG Version: 6.00 Build 0)  -->
<svg version="1.1" id="Capa_1" xmlns="http://www.w3.org/2000/svg" xmlns:xlink="http://www.w3.org/1999/xlink" x="0px" y="0px"
	 viewBox="0 0 1920 1080" style="enable-background:new 0 0 1920 1080;" xml:space="preserve">
<style type="text/css">
	.st0{fill:none;stroke:#000000;stroke-width:2.3799;stroke-miterlimit:10;}
	.st1{fill:#FFBBBB;}
</style>
<path class="st0" d="M378.01,778.34h152.31c0,0-45.22,42.84-20.23,72.59c24.99,29.75,116.61-2.38,116.61-2.38s42.84-35.7-47.6-54.74
	l9.52-15.47L477.97,597.47l-34.51-13.09l95.2-176.11l-0.92-3.21c-0.95-3.31-0.74-6.85,0.59-10.03l0,0c2.36-5.67,7.9-9.36,14.05-9.36
	h4.16c0.77,0,1.55-0.06,2.31-0.18l14.32-2.2L587.44,369l14.73-22.1c4.38-6.57,10.41-11.89,17.47-15.42l2.33-1.17
	c8.49-4.25,18.1-5.72,27.48-4.22l6.67,1.07c5.72,0.92,11.22,2.92,16.19,5.9l11.48,6.89c3.18,1.91,6.12,4.2,8.74,6.83l11.74,11.74
	c1.43,1.43,2.66,3.05,3.64,4.82l13.93,25.08c1.59,2.86,2.28,6.12,1.98,9.38l-0.2,2.23c-0.34,3.79-2.01,7.34-4.7,10.03l-4.05,4.05
	c-2.4,2.4-5.49,3.99-8.83,4.54l-16.28,2.71l-69.02-2.38c0,0-26.18-9.52-27.37-11.9s-10.71-8.33-10.71-8.33l16.66-7.14l44.03-4.76
	l48.79,4.76l-14.28,13.09l-26.18,10.71l-53.55,5.95l-42.84-3.57l-98.77,183.25l108.28,173.73l-13.09,5.95l-2.38,11.9l10.71,10.71
	l28.56,3.57l19.04,10.71l91.63,5.95l39.27-34.51l10.71-9.52l16.66-1.19l340.32,1.19l52.17,51.01c0.91,0.89,1.61,1.97,2.06,3.16
	l0.77,2.05c1.27,3.39,0.26,7.21-2.52,9.53l-0.08,0.07c-1.58,1.31-3.53,2.02-5.55,2.03c-38.79,0.1-425.86,1.1-453.45,1.17
	c-1.03,0-2.04-0.18-3.01-0.54l0,0c-4.44-1.67-6.67-6.63-4.97-11.06l2.86-7.44l-12.89,15.65c-2.27,2.75-2.6,6.62-0.83,9.72l0,0
	c1.16,2.03,3.1,3.5,5.38,4.07l4.93,1.23c0.69,0.17,1.4,0.26,2.1,0.26l473.11-1.18c1.96,0,3.88-0.51,5.6-1.46l1.51-0.84
	c4.01-2.23,6.32-6.61,5.91-11.17l-0.14-1.53c-0.24-2.62-1.36-5.08-3.19-6.98l-56.68-58.95l-15.47-1.19v11.9l-352.22,1.19l-5.95-4.76
	l-3.57-5.95l1.19-32.13V556.63c0-0.54,0.04-1.08,0.11-1.61l0.44-3.06c0.41-2.87,1.9-5.47,4.16-7.28l0,0
	c1.59-1.27,3.49-2.09,5.5-2.38l4.45-0.64c0.53-0.08,1.07-0.11,1.61-0.11h344.27h1.95c3.32,0,6.51,1.32,8.86,3.67l0,0
	c0.72,0.72,1.36,1.53,1.88,2.41l0.99,1.65c1.17,1.95,1.79,4.17,1.79,6.45v10.81v197.53l70.21,2.38l1.19-77.35l11.9-3.57l-3.57-70.21
	v-17.85l9.52,16.66l3.57,67.83l0.41,0.69c2,3.34,5.37,5.63,9.21,6.27l0,0c0.72,0.12,1.45,0.18,2.19,0.18h7.67
	c3.53,0,6.91-1.4,9.4-3.89l0.87-0.87l2.38-52.36v-17.85l-8.33-3.57l-5.95,60.69l2.38,8.33l20.23,4.76l2.38,29.75l-2.38,67.83
	l-4.6,4.02c-3.23,2.82-7.12,4.78-11.32,5.68l-5.87,1.26c-2.91,0.62-5.9,0.73-8.85,0.31l-8.16-1.17c-2.68-0.38-5.28-1.2-7.71-2.41
	l-5.3-2.65c-3.5-1.75-6.54-4.29-8.89-7.42l0,0h130.89l6.22,5.78c6.76,6.27,15.45,10.05,24.65,10.71l0,0
	c1.63,0.12,3.27,0.13,4.9,0.05l7.85-0.39c8.76-0.44,17.14-3.71,23.88-9.33l3.9-3.25l4.76-13.09l9.52-153.5l-17.85,2.38l-22.61,2.38
	l-28.56-2.38l-26.18-5.95l8.33,148.74l9.52-134.46l3.57-16.66h41.65l19.04-1.19l1.19,5.95l-5.95,160.64l102.33,1.19"/>
<g>
	<g>
		<path d="M944.93,1057.94c1.93,0,1.93-3,0-3C943,1054.94,943,1057.94,944.93,1057.94L944.93,1057.94z"/>
	</g>
</g>
<polygon class="st0" points="1104.47,777.74 1087.81,756.32 762.96,755.13 762.96,559.98 1100.9,559.98 "/>
<g>
	<g>
		<path d="M1118.04-229.33c1.93,0,1.93-3,0-3C1116.11-232.33,1116.1-229.33,1118.04-229.33L1118.04-229.33z"/>
	</g>
</g>
<g>
	<g>
		<path class="st1" d="M909.23,571.07c0.27,17.19,0.55,34.38,0.82,51.58c0.07,4.66,1.96,9.41,5.27,12.73c1.63,1.76,3.56,3,5.79,3.72
			c2.15,1.13,4.46,1.64,6.93,1.55c4.66-0.21,9.48-1.74,12.73-5.27c3.2-3.49,5.35-7.88,5.27-12.73c-0.27-17.19-0.55-34.38-0.82-51.58
			c-0.07-4.66-1.96-9.41-5.27-12.73c-1.63-1.76-3.56-3-5.79-3.72c-2.15-1.13-4.46-1.64-6.94-1.55c-4.66,0.21-9.48,1.74-12.73,5.27
			C911.3,561.83,909.15,566.22,909.23,571.07L909.23,571.07z"/>
	</g>
</g>
<g>
	<g>
		<path class="st1" d="M938.06,571.06c0,29.9,0,59.8,0,89.7c0,8.47,0,16.94,0,25.42c0,4.62,2.01,9.46,5.27,12.73
			c1.63,1.76,3.56,3,5.79,3.72c2.15,1.13,4.46,1.64,6.94,1.55c4.66-0.21,9.48-1.74,12.73-5.27c3.23-3.52,5.27-7.85,5.27-12.73
			c0-29.9,0-59.8,0-89.7c0-8.47,0-16.94,0-25.42c0-4.62-2.01-9.46-5.27-12.73c-1.63-1.76-3.56-3-5.79-3.72
			c-2.15-1.13-4.46-1.64-6.93-1.55c-4.66,0.21-9.48,1.74-12.73,5.27C940.1,561.86,938.06,566.18,938.06,571.06L938.06,571.06z"/>
	</g>
</g>
<g>
	<g>
		<path class="st1" d="M965.69,570.14c0,22.47,0,44.94,0,67.41c0,6.38,0,12.77,0,19.15c0,4.62,2.01,9.46,5.27,12.73
			c1.63,1.76,3.56,3,5.79,3.72c2.15,1.13,4.46,1.64,6.94,1.55c4.66-0.21,9.48-1.74,12.73-5.27c3.23-3.52,5.27-7.85,5.27-12.73
			c0-22.47,0-44.94,0-67.41c0-6.38,0-12.77,0-19.15c0-4.62-2.01-9.46-5.27-12.73c-1.63-1.76-3.56-3-5.79-3.72
			c-2.15-1.13-4.46-1.64-6.94-1.55c-4.66,0.21-9.48,1.74-12.73,5.27C967.73,560.93,965.69,565.26,965.69,570.14L965.69,570.14z"/>
	</g>
</g>
</svg>
