<?xml version="1.0" encoding="utf-8"?>
<!-- Generator: Adobe Illustrator 23.0.6, SVG Export Plug-In . SVG Version: 6.00 Build 0)  -->
<svg version="1.1" id="Capa_1" xmlns="http://www.w3.org/2000/svg" xmlns:xlink="http://www.w3.org/1999/xlink" x="0px" y="0px"
	 viewBox="0 0 430.1 430.1" style="enable-background:new 0 0 430.1 430.1;" xml:space="preserve">
<style type="text/css">
	.st0{fill:#F2149E;}
</style>
<g>
	<path id="Facebook" class="st0" d="M161,90c0,10.3,0,56.2,0,56.2h-41.2v68.7H161v204.2h84.6V214.9h56.7c0,0,5.3-32.9,7.9-69
		c-7.4,0-64.3,0-64.3,0s0-40,0-47c0-7,9.2-16.5,18.3-16.5c9.1,0,28.3,0,46.1,0c0-9.4,0-41.7,0-71.5c-23.7,0-50.7,0-62.6,0
		C158.9,11,161,79.8,161,90z"/>
</g>
<polygon class="st0" points="337.7,20.6 364.5,20.4 337.9,22.6 338,42 335.5,22.7 316.5,22.3 335.3,20.6 336.4,2 "/>
<polygon class="st0" points="116.2,242.1 143,241.9 116.4,244.1 116.5,263.5 114,244.2 95,243.8 113.8,242.1 114.9,223.5 "/>
<circle class="st0" cx="309.9" cy="241.8" r="4.6"/>
<circle class="st0" cx="341.3" cy="206.6" r="9.2"/>
<circle class="st0" cx="122.2" cy="107.8" r="4.6"/>
<circle class="st0" cx="64.8" cy="59.5" r="12.3"/>
<circle class="st0" cx="275.4" cy="388.1" r="3.1"/>
</svg>
