<?xml version="1.0" encoding="utf-8"?>
<!-- Generator: Adobe Illustrator 23.0.6, SVG Export Plug-In . SVG Version: 6.00 Build 0)  -->
<svg version="1.1" id="Capa_1" xmlns="http://www.w3.org/2000/svg" xmlns:xlink="http://www.w3.org/1999/xlink" x="0px" y="0px"
	 viewBox="0 0 28 28" style="enable-background:new 0 0 28 28;" xml:space="preserve">
<style type="text/css">
	.st0{fill:#F2149E;}
</style>
<path class="st0" d="M14,4.2c3.2,0,3.6,0,4.9,0.1c3.3,0.1,4.8,1.7,4.9,4.9c0.1,1.3,0.1,1.6,0.1,4.8c0,3.2,0,3.6-0.1,4.8
	c-0.1,3.2-1.7,4.8-4.9,4.9c-1.3,0.1-1.6,0.1-4.9,0.1c-3.2,0-3.6,0-4.8-0.1c-3.3-0.1-4.8-1.7-4.9-4.9c-0.1-1.3-0.1-1.6-0.1-4.8
	c0-3.2,0-3.6,0.1-4.8c0.1-3.2,1.7-4.8,4.9-4.9C10.4,4.2,10.8,4.2,14,4.2z M14,2c-3.3,0-3.7,0-4.9,0.1c-4.4,0.2-6.8,2.6-7,7
	C2,10.3,2,10.7,2,14s0,3.7,0.1,4.9c0.2,4.4,2.6,6.8,7,7C10.3,26,10.7,26,14,26s3.7,0,4.9-0.1c4.4-0.2,6.8-2.6,7-7
	C26,17.7,26,17.3,26,14s0-3.7-0.1-4.9c-0.2-4.4-2.6-6.8-7-7C17.7,2,17.3,2,14,2z M14,7.8c-3.4,0-6.2,2.8-6.2,6.2s2.8,6.2,6.2,6.2
	s6.2-2.8,6.2-6.2C20.2,10.6,17.4,7.8,14,7.8z M14,18c-2.2,0-4-1.8-4-4c0-2.2,1.8-4,4-4s4,1.8,4,4C18,16.2,16.2,18,14,18z M20.4,6.2
	c-0.8,0-1.4,0.6-1.4,1.4S19.6,9,20.4,9c0.8,0,1.4-0.6,1.4-1.4S21.2,6.2,20.4,6.2z"/>
<polygon class="st0" points="25.2,2.4 27.9,2.4 25.2,2.6 25.2,4.9 25,2.6 23.1,2.6 25,2.4 25.1,0.2 "/>
<polygon class="st0" points="7.3,20.3 9.9,20.3 7.3,20.6 7.3,22.9 7.1,20.6 5.2,20.5 7,20.3 7.2,18.1 "/>
<circle class="st0" cx="1.9" cy="26.1" r="1.4"/>
<circle class="st0" cx="4.8" cy="25.7" r="0.5"/>
<circle class="st0" cx="2.3" cy="1.9" r="0.5"/>
<circle class="st0" cx="25.8" cy="25.4" r="1.1"/>
<circle class="st0" cx="26.6" cy="22.8" r="0.3"/>
</svg>
