<?xml version="1.0" encoding="utf-8"?>
<!-- Generator: Adobe Illustrator 23.0.6, SVG Export Plug-In . SVG Version: 6.00 Build 0)  -->
<svg version="1.1" id="Capa_1" xmlns="http://www.w3.org/2000/svg" xmlns:xlink="http://www.w3.org/1999/xlink" x="0px" y="0px"
	 viewBox="0 0 100 99.9" style="enable-background:new 0 0 100 99.9;" xml:space="preserve">
<path d="M36.6,60.7c0.7,3-0.1,7.4-3.7,8.2c-3.6,0.8-5.5-2.4-5.5-5.6c0-1.9,3-1.9,3,0c0,0.8,0.1,1.9,0.8,2.5c0.4,0.3,0.7,0.3,1.3,0.1
	c1.5-0.6,1.6-2.9,1.3-4.4C33.2,59.6,36.1,58.9,36.6,60.7z M65.6,54.4c0,2-0.7,4.5-2.5,5.7c-1.8,1.3-2.2-2.3-2.3-3.5
	c-0.2-1.9-3.2-1.9-3,0c0.3,3,1.7,8.1,5.9,6.5c3.4-1.3,4.9-5.5,4.9-8.8C68.6,52.5,65.6,52.5,65.6,54.4z M94.5,55.5
	c-4.9,5.4-11.3,9-16.9,13.7c-5.2,4.3-9.9,9.2-15.5,13.1C61.6,87.7,59.9,93,55,93.7c-3.9,0.6-8.8-0.9-11.1-4.3
	c-0.8-1.2-1.3-2.5-1.8-3.9c-5.2-0.6-10.5-1.6-15.5-3.2c-6.7-2.1-13.8-2.5-20.5-4.8C5.5,77.2,5,76.7,5,76c0.1-7.2,1.7-14.3,3.4-21.2
	c1.9-7.5-1.9-15.9-1.3-23.7c0.3-3.6-0.2-10.4,4.4-11.6c3.3-0.9,6.9,3.2,8.9,5.1c3.8,3.8,7.6,7.4,11.8,10.9C34,36.9,40.9,35,43,34.7
	c2.9-0.5,6-0.9,8.8-1.9c3.4-1.2,4.6-3.1,5.6-6.4c0.8-2.7,1.6-5.3,2.5-7.9c1.7-4.5,3.6-9.2,7.5-12.1c0.4-0.3,1.1-0.2,1.5,0
	c7.6,4.2,9.2,13.2,11.2,20.9c0.6,2.3,1.1,4.7,2,7c1.2,3.1,3,5.1,5.2,7.6c3.2,3.7,5.8,7.6,7.6,12.2C95.1,54.5,94.8,55.1,94.5,55.5z
	 M82,40.7c-2.3-2.4-3.4-7.1-4.2-10.2c-1.1-4.4-1.9-8.9-3.6-13.1c-1-2.5-2.3-5.1-4.4-6.8c-2.2-1.8-3.1,0.3-4.3,2.5
	c-2.3,4.2-3.6,8.7-5,13.2c-0.6,1.9-1.2,6.5-3.3,7.6c-3.4,1.8-7.2,2.7-10.9,3.4c-4.1,0.7-9.1,2-13.3,1.5c-2.7-0.3-3.9-2-6-3.7
	c-3.2-2.5-5.9-5.5-8.8-8.3c-1.4-1.4-3-3-4.8-3.9c-2.8-1.3-3.1,3.1-3.2,4.8C9.9,35,10.5,42,11.9,49.3c0.8,3.8-0.9,7.6-1.7,11.4
	c-1,4.7-1.9,9.5-2.1,14.3c6,1.9,12.3,2.2,18.2,4.1c4.9,1.6,9.9,2.7,15,3.4c-0.7-2.5-1.4-4.9-3.1-6.8c-1.3-1.4,0.8-3.6,2.1-2.1
	c2.3,2.6,3,5.9,3.9,9.2c1.2,4.2,4.6,9.6,9.9,8.2c6.2-1.7,5.1-12.9,5.1-17.8c0-1.9,3-1.9,3,0c0,1.4,0.1,3.3,0,5.4
	c4.6-3.6,8.6-7.8,13.2-11.4c4.8-3.7,10.3-7,14.6-11.2C94,52,84.8,43.5,82,40.7z M54.9,83.3c-0.9-0.5-2-0.4-2.9-0.2
	c-1.8,0.5-3.3,2-3,3.9c0,0.1,0,0.2,0,0.3c0.5,1.5,2,1.9,3.5,1.7c1.6-0.3,3-1.7,3.2-3.3C55.8,84.7,55.7,83.8,54.9,83.3z M38.1,46.9
	c0.1,0.7-0.7,1.4-1.3,0.7c-0.2-0.3-0.4-0.5-0.4-0.9c0-0.1,0-0.1,0-0.2c-0.2-0.7-0.6-1.4-0.7-2.2c-0.2-0.9,1.2-1.3,1.4-0.4
	C37.4,44.9,37.9,45.9,38.1,46.9z M37.9,46.7c0-0.1,0-0.1,0-0.2c0,0,0,0,0,0C37.9,46.6,37.9,46.6,37.9,46.7z M42.1,43.9
	c-0.2-1.3-0.6-2.5-0.9-3.7c-0.3-0.9-1.7-0.5-1.4,0.4c0.4,1.2,0.7,2.4,0.9,3.7C40.8,45.3,42.3,44.9,42.1,43.9z M48.5,44.1
	c-0.2-1.3-0.3-2.5-0.3-3.8c0-1-1.5-1-1.5,0c0,1.4,0.2,2.8,0.4,4.2C47.2,45.5,48.7,45.1,48.5,44.1z M55.5,42.5
	c0.4-1.2,0.2-2.5,0.2-3.7c0-1-1.5-1-1.5,0c0,1.1,0.2,2.2-0.2,3.3C53.7,43,55.2,43.4,55.5,42.5z M52,52.9c0-1.6-0.2-3.2-0.2-4.8
	c0-1-1.5-1-1.5,0c0,1.6,0.2,3.2,0.2,4.8C50.5,53.9,52,53.9,52,52.9z M45.8,52.2c-0.2-1.5-0.7-2.9-0.9-4.4c-0.1-1-1.6-0.5-1.4,0.4
	c0.2,1.5,0.7,2.9,0.9,4.4C44.5,53.5,45.9,53.1,45.8,52.2z M43,58.2c-0.2-1.6-0.8-3.6-1.7-4.9c-0.5-0.8-1.8,0-1.3,0.8
	c0.9,1.3,1.4,3.1,1.6,4.6C41.7,59.6,43.2,59.2,43,58.2z M46.9,58.4c0,1.2,0.2,2.4,0.6,3.5c0.3,0.9,1.8,0.5,1.4-0.4
	c-0.4-1-0.5-2-0.5-3.1C48.4,57.5,46.9,57.5,46.9,58.4z M45.7,67.2c-0.7-1.3-1.3-2.7-1.6-4.2c-0.2-1-1.6-0.5-1.4,0.4
	c0.3,1.6,0.9,3.2,1.7,4.6C44.9,68.8,46.2,68.1,45.7,67.2z M50,71.2c-0.4-1.7-0.7-3.3-1.1-4.9c-0.2-0.9-1.7-0.5-1.4,0.4
	c0.4,1.6,0.7,3.3,1.1,4.9C48.8,72.6,50.2,72.2,50,71.2z M53.3,66.9c0,1.3,0.2,2.7,0.2,4c0,1,1.5,1,1.5,0c0-1.3-0.2-2.7-0.2-4
	C54.8,65.9,53.3,65.9,53.3,66.9z M46.2,72.8c-0.8-0.6-1.5,0.7-0.8,1.3c1,0.7,1.1,2.5,1.5,3.6c0.4,0.9,1.8,0.5,1.4-0.4
	C47.7,75.7,47.6,73.9,46.2,72.8z M50.9,76.4c0.2,1.1,0.1,2.2,0.6,3.3c0.5,0.8,1.8,0.1,1.3-0.8c-0.5-0.9-0.3-2-0.5-2.9
	C52.2,75.1,50.8,75.5,50.9,76.4z M55.1,74.7c0,1.2-0.2,2.4-0.2,3.7c0,1,1.5,1,1.5,0c0-1.2,0.2-2.4,0.2-3.7
	C56.6,73.8,55.1,73.8,55.1,74.7z M65.6,33.9c0,1,1.5,1,1.5,0c0-0.5,0.1-1,0.3-1.5l1.8-2.7c0.6-0.5,1.2-1,1.8-1.4
	c0.8-0.5,0.1-1.8-0.8-1.3C67.9,28.4,65.5,31,65.6,33.9z M73.8,30.1c-2.1,1.1-4.4,2.3-5.3,4.7c-0.4,0.9,1.1,1.3,1.4,0.4
	c0.8-1.9,2.9-2.9,4.6-3.8C75.4,30.9,74.7,29.6,73.8,30.1z M66.3,26.9c0.1-2.1,2.3-3.7,3.6-5.2c0.6-0.7-0.4-1.8-1.1-1.1
	c-1.6,1.8-3.9,3.6-4.1,6.2C64.8,27.9,66.3,27.9,66.3,26.9z M15.2,42.5c-0.9-0.3-1.3,1.1-0.4,1.4c1.4,0.5,2.6,1.3,3.9,2.1
	c0.8,0.6,1.5-0.7,0.8-1.3C18.1,43.8,16.7,43.1,15.2,42.5z M15.7,37.5c-0.9-0.2-1.3,1.3-0.4,1.4c2.2,0.5,4,2.1,5.5,3.7
	c0.7,0.7,1.7-0.4,1.1-1.1C20.2,39.8,18.2,38,15.7,37.5z M15.5,33.9c1.7,0.4,3,2,4.1,3.3c0.6,0.7,1.7-0.3,1.1-1.1
	c-1.3-1.5-2.8-3.2-4.7-3.7C15,32.2,14.6,33.6,15.5,33.9z M18.7,59.9c-1.4,0-2.8-0.5-4.2-0.7c-0.9-0.1-1.4,1.3-0.4,1.4
	c1.5,0.2,3,0.7,4.6,0.8C19.6,61.4,19.6,59.9,18.7,59.9z M13,64.3c0.9,0,1.8,0.2,2.8,0.2c1,0,1-1.5,0-1.5c-0.9,0-1.8-0.2-2.8-0.2
	C12,62.8,12,64.3,13,64.3z M15.7,67.6c-1.4,0.4-2.9,1-4,2c-0.7,0.7,0.4,1.7,1.1,1.1c0.9-0.9,2.1-1.3,3.3-1.6
	C17,68.8,16.6,67.3,15.7,67.6z M18.1,71.3c-0.8,0.6-1.5,1.3-2.4,1.8c-0.8,0.5-0.1,1.8,0.8,1.3c0.9-0.5,1.6-1.2,2.4-1.8
	c0.3-0.2,0.5-0.6,0.3-1C18.9,71.3,18.4,71.1,18.1,71.3z M77.5,44.3c-1.1,1.1-2.4,2-3.1,3.5c-0.4,0.9,0.9,1.6,1.3,0.8
	c0.6-1.3,1.8-2.2,2.8-3.1C79.3,44.7,78.2,43.7,77.5,44.3z M81.5,49.9c1.4-0.7,2.8-1.4,4.4-1.8c0.9-0.2,0.5-1.7-0.4-1.4
	c-1.7,0.4-3.2,1.1-4.8,1.9C79.9,49.1,80.7,50.3,81.5,49.9z M83.5,53.7c1.4-0.2,2.9,0,4.2-0.6c0.9-0.3,0.5-1.8-0.4-1.4
	c-1.2,0.5-2.5,0.4-3.8,0.5C82.6,52.3,82.6,53.8,83.5,53.7z M84.6,56.8c-1.6,0.2-3.2,0-4.8,0.4c-0.9,0.2-0.5,1.7,0.4,1.4
	c1.4-0.3,2.9-0.2,4.4-0.3C85.6,58.2,85.6,56.7,84.6,56.8z M54.2,61.7C54,60.4,54,59,54,58s-1.5-1-1.5,0c0,1,0,2.8,0.3,4.2
	C52.9,63.2,54.4,62.7,54.2,61.7z"/>
</svg>
