<?xml version="1.0" encoding="utf-8"?>
<!-- Generator: Adobe Illustrator 23.0.6, SVG Export Plug-In . SVG Version: 6.00 Build 0)  -->
<svg version="1.1"
	 id="Capa_1" xmlns:cc="http://creativecommons.org/ns#" xmlns:dc="http://purl.org/dc/elements/1.1/" xmlns:inkscape="http://www.inkscape.org/namespaces/inkscape" xmlns:rdf="http://www.w3.org/1999/02/22-rdf-syntax-ns#" xmlns:sodipodi="http://sodipodi.sourceforge.net/DTD/sodipodi-0.dtd" xmlns:svg="http://www.w3.org/2000/svg"
	 xmlns="http://www.w3.org/2000/svg" xmlns:xlink="http://www.w3.org/1999/xlink" x="0px" y="0px" viewBox="0 0 100 77.8"
	 style="enable-background:new 0 0 100 77.8;" xml:space="preserve">
<style type="text/css">
	.st0{fill:none;stroke:#000000;stroke-width:1.3057;}
	.st1{fill-rule:evenodd;clip-rule:evenodd;stroke:#000000;stroke-width:0.6528;stroke-linecap:round;}
	.st2{fill-rule:evenodd;clip-rule:evenodd;stroke:#000000;stroke-width:2.4469;}
	.st3{fill-rule:evenodd;clip-rule:evenodd;stroke:#000000;stroke-width:0.756;}
</style>
<path class="st0" d="M15.7,33.4l13.8-0.2l20.4-22.5l-0.8,21.6L67.6,34l2.9,7.2l24.1,3.1l-2.7,7l-9.5,5l-41,5.4l-3.9-5.8l-7,1.6
	L28,50.3l-7.2,1.2L15.7,33.4z"/>
<path class="st0" d="M54.5,30.9l9.7,0.8l1.2-22.3L54.5,30.9z"/>
<path class="st0" d="M60,42.1l-13-0.2l3.7,3.3l7.4,1.6L60,42.1z"/>
<path class="st0" d="M13.6,35.9l5.6,18.8l7-1.4l2.7,7.4l7.4-1.9l2.1,3.7L27,65.8l-1.2-2.5l-5,1.6l-1-5.2H13l-0.8-8.2L6,51.3l1-16.1
	L13.6,35.9z"/>
<path class="st1" d="M39.9,58.2c-1-1.5-1.9-2.8-2-3c-0.1-0.1-1.2,0-3.5,0.5c-1.9,0.4-3.4,0.7-3.5,0.7c0,0-0.6-1.6-1.3-3.5
	c-0.7-1.9-1.2-3.4-1.3-3.5c-0.1-0.1-1.7,0.2-3.6,0.5l-3.5,0.6L21,49.8c-0.1-0.4-1.1-4.1-2.3-8.2l-2.1-7.5l2.2-0.1
	c1.2-0.1,4.2-0.1,6.6-0.1h4.3l9.6-10.6c5.3-5.8,9.6-10.6,9.6-10.5c0,0-0.1,4.5-0.3,10s-0.4,10-0.3,10c0,0,4.1,0.4,9,0.8
	c4.9,0.4,9.1,0.9,9.3,0.9c0.3,0.1,0.7,0.9,1.8,3.6l1.4,3.6l9.5,1.2c5.2,0.7,10.6,1.4,11.8,1.5l2.3,0.3l-0.6,2.7
	c-0.6,1.5-1.1,3.2-1.3,3.4c-0.2,0.2-2.7,1.4-5.1,2.7L82,55.6l-19.5,2.6c-10.7,1.4-19.8,2.6-20.1,2.7C41.8,61,41.7,60.9,39.9,58.2
	L39.9,58.2L39.9,58.2z M59.8,44.5c0.7-1.7,1.3-3.1,1.2-3.1c-0.2-0.1-15.9-0.2-15.8-0.1c0,0.1,1.2,1.2,2.5,2.4l2.5,2.2l3.7,0.8
	c2.1,0.4,3.9,0.8,4.1,0.8C58.5,47.6,58.7,47.1,59.8,44.5L59.8,44.5L59.8,44.5z"/>
<path class="st2" d="M59.2,30.5l-3.5-0.3l4.3-8.5c3.2-6.2,4.3-8.4,4.4-8c0,0.3-0.1,4.2-0.4,8.8c-0.4,8-0.5,8.3-0.8,8.3
	C63,30.8,61.2,30.7,59.2,30.5z"/>
<path class="st3" d="M26.6,63.8c-0.3-0.7-0.4-1.3-0.6-1.3c-0.2,0-1.3,0.3-2.4,0.7c-1.2,0.4-2.2,0.6-2.2,0.6s-0.3-1.1-0.5-2.5
	l-0.4-2.4l-3.4-0.1c-2.4,0-3.6,0.6-3.6,0.4c0-0.1,0-2.7-0.2-4.7L13,50.7l-3-0.1c-1.6,0-3-0.1-3.1-0.2C6.8,50.4,7.6,36,7.7,36
	c0,0,1.2,0.1,2.6,0.3l2.6,0.3l0.4,1.3c4.2,14,5.3,17.6,5.3,17.7c0.1,0.1,1.7-0.2,3.6-0.6l3.4-0.7l1.3,3.7c1,2.7,1.4,3.6,1.6,3.6
	s1.8-0.4,3.6-0.9c1.8-0.5,4-1.5,4.1-1.5s-0.1,1.1,0.2,1.7L37,62l-4.8,1.4c-2.7,0.8-5,1.7-5,1.7c0.1,0-0.3-0.5-0.6-1.1L26.6,63.8z"/>
</svg>
