<?xml version="1.0" encoding="utf-8"?>
<!-- Generator: Adobe Illustrator 23.0.6, SVG Export Plug-In . SVG Version: 6.00 Build 0)  -->
<svg version="1.1" id="Capa_1" xmlns="http://www.w3.org/2000/svg" xmlns:xlink="http://www.w3.org/1999/xlink" x="0px" y="0px"
	 viewBox="0 0 200 200" style="enable-background:new 0 0 200 200;" xml:space="preserve">
<style type="text/css">
	.st0{stroke:#000000;stroke-width:0.4139;stroke-miterlimit:10;}
</style>
<g>
	<g>
		<g>
			<path d="M36.51,161.15c-1.26,0.05-2.31-0.03-3.18-0.24c-0.66-0.16-1.18-0.45-1.59-0.89c-0.09-0.09-0.13-0.26-0.17-0.49
				c-0.01-0.25,0.02-0.4,0.09-0.46c0.3-0.28,0.57-0.29,0.82-0.01c0,0,0.01,0.06,0.04,0.16c0.01,0.1,0.03,0.17,0.06,0.2
				c0.31,0.34,1.01,0.57,2.1,0.68c1.06,0.11,2.28,0.06,3.65-0.14c1.61-0.26,2.76-0.69,3.42-1.3c0.53-0.49,0.59-0.97,0.17-1.42
				c-0.66-0.72-1.53-1.35-2.6-1.9c-0.55,0.01-0.95-0.15-1.23-0.45c-0.36-0.39-0.39-0.71-0.1-0.97c0.14-0.13,0.33-0.13,0.6-0.02
				c1.81,0.77,3.17,1.62,4.03,2.56c0.43,0.46,0.6,0.96,0.57,1.48c-0.04,0.51-0.26,0.95-0.68,1.33
				C41.27,160.39,39.28,161,36.51,161.15z M44.42,159.7c-0.05-0.06-0.1-0.25-0.11-0.58c0-0.17-0.02-0.41-0.02-0.72
				c-0.05-0.08-0.07-0.13-0.09-0.15c-0.21-0.23-0.17-0.49,0.16-0.78c0.25-0.23,0.48-0.27,0.67-0.06c0.11,0.12,0.13,0.8,0.1,2.04
				c0.01,0.12-0.03,0.22-0.11,0.3C44.8,159.93,44.61,159.91,44.42,159.7z M45.69,160.07c-0.17-0.19-0.16-0.52,0.08-1.01
				c0.08-0.42,0.2-0.69,0.31-0.8c0.06-0.05,0.14-0.08,0.25-0.06c0.11,0,0.21,0.04,0.28,0.12c0.14,0.15,0.1,0.48-0.09,0.98
				l-0.09,0.49c-0.05,0.13-0.12,0.24-0.19,0.3C46.05,160.27,45.86,160.25,45.69,160.07z"/>
		</g>
		<g>
			<path d="M51.92,174.07c-1.01,0.35-2.13,0.62-3.35,0.76c-1.41,0.16-2.36,0.07-2.85-0.27c-0.28-0.2-0.33-0.44-0.13-0.72
				c0.19-0.27,0.43-0.29,0.74-0.08c0.37,0.12,0.77,0.19,1.2,0.18c2.25-0.07,4.11-0.58,5.59-1.51c0.34-0.21,0.57-0.41,0.69-0.59
				c0.41-0.6,0.23-1.16-0.55-1.7c-0.21-0.14-0.92-0.52-2.11-1.13c-0.17,0.02-0.43-0.01-0.8-0.09c-0.45-0.1-0.78-0.23-1-0.38
				c-0.44-0.3-0.54-0.62-0.31-0.96c0.17-0.25,0.59-0.24,1.28,0c1.4,0.51,2.59,1.1,3.52,1.74c0.54,0.38,0.89,0.81,1.08,1.28
				c0.2,0.56,0.14,1.09-0.21,1.61C54.19,172.98,53.25,173.59,51.92,174.07z M56.1,168.24c-1.28-0.58-2.35-1.16-3.2-1.75
				c-0.44-0.3-0.77-0.57-1-0.85c-0.16-0.15-0.16-0.36,0.01-0.59c0.08-0.12,0.21-0.2,0.4-0.24c0.18-0.05,0.35-0.03,0.46,0.05
				c0.18,0.13,0.32,0.32,0.41,0.57c0.19,0.17,0.32,0.26,0.4,0.31c0.3,0.21,1.3,0.75,3.01,1.62c0.23,0.16,0.26,0.39,0.07,0.68
				C56.48,168.27,56.3,168.34,56.1,168.24z"/>
		</g>
		<g>
			<path d="M70.03,178.38c-0.01,0-0.24-0.11-0.67-0.34c-0.23-0.11-0.56-0.28-0.99-0.49c-1.29-0.64-2.07-1.03-2.33-1.14
				c-0.52-0.22-1.11-0.42-1.77-0.63c-0.33,0.03-0.7-0.05-1.14-0.24c-0.15-0.07-0.27-0.17-0.35-0.32c-0.09-0.16-0.1-0.31-0.04-0.45
				c0.14-0.33,1.22-0.07,3.24,0.8c0.89,0.38,1.84,0.84,2.82,1.35c0.29,0.15,0.45,0.23,0.49,0.25c0.03,0.01,0.09,0.04,0.18,0.06
				c0.07,0.02,0.13,0.03,0.17,0.05c0.19,0.08,0.36,0.22,0.52,0.39c0.19,0.23,0.25,0.42,0.18,0.6
				C70.29,178.42,70.18,178.45,70.03,178.38z"/>
		</g>
		<g>
			<path d="M85.03,184.32c-1.26,0.96-2.35,1.65-3.27,2.07c-1.1,0.51-2.33,0.87-3.67,1.04c-0.16,0.16-0.37,0.23-0.63,0.24
				c-0.39,0-0.66-0.01-0.81-0.04c-0.52-0.11-0.73-0.36-0.65-0.73c0.06-0.31,0.22-0.45,0.48-0.46c1.65-0.05,3.06-0.29,4.25-0.75
				c1.05-0.41,2.29-1.17,3.76-2.26c0.15-0.11,0.29-0.16,0.41-0.14c0.32,0.07,0.45,0.3,0.38,0.67
				C85.26,184.1,85.17,184.22,85.03,184.32z M80.83,181.5c-0.12-0.03-0.27-0.17-0.44-0.46c-0.11-0.17-0.41-0.49-0.93-0.95
				c-0.34-0.29-0.47-0.61-0.4-0.95c0.07-0.34,0.32-0.46,0.75-0.38c0.32,0.07,0.83,0.65,1.53,1.76c0.14,0.19,0.2,0.36,0.17,0.52
				C81.44,181.43,81.2,181.58,80.83,181.5z"/>
		</g>
		<g>
			<path d="M101.2,187.38c0.08,0.22,0.13,0.34,0.13,0.41c0.01,0.35-0.15,0.51-0.45,0.51c-0.36-0.02-0.71-0.05-1.04-0.04
				c-0.35,0.01-0.97,0.07-1.89,0.15c-1.01,0.08-1.55,0.16-1.68,0.22c-0.34,0.15-0.56,0.22-0.66,0.22c-0.2,0-0.36-0.04-0.48-0.16
				c-0.13-0.12-0.19-0.25-0.2-0.37c-0.01-0.28,0.18-0.48,0.55-0.56c1.33-0.33,2.85-0.52,4.58-0.55c0.46-0.45,0.97-1.2,1.48-2.23
				c0.56-1.1,0.84-1.94,0.83-2.53c-0.01-0.72-0.56-1.07-1.61-1.05c-1.32,0.03-2.5,0.19-3.53,0.5c-0.37,0.18-0.69,0.27-0.94,0.27
				c-0.58,0.01-0.87-0.15-0.88-0.52c-0.01-0.35,0.15-0.54,0.49-0.61c2.07-0.42,3.67-0.64,4.77-0.67c1.71-0.04,2.59,0.67,2.62,2.1
				C103.35,183.48,102.63,185.12,101.2,187.38z"/>
		</g>
		<g>
			<path d="M118.12,182.78c-0.17,0.3-0.4,0.49-0.67,0.56c-0.49,0.12-0.87,0.01-1.19-0.34c-0.12-0.08-0.22-0.17-0.31-0.26
				c-0.1-0.07-0.16-0.2-0.22-0.42c-0.15-0.6,0.09-1.01,0.74-1.24c0.08-0.08,0.19-0.15,0.31-0.18c0.18-0.05,0.44,0,0.73,0.14
				c0.41,0.22,0.66,0.48,0.74,0.82C118.34,182.17,118.29,182.48,118.12,182.78z"/>
		</g>
		<g>
			<path d="M149.61,163.62c-0.01,0.01-0.21,0.15-0.61,0.43c-0.2,0.15-0.51,0.36-0.9,0.64c-1.18,0.83-1.89,1.33-2.11,1.51
				c-0.44,0.35-0.9,0.78-1.39,1.26c-0.13,0.3-0.37,0.59-0.75,0.89c-0.13,0.1-0.27,0.16-0.44,0.15c-0.18,0.01-0.32-0.05-0.42-0.18
				c-0.22-0.28,0.52-1.1,2.24-2.47c0.76-0.61,1.61-1.22,2.53-1.84c0.27-0.18,0.42-0.29,0.45-0.32c0.03-0.02,0.08-0.06,0.14-0.13
				c0.05-0.05,0.09-0.1,0.13-0.13c0.16-0.13,0.37-0.21,0.6-0.27c0.29-0.06,0.49-0.02,0.61,0.13
				C149.76,163.4,149.74,163.51,149.61,163.62z"/>
		</g>
		<g>
			<path d="M161.65,154.48c0.02,0.14-0.01,0.26-0.07,0.33c-0.08,0.1-0.2,0.16-0.38,0.21c-0.16,0.07-0.32,0.14-0.48,0.17
				c-0.43,0.22-1.13,0.51-2.08,0.9c0.89,0.75,2.26,2.03,4.12,3.83c0.44,0.45,0.57,0.81,0.35,1.08c-0.24,0.29-0.5,0.3-0.76,0.08
				c-0.05-0.08-0.11-0.19-0.19-0.34c-0.36-0.38-1.29-1.28-2.81-2.68c-1.53-1.38-2.85-2.55-3.97-3.49c-0.22-0.18-0.62-0.48-1.22-0.9
				l-0.32-0.16c-0.1-0.08-0.16-0.2-0.18-0.35c-0.01-0.13,0.03-0.26,0.11-0.36c0.18-0.22,0.41-0.25,0.7-0.13
				c0.25,0.12,0.82,0.54,1.68,1.28c0.44,0.38,0.94,0.81,1.48,1.31c0.62-0.15,1.58-0.56,2.89-1.18c0.34-0.16,0.65-0.13,0.89,0.07
				C161.55,154.23,161.62,154.35,161.65,154.48z"/>
		</g>
	</g>
	<g>
		<path class="st0" d="M16.62,68.96l1.56-3.64c0.2-0.46,0.45-0.91,0.75-1.34s0.65-0.78,1.05-1.05c0.4-0.27,0.85-0.44,1.35-0.5
			c0.5-0.06,1.06,0.04,1.67,0.3c0.64,0.28,1.12,0.71,1.43,1.31c0.31,0.6,0.4,1.26,0.26,1.98l0.03,0.01
			c0.43-0.75,1.02-1.28,1.77-1.58s1.57-0.25,2.47,0.13c0.51,0.22,0.92,0.52,1.25,0.92c0.33,0.39,0.56,0.85,0.68,1.36
			c0.13,0.52,0.15,1.09,0.07,1.72c-0.08,0.63-0.27,1.3-0.57,2l-1.55,3.62L16.62,68.96z M22.51,70.01l1.07-2.5
			c0.13-0.3,0.22-0.62,0.29-0.95s0.06-0.66,0.01-0.99s-0.19-0.62-0.4-0.9c-0.21-0.27-0.52-0.5-0.92-0.67
			c-0.39-0.17-0.76-0.23-1.09-0.19c-0.34,0.04-0.65,0.15-0.94,0.35s-0.54,0.45-0.77,0.77c-0.23,0.33-0.43,0.69-0.6,1.09l-0.93,2.16
			L22.51,70.01z M28.31,72.5l0.99-2.31c0.19-0.45,0.33-0.9,0.42-1.34c0.09-0.45,0.1-0.86,0.05-1.25c-0.06-0.39-0.2-0.74-0.43-1.05
			c-0.23-0.31-0.55-0.56-0.98-0.75c-0.81-0.35-1.52-0.33-2.16,0.05c-0.63,0.38-1.16,1.07-1.59,2.07l-1.09,2.54L28.31,72.5z"/>
		<path class="st0" d="M35.68,58.22l3.55-5.08l0.99,0.69l-4.32,6.19L24.99,52.4l0.77-1.11L35.68,58.22z"/>
		<path class="st0" d="M44.01,49.4l-1.09,1.01l-4.87-13.65l0.96-0.9l13.25,5.83l-1.1,1.03l-3.46-1.56l-5.03,4.69L44.01,49.4z
			 M42.21,44.6l4.29-4l-6.96-3.17L42.21,44.6z"/>
		<path class="st0" d="M64.27,32.08l0.03-0.02l-5.51-9.9l1.18-0.66l6.47,11.62l-1.48,0.82l-12.33-6.23l-0.03,0.02l5.57,10
			l-1.18,0.66l-6.47-11.62L52,25.95L64.27,32.08z"/>
		<path class="st0" d="M83.54,25.44c-0.13,0.39-0.31,0.76-0.54,1.14c-0.23,0.37-0.52,0.73-0.87,1.05c-0.35,0.33-0.75,0.62-1.2,0.88
			c-0.46,0.26-0.97,0.47-1.56,0.62c-0.97,0.26-1.91,0.33-2.82,0.21c-0.91-0.12-1.75-0.4-2.5-0.84c-0.75-0.44-1.41-1.03-1.96-1.76
			c-0.55-0.73-0.96-1.59-1.22-2.57c-0.26-0.98-0.33-1.93-0.21-2.84c0.12-0.91,0.4-1.75,0.84-2.51c0.44-0.76,1.02-1.42,1.75-1.97
			c0.73-0.56,1.57-0.96,2.52-1.22c0.47-0.13,0.95-0.2,1.43-0.22s0.94,0,1.39,0.07c0.45,0.07,0.87,0.19,1.26,0.35
			s0.74,0.37,1.04,0.63l-0.88,1.09c-0.19-0.17-0.42-0.33-0.7-0.47c-0.28-0.15-0.59-0.26-0.94-0.33c-0.34-0.08-0.71-0.12-1.09-0.12
			c-0.38,0-0.78,0.05-1.19,0.16c-0.83,0.22-1.54,0.57-2.12,1.05c-0.58,0.48-1.03,1.03-1.35,1.67c-0.32,0.64-0.52,1.32-0.58,2.06
			c-0.06,0.74,0.01,1.48,0.21,2.23c0.2,0.75,0.51,1.43,0.94,2.04c0.43,0.61,0.94,1.11,1.54,1.5c0.6,0.39,1.26,0.65,2,0.77
			c0.74,0.13,1.52,0.08,2.34-0.14c0.74-0.2,1.4-0.54,1.98-1.02s1.01-1.11,1.28-1.9L83.54,25.44z"/>
		<path class="st0" d="M102.99,19.94c0.02,1.01-0.14,1.95-0.48,2.81c-0.34,0.86-0.81,1.6-1.42,2.23c-0.61,0.63-1.33,1.13-2.17,1.49
			s-1.75,0.55-2.74,0.57c-0.99,0.02-1.91-0.15-2.76-0.48c-0.85-0.34-1.59-0.81-2.22-1.42c-0.63-0.61-1.13-1.34-1.49-2.18
			c-0.36-0.85-0.55-1.78-0.57-2.79c-0.02-1.01,0.14-1.95,0.48-2.81c0.34-0.86,0.81-1.6,1.42-2.23s1.33-1.13,2.17-1.49
			c0.84-0.36,1.75-0.55,2.74-0.57c0.99-0.02,1.91,0.15,2.76,0.48c0.85,0.34,1.59,0.81,2.22,1.42c0.63,0.61,1.13,1.34,1.49,2.18
			C102.79,18,102.97,18.93,102.99,19.94z M101.56,19.97c-0.01-0.78-0.15-1.51-0.41-2.21c-0.26-0.7-0.64-1.31-1.12-1.83
			c-0.48-0.52-1.07-0.94-1.76-1.24c-0.69-0.3-1.46-0.45-2.31-0.43c-0.85,0.01-1.62,0.18-2.29,0.51c-0.68,0.32-1.25,0.76-1.72,1.29
			c-0.47,0.54-0.82,1.16-1.06,1.86c-0.24,0.7-0.35,1.44-0.34,2.22c0.01,0.78,0.15,1.51,0.41,2.21s0.63,1.3,1.12,1.82
			c0.48,0.52,1.07,0.93,1.76,1.23c0.69,0.3,1.46,0.45,2.31,0.43c0.85-0.01,1.62-0.18,2.29-0.51s1.25-0.75,1.72-1.29
			c0.47-0.53,0.82-1.15,1.06-1.86C101.46,21.49,101.58,20.75,101.56,19.97z"/>
		<path class="st0" d="M119.49,30.33l-1.27-0.47l4.64-12.47l3.66,1.36c0.61,0.23,1.16,0.5,1.63,0.81c0.48,0.31,0.86,0.67,1.14,1.08
			s0.45,0.86,0.51,1.36c0.05,0.5-0.03,1.06-0.26,1.67c-0.17,0.46-0.41,0.84-0.71,1.16c-0.3,0.31-0.65,0.56-1.03,0.73
			c-0.38,0.17-0.8,0.27-1.25,0.29c-0.45,0.02-0.91-0.03-1.39-0.16l1.44,7.29l-1.55-0.58l-1.28-7.11l-2.11-0.79L119.49,30.33z
			 M122.07,23.41l2.2,0.82c1.02,0.38,1.88,0.49,2.57,0.32s1.17-0.62,1.45-1.36c0.15-0.41,0.21-0.79,0.16-1.12
			c-0.05-0.34-0.17-0.65-0.38-0.92c-0.2-0.28-0.49-0.53-0.84-0.75c-0.36-0.23-0.77-0.43-1.24-0.6l-2.25-0.84L122.07,23.41z"/>
		<path class="st0" d="M146.73,37.6c-0.57,0.84-1.24,1.51-2.01,2.02c-0.77,0.51-1.59,0.84-2.45,1c-0.86,0.16-1.74,0.15-2.64-0.04
			c-0.9-0.19-1.75-0.56-2.57-1.12s-1.48-1.22-1.98-1.99c-0.5-0.77-0.83-1.58-1-2.44c-0.16-0.86-0.15-1.74,0.04-2.64
			s0.57-1.77,1.14-2.61c0.57-0.84,1.24-1.51,2.01-2.02c0.77-0.51,1.58-0.84,2.45-1c0.86-0.16,1.74-0.15,2.64,0.04
			c0.9,0.19,1.75,0.56,2.57,1.12s1.48,1.22,1.98,1.99c0.5,0.77,0.83,1.58,1,2.44c0.16,0.86,0.15,1.74-0.04,2.64
			S147.3,36.76,146.73,37.6z M145.55,36.8c0.44-0.64,0.75-1.32,0.94-2.04c0.19-0.72,0.23-1.43,0.14-2.14
			c-0.09-0.71-0.33-1.38-0.72-2.03s-0.93-1.2-1.64-1.68c-0.7-0.48-1.43-0.78-2.17-0.91s-1.46-0.1-2.15,0.07
			c-0.69,0.17-1.34,0.47-1.94,0.91c-0.6,0.44-1.12,0.98-1.56,1.62c-0.44,0.64-0.75,1.32-0.94,2.04s-0.23,1.43-0.14,2.13
			c0.1,0.7,0.34,1.37,0.73,2.02s0.93,1.2,1.64,1.68c0.7,0.48,1.42,0.78,2.17,0.91c0.74,0.13,1.45,0.11,2.14-0.06
			c0.69-0.17,1.33-0.47,1.94-0.9S145.11,37.44,145.55,36.8z"/>
		<path class="st0" d="M150.23,50.52l-0.92-1l8.91-8.19l-3.01-3.28l0.89-0.81l6.94,7.56l-0.89,0.81l-3.01-3.28L150.23,50.52z"/>
		<path class="st0" d="M168.7,66.17c-0.88,0.5-1.78,0.8-2.7,0.92c-0.92,0.11-1.79,0.05-2.64-0.19c-0.84-0.23-1.63-0.63-2.35-1.2
			s-1.32-1.28-1.81-2.14c-0.49-0.86-0.78-1.75-0.89-2.66s-0.05-1.79,0.19-2.63s0.64-1.63,1.21-2.35c0.57-0.72,1.3-1.33,2.18-1.83
			s1.78-0.8,2.7-0.92c0.91-0.11,1.79-0.05,2.64,0.18c0.84,0.24,1.63,0.64,2.35,1.2c0.72,0.56,1.32,1.28,1.81,2.14
			c0.49,0.86,0.78,1.75,0.89,2.66c0.11,0.91,0.05,1.79-0.19,2.63c-0.24,0.84-0.64,1.63-1.21,2.35
			C170.31,65.06,169.58,65.67,168.7,66.17z M167.99,64.93c0.67-0.38,1.26-0.85,1.74-1.42c0.49-0.56,0.84-1.18,1.07-1.86
			c0.23-0.68,0.31-1.39,0.25-2.14c-0.06-0.75-0.3-1.49-0.72-2.24c-0.42-0.74-0.93-1.33-1.54-1.77c-0.61-0.44-1.26-0.74-1.96-0.89
			c-0.7-0.15-1.41-0.17-2.14-0.04s-1.44,0.38-2.11,0.76c-0.68,0.38-1.26,0.85-1.74,1.41c-0.49,0.56-0.84,1.18-1.07,1.85
			c-0.22,0.67-0.3,1.38-0.24,2.13c0.06,0.75,0.3,1.49,0.72,2.23c0.42,0.74,0.93,1.33,1.54,1.77s1.26,0.74,1.95,0.9
			s1.4,0.17,2.14,0.05C166.61,65.56,167.31,65.31,167.99,64.93z"/>
	</g>
	<path d="M116.49,112.74c-0.11,0.69-0.03,1.37,0.2,2.04c0.34,1.01,2.51,0.61,2.3-0.43c-0.11-0.55-0.07-1.08-0.12-1.61
		c-0.04-0.44-0.6-0.81-1.19-0.81C116.98,111.93,116.56,112.3,116.49,112.74L116.49,112.74z"/>
	<g>
		<g>
			<g id="XMLID_42_">
				<g>
					<path d="M98.92,123.56c0.6-0.03,1.23-0.03,1.9,0c-0.29,0.37-0.6,0.71-0.93,1.03C99.55,124.28,99.22,123.94,98.92,123.56z"/>
					<path d="M98.28,122.83c0.98-0.09,2.04-0.09,3.15,0c0.18,0,0.34,0.1,0.41,0.27c0.08,0.17,0.05,0.36-0.07,0.5l-0.06,0.08
						c-0.45,0.61-0.95,1.18-1.5,1.68c-0.09,0.08-0.19,0.13-0.31,0.13c0,0,0,0,0,0c-0.11,0-0.22-0.04-0.31-0.12
						c-0.59-0.5-1.12-1.08-1.57-1.7l-0.06-0.08c-0.11-0.12-0.14-0.31-0.07-0.49C97.97,122.95,98.12,122.84,98.28,122.83z
						 M98.92,123.56c0.3,0.37,0.62,0.71,0.97,1.03c0.33-0.32,0.64-0.66,0.93-1.03C100.16,123.53,99.53,123.53,98.92,123.56z"/>
				</g>
				<g>
				</g>
			</g>
		</g>
		<g>
			<g>
				<path d="M90.26,131.94c1.2,1.47,3.1,2.23,4.96,2.38c1.06,0.08,2.15-0.07,3.15-0.45c1.03-0.39,1.95-0.9,3.07-0.53
					c0.75,0.25,1.08-0.94,0.33-1.19c-2.05-0.68-3.77,0.9-5.79,0.96c-1.81,0.05-3.68-0.61-4.84-2.04
					C90.63,130.45,89.77,131.33,90.26,131.94L90.26,131.94z"/>
			</g>
		</g>
		<g>
			<g>
				<path d="M110.17,131.07c-1.16,1.42-3.03,2.09-4.84,2.04c-2.02-0.06-3.75-1.64-5.79-0.96c-0.75,0.25-0.43,1.44,0.33,1.19
					c1.09-0.36,1.97,0.11,2.98,0.5c1.03,0.4,2.15,0.57,3.24,0.48c1.86-0.14,3.76-0.91,4.96-2.38
					C111.54,131.33,110.67,130.45,110.17,131.07L110.17,131.07z"/>
			</g>
		</g>
		<g>
			<g>
				<path d="M108.97,133.54c0.75-0.56,1.74-0.78,2.34-1.54c0.15-0.19,0.28-0.39,0.28-0.64c0-0.28-0.16-0.54-0.39-0.68
					c-0.15-0.09-0.33-0.14-0.51-0.14c-0.08,0-0.17,0.01-0.25,0.03c-0.08,0.02-0.26,0.1-0.3,0.18c-0.01,0.02-0.06,0.05,0.02-0.01
					c0.1-0.07,0,0-0.02,0.01c-0.07,0.05-0.14,0.1-0.21,0.16c-0.09,0.07-0.17,0.15-0.25,0.23c-0.15,0.15-0.28,0.31-0.42,0.48
					c-0.14,0.18-0.29,0.35-0.45,0.51c-0.08,0.08-0.17,0.16-0.26,0.23c0.15-0.13,0.01-0.01-0.04,0.02c-0.06,0.04-0.12,0.07-0.18,0.1
					c-0.29,0.15-0.4,0.57-0.22,0.84C108.31,133.61,108.66,133.7,108.97,133.54c0.36-0.19,0.67-0.47,0.94-0.78
					c0.24-0.27,0.45-0.56,0.71-0.82c0.03-0.03,0.07-0.06,0.1-0.09c0.02-0.01,0.14-0.12,0.05-0.05c-0.09,0.07,0.03-0.02,0.05-0.03
					c0.07-0.05,0.14-0.09,0.19-0.16c0.1-0.12-0.29,0.16-0.37,0.15c0.01,0,0.07-0.01,0.07,0c0,0.02-0.16-0.05-0.07-0.01
					c-0.01,0-0.13-0.08-0.06-0.02c-0.03-0.03-0.05-0.05-0.08-0.08c-0.07-0.04-0.11-0.11-0.11-0.19c-0.01-0.04-0.02-0.07-0.03-0.11
					c0.07-0.2,0.08-0.26,0.04-0.18c-0.04,0.07,0.08-0.09,0.03-0.03c-0.02,0.02-0.04,0.04-0.05,0.07c-0.05,0.06-0.11,0.12-0.17,0.18
					c-0.03,0.03-0.06,0.05-0.09,0.08c-0.03,0.03-0.09,0.05,0.06-0.04c-0.02,0.01-0.04,0.03-0.06,0.04c-0.16,0.11-0.34,0.2-0.51,0.29
					c-0.43,0.22-0.87,0.43-1.25,0.72c-0.13,0.1-0.24,0.2-0.28,0.37c-0.04,0.15-0.02,0.34,0.06,0.47
					C108.29,133.58,108.69,133.75,108.97,133.54L108.97,133.54z"/>
			</g>
		</g>
		<g>
			<g>
				<path d="M92.38,132.17c-0.35-0.24-0.74-0.43-1.13-0.61c-0.19-0.09-0.38-0.17-0.56-0.27c-0.07-0.04-0.13-0.09-0.2-0.13
					c-0.06-0.04,0.11,0.09,0.05,0.04c-0.02-0.01-0.03-0.03-0.05-0.04c-0.04-0.03-0.07-0.06-0.1-0.1c-0.06-0.06-0.12-0.13-0.17-0.19
					c-0.05-0.05,0.04,0.07,0.05,0.08c0.06,0.13,0.03,0.31-0.06,0.42c-0.04,0.05-0.09,0.09-0.15,0.12c-0.05,0.02-0.06,0.02-0.03,0.01
					c0.05-0.01,0.02-0.01-0.08,0.01c0.01,0,0.06,0,0.07,0c-0.06-0.03-0.13-0.05-0.19-0.08c-0.17-0.11-0.23-0.13-0.18-0.07
					c0.03,0.03,0.07,0.06,0.1,0.09c0.05,0.04,0.11,0.08,0.16,0.12c0.01,0.01,0.03,0.02,0.04,0.03c0.1,0.07-0.11-0.09-0.01-0.01
					c0.28,0.24,0.52,0.52,0.77,0.79c0.3,0.34,0.64,0.66,1.06,0.85c0.29,0.14,0.68,0.09,0.84-0.22
					C92.75,132.74,92.69,132.32,92.38,132.17c-0.1-0.05-0.19-0.1-0.28-0.16c-0.02-0.02-0.17-0.12-0.08-0.05
					c0.08,0.06,0.01,0.01,0-0.01c-0.03-0.02-0.05-0.04-0.08-0.07c-0.16-0.14-0.3-0.3-0.44-0.45c-0.31-0.35-0.62-0.68-1-0.94
					c-0.02-0.02-0.09-0.06,0,0c0.08,0.06,0.03,0.03,0.02,0.01c-0.04-0.05-0.1-0.09-0.15-0.12c-0.2-0.11-0.46-0.11-0.68-0.05
					c-0.5,0.15-0.77,0.7-0.51,1.18c0.11,0.21,0.31,0.41,0.49,0.56c0.19,0.16,0.4,0.29,0.62,0.4c0.5,0.24,1.02,0.45,1.48,0.77
					c0.27,0.18,0.7,0.06,0.84-0.22C92.77,132.7,92.66,132.37,92.38,132.17L92.38,132.17z"/>
			</g>
		</g>
		<g>
			<g>
				<path d="M108.12,107.88c0-0.24-0.06,0.15,0.01-0.07c0.08-0.25-0.09,0.16,0.03-0.08c0.06-0.13,0.13-0.26,0.19-0.39
					c0.08-0.16,0.17-0.3,0.26-0.45c0.09-0.15-0.04,0.03,0.03-0.05c0.06-0.06,0.11-0.13,0.17-0.18c0.06-0.06,0.13-0.11,0.02-0.03
					c0.07-0.05,0.13-0.09,0.2-0.14c0.13-0.08,0.26-0.14,0.4-0.21c0.1-0.05-0.14,0.05,0.04-0.01c0.08-0.03,0.16-0.06,0.23-0.09
					c0.16-0.05,0.31-0.11,0.47-0.16c-0.31-0.54-0.63-1.08-0.94-1.62c-0.84,0.98-1.68,1.96-2.52,2.93c-0.23,0.27-0.35,0.59-0.25,0.94
					c0.08,0.3,0.35,0.62,0.68,0.68c1.08,0.18,2.09-0.02,3.08-0.46c0.78-0.34,1.59-0.79,2.23-1.35c0.35-0.3,0.64-0.73,0.73-1.18
					c0.15-0.79-0.43-1.47-1.23-1.46c-0.95,0.01-1.82,0.54-2.6,1.03c0.48,0.37,0.95,0.73,1.43,1.1c-0.01,0.03-0.03,0.07-0.04,0.1
					c0.05-0.07,0.05-0.08,0-0.02c-0.06,0.16,0.03-0.11,0.06-0.06c0,0-0.16,0.12-0.03,0.03c0.17-0.12-0.18,0.05,0.03-0.01
					c0.49-0.14,0.84-0.69,0.68-1.19c-0.16-0.49-0.67-0.83-1.19-0.68c-0.68,0.2-1.12,0.67-1.37,1.32c-0.14,0.36,0.07,0.81,0.35,1.02
					c0.3,0.23,0.75,0.28,1.08,0.08c0.33-0.21,0.66-0.42,1.02-0.59c0.04-0.02,0.08-0.04,0.12-0.05c-0.1,0.04-0.1,0.04,0.01,0
					c0.08-0.02,0.16-0.05,0.25-0.08c0.08-0.02,0.17-0.04,0.25-0.06c-0.11,0.01-0.12,0.01-0.03,0.01c-0.22-0.02-0.4-0.13-0.55-0.32
					c-0.04-0.16-0.09-0.33-0.13-0.49c0.04-0.14,0.04-0.16,0.01-0.05c0.05-0.11,0.05-0.12,0-0.02c-0.06,0.09-0.05,0.09,0.02-0.01
					c-0.03,0.04-0.07,0.08-0.1,0.11c-0.06,0.06-0.11,0.11-0.17,0.16c0.18-0.15-0.09,0.05-0.12,0.08c-0.36,0.24-0.74,0.46-1.12,0.66
					c-0.09,0.05-0.19,0.1-0.29,0.15c-0.03,0.01-0.36,0.16-0.19,0.09c-0.2,0.08-0.4,0.15-0.61,0.2c-0.12,0.03-0.24,0.06-0.36,0.08
					c-0.2,0.04,0.12,0.01-0.11,0.01c-0.12,0-0.24,0.01-0.37,0.01c-0.06,0-0.12-0.01-0.18-0.01c0.11,0.02,0.1,0.02-0.02,0
					c0.14,0.54,0.29,1.08,0.43,1.62c0.84-0.98,1.68-1.96,2.52-2.93c0.27-0.32,0.4-0.8,0.15-1.18c-0.23-0.35-0.68-0.58-1.1-0.45
					c-0.82,0.26-1.66,0.56-2.28,1.19c-0.31,0.32-0.55,0.7-0.75,1.1c-0.23,0.46-0.47,0.92-0.46,1.45c0.01,0.51,0.44,0.99,0.97,0.97
					C107.67,108.82,108.13,108.42,108.12,107.88L108.12,107.88z"/>
			</g>
		</g>
		<g>
			<g>
				<path d="M92.8,107.75c-0.02-0.53-0.24-0.98-0.5-1.43c-0.22-0.38-0.47-0.77-0.8-1.07c-0.65-0.6-1.49-0.87-2.32-1.09
					c-0.95-0.25-1.61,0.92-0.94,1.62c0.89,0.93,1.77,1.87,2.66,2.8c0.14-0.54,0.29-1.08,0.43-1.62c-0.24,0.05-0.77,0.05-1.01,0
					c-0.22-0.04-0.44-0.11-0.65-0.18c-0.12-0.04-0.24-0.09-0.36-0.14c0.15,0.06-0.13-0.06-0.16-0.08c-0.39-0.18-0.77-0.38-1.14-0.6
					c-0.08-0.05-0.16-0.1-0.23-0.15c-0.09-0.06-0.09-0.06,0.01,0.01c-0.03-0.02-0.06-0.05-0.09-0.08c-0.05-0.05-0.17-0.25-0.07-0.06
					c-0.03-0.04-0.05-0.09-0.08-0.13c0.07,0.12,0.09,0.26,0.06,0.4c-0.08,0.14-0.17,0.29-0.25,0.43c-0.13,0.11-0.27,0.17-0.43,0.17
					c0.04,0,0.07,0,0.11,0c0.07,0.01,0.06,0-0.04-0.01c0.04,0.01,0.09,0.01,0.13,0.02c0.19,0.04,0.37,0.1,0.56,0.17
					c0.27,0.1-0.16-0.08,0.1,0.05c0.08,0.04,0.16,0.08,0.24,0.12c0.19,0.1,0.37,0.2,0.56,0.31c0.36,0.2,0.88,0.17,1.18-0.15
					c0.31-0.34,0.34-0.77,0.15-1.18c-0.24-0.52-0.76-0.91-1.31-1.05c-0.49-0.12-1.08,0.16-1.19,0.68c-0.11,0.5,0.15,1.06,0.68,1.19
					c0.04,0.01,0.2,0.1,0.1,0.02c-0.13-0.09,0.13,0.17-0.06-0.04c0.03,0.04,0.07,0.07,0.11,0.11c-0.14-0.16-0.02,0.01,0,0.06
					c0.44-0.44,0.89-0.89,1.33-1.33c-0.8-0.45-1.69-0.93-2.64-0.92c-0.78,0.01-1.4,0.68-1.22,1.47c0.1,0.44,0.39,0.85,0.73,1.13
					c0.71,0.58,1.6,1,2.45,1.33c0.95,0.37,1.97,0.5,2.97,0.28c0.74-0.16,0.91-1.12,0.43-1.62c-0.89-0.93-1.77-1.87-2.66-2.8
					c-0.31,0.54-0.63,1.08-0.94,1.62c0.29,0.08,0.59,0.16,0.87,0.26c0.07,0.03,0.23,0.1,0.07,0.03c0.07,0.04,0.15,0.07,0.22,0.11
					c0.06,0.03,0.12,0.07,0.17,0.1c0.03,0.02,0.07,0.04,0.1,0.07c-0.08-0.06-0.09-0.07-0.04-0.03c0.05,0.05,0.1,0.09,0.15,0.14
					c0.01,0.01,0.2,0.22,0.07,0.07c0.1,0.12,0.18,0.26,0.26,0.4c0.08,0.14,0.16,0.28,0.23,0.42c0.02,0.04,0.09,0.26,0.05,0.08
					c0.02,0.06,0.03,0.28,0.02,0.07c0.02,0.51,0.43,0.99,0.97,0.97C92.34,108.7,92.82,108.29,92.8,107.75L92.8,107.75z"/>
			</g>
		</g>
		<g>
			<g id="XMLID_41_">
				<g>
					<path d="M99.71,106.59c0.92,2.99,1.01,6.16,0.24,9.2l-0.08,0.32l-0.16-0.48C98.74,112.71,98.74,109.51,99.71,106.59z"/>
					<path d="M99.96,115.79c0.77-3.04,0.68-6.21-0.24-9.2c-0.97,2.92-0.97,6.12,0,9.04l0.16,0.48L99.96,115.79z M99.92,106.26
						c1.01,3.11,1.13,6.43,0.33,9.59l-0.16,0.63c-0.02,0.09-0.1,0.15-0.19,0.15c0,0-0.01,0-0.01,0c-0.09,0-0.17-0.05-0.19-0.14
						l-0.26-0.78c-1.02-3.06-1-6.42,0.08-9.47c0.03-0.09,0.11-0.14,0.2-0.14h0C99.81,106.12,99.89,106.18,99.92,106.26z"/>
				</g>
				<g>
				</g>
			</g>
		</g>
		<g>
			<g>
				<path d="M112.24,116.64c0.57-1.26,1.93-2.09,3.09-2.75c1.29-0.74,2.64-1.31,4.11-1.53c3.7-0.55,8.31-0.91,10.47-4.47
					c0.55-0.91-0.87-1.73-1.42-0.83c-2.2,3.62-7.19,2.94-10.69,3.95c-1.41,0.41-2.79,1.1-4.02,1.89c-1.13,0.73-2.38,1.65-2.96,2.91
					C110.39,116.76,111.8,117.6,112.24,116.64L112.24,116.64z"/>
			</g>
		</g>
		<g>
			<g>
				<path d="M89.32,115.58c-0.57-1.18-1.77-2.03-2.85-2.7c-1.27-0.78-2.68-1.46-4.12-1.85c-3.44-0.94-8.47-0.26-10.7-3.73
					c-0.56-0.86-1.94-0.06-1.38,0.81c2.21,3.43,6.81,3.73,10.46,4.24c1.43,0.2,2.75,0.71,4.02,1.39c1.16,0.62,2.6,1.41,3.2,2.65
					C88.38,117.32,89.76,116.51,89.32,115.58L89.32,115.58z"/>
			</g>
		</g>
		<path d="M81.93,112.97c-0.02,0.52-0.03,1.01-0.11,1.53c-0.16,0.99,1.86,1.37,2.19,0.41c0.22-0.64,0.3-1.29,0.19-1.94
			c-0.07-0.41-0.47-0.77-1.14-0.77C82.5,112.2,81.86,112.55,81.93,112.97L81.93,112.97z"/>
	</g>
	<g>
		<g>
			<path d="M128.54,124.65c-4.74,7.19-11.38,13-19.82,15.25c-8.53,2.28-17.32,0.98-24.93-3.43c-4.38-2.54-8.32-5.96-11.01-10.28
				c-0.56-0.9-1.98-0.07-1.42,0.83c4.9,7.87,13.87,13.49,22.92,15.16c8.54,1.58,17.85-0.43,24.97-5.38c4.32-3,7.83-6.95,10.71-11.32
				C130.54,124.59,129.12,123.76,128.54,124.65L128.54,124.65z"/>
		</g>
	</g>
	<g>
		<g>
			<path d="M67.31,54.48c-3.01,1.77-5.97,3.67-8.56,6.03c-2.51,2.28-4.6,4.98-6.31,7.91c-3.84,6.56-4.54,14.13-5.31,21.53
				c-0.56,5.34-2.01,10.51-3.07,15.76c-0.57,2.83-1.13,5.69-1.35,8.57c-0.25,3.14,0.14,6.41,0.62,9.52
				c1.24,7.88,5.16,14.75,8.99,21.62c0.51,0.92,1.94,0.1,1.42-0.83c-3.3-5.93-6.81-11.89-8.32-18.57c-0.75-3.32-1.13-6.8-1.14-10.2
				c-0.01-2.6,0.51-5.22,0.99-7.76c0.94-4.99,2.4-9.92,3.12-14.95c0.99-6.9,1.07-13.95,3.78-20.5c1.51-3.66,3.85-7.09,6.65-9.89
				c2.74-2.75,6-4.86,9.33-6.81C69.05,55.36,68.23,53.94,67.31,54.48L67.31,54.48z"/>
		</g>
	</g>
	<g>
		<g>
			<path d="M142.87,75.86c2.02,4.44,2.71,9.23,3.69,13.96c0.97,4.68,2.53,9.22,3.57,13.89c1.03,4.6,1.47,9.2,0.86,13.89
				c-0.57,4.37-1.71,8.67-3.18,12.82c-1.84,5.22-4.21,10.24-6.79,15.13c-0.49,0.94,0.93,1.77,1.42,0.83
				c4.46-8.47,8.41-17.44,9.92-26.95c0.73-4.61,0.68-9.12-0.16-13.71c-0.91-4.96-2.54-9.74-3.7-14.64
				c-1.28-5.43-1.89-10.92-4.23-16.05C143.85,74.07,142.43,74.91,142.87,75.86L142.87,75.86z"/>
		</g>
	</g>
	<g>
		<g>
			<path d="M78.03,51.04c13.47-4.67,28.58-3.73,41.34,2.64c0.94,0.47,1.78-0.95,0.83-1.42c-13.14-6.56-28.72-7.62-42.6-2.81
				C76.6,49.8,77.03,51.39,78.03,51.04L78.03,51.04z"/>
		</g>
	</g>
	<g>
		<g>
			<path d="M129.76,57.81c4.15,3.31,7.18,7.53,10.05,11.95c0.57,0.89,2,0.06,1.42-0.83c-2.93-4.53-6.05-8.89-10.3-12.28
				c-0.35-0.28-0.82-0.34-1.16,0C129.47,56.93,129.42,57.53,129.76,57.81L129.76,57.81z"/>
		</g>
	</g>
	<g>
		<g>
			<path d="M55.95,81.19c-0.57,1.97-1.27,3.9-1.84,5.86c-0.58,1.99-0.86,4.04-1.06,6.09c-0.1,1.05,1.54,1.05,1.64,0
				c0.19-1.96,0.47-3.89,1.03-5.78c0.57-1.92,1.25-3.81,1.81-5.74C57.83,80.61,56.24,80.17,55.95,81.19L55.95,81.19z"/>
		</g>
	</g>
	<g>
		<g>
			<path d="M54.61,107.97c0.35,5.82-1.15,11.67,0.3,17.42c0.26,1.03,1.85,0.59,1.59-0.44c-1.41-5.58,0.1-11.33-0.24-16.99
				C56.19,106.92,54.54,106.91,54.61,107.97L54.61,107.97z"/>
		</g>
	</g>
	<g>
		<g>
			<path d="M55.46,126.06c1.2,0.52,2.49,0.75,3.79,0.82c1.25,0.07,2.56-0.01,3.77-0.36c1.01-0.3,0.58-1.88-0.44-1.59
				c-1.05,0.31-2.1,0.36-3.22,0.31c-0.56-0.03-1.07-0.08-1.6-0.19c-0.27-0.05-0.54-0.12-0.81-0.19c-0.13-0.04-0.27-0.08-0.4-0.13
				c-0.06-0.02-0.11-0.04-0.17-0.06c-0.02-0.01-0.19-0.08-0.08-0.03c-0.41-0.18-0.88-0.12-1.13,0.29
				C54.96,125.28,55.05,125.88,55.46,126.06L55.46,126.06z"/>
		</g>
	</g>
	<g>
		<g>
			<path d="M63.57,125.44c0.01-0.17,0.02-0.33,0.04-0.5c-0.01,0.07-0.02,0.15-0.03,0.22c0.07-0.49,0.2-0.96,0.39-1.41
				c-0.03,0.07-0.06,0.13-0.08,0.2c0.1-0.24,0.22-0.47,0.36-0.69c0.22-0.37,0.09-0.92-0.29-1.13c-0.4-0.21-0.89-0.1-1.13,0.29
				c-0.55,0.91-0.85,1.95-0.9,3.02c-0.02,0.43,0.39,0.84,0.82,0.82C63.21,126.24,63.55,125.9,63.57,125.44L63.57,125.44z"/>
		</g>
	</g>
	<g>
		<g>
			<path d="M62.77,123.08c0.5,1.26,1.08,2.47,1.79,3.63c0.22,0.37,0.75,0.54,1.13,0.29c0.37-0.24,0.53-0.73,0.29-1.13
				c-0.33-0.54-0.63-1.09-0.91-1.65c-0.14-0.28-0.27-0.56-0.4-0.84c-0.03-0.08-0.07-0.16-0.1-0.23c-0.02-0.04-0.1-0.22-0.02-0.04
				c-0.07-0.16-0.13-0.32-0.19-0.47c-0.08-0.21-0.18-0.38-0.38-0.49c-0.18-0.1-0.44-0.15-0.63-0.08
				C62.96,122.19,62.6,122.65,62.77,123.08L62.77,123.08z"/>
		</g>
	</g>
	<g>
		<g>
			<path d="M65.13,127.17c3.73,1.05,8.04,0.4,11.52-1.21c0.96-0.44,0.12-1.86-0.83-1.42c-3.07,1.42-6.96,1.97-10.25,1.05
				C64.55,125.3,64.11,126.89,65.13,127.17L65.13,127.17z"/>
		</g>
	</g>
	<g>
		<g>
			<path d="M69.39,100.81c0.93,8.41,3.77,16.54,6.05,24.66c0.29,1.02,1.87,0.59,1.59-0.44c-2.23-7.96-5.08-15.97-5.99-24.22
				C70.92,99.77,69.28,99.76,69.39,100.81L69.39,100.81z"/>
		</g>
	</g>
	<g>
		<g>
			<path d="M133.21,98.98c-0.14,1.79-0.3,3.56-0.86,5.27c-0.57,1.76-1.42,3.42-2.06,5.15c-0.68,1.82-1.23,3.69-2,5.48
				c-0.83,1.96-1.74,3.89-2.61,5.84c-0.42,0.94,0.97,1.76,1.39,0.81c0.92-2.06,1.88-4.11,2.76-6.2c0.76-1.8,1.32-3.67,2.01-5.5
				c0.69-1.84,1.6-3.61,2.17-5.49c0.52-1.74,0.67-3.55,0.81-5.36C134.9,97.94,133.29,97.95,133.21,98.98L133.21,98.98z"/>
		</g>
	</g>
	<g>
		<g>
			<path d="M125.75,122.12c1.83,1.71,3.99,3.01,6.36,3.82c0.41,0.14,0.88-0.16,0.99-0.56c0.12-0.44-0.15-0.85-0.56-0.99
				c-2.09-0.71-4.03-1.89-5.65-3.41c-0.32-0.3-0.82-0.31-1.14,0C125.45,121.28,125.43,121.82,125.75,122.12L125.75,122.12z"/>
		</g>
	</g>
	<g>
		<g>
			<path d="M132.79,125.91c0.48-0.26,0.86-0.64,1.18-1.08c0.25-0.35,0.46-0.74,0.7-1.1c0.11-0.17,0.13-0.43,0.08-0.62
				c-0.05-0.19-0.2-0.39-0.37-0.48c-0.19-0.1-0.41-0.15-0.62-0.08c-0.21,0.07-0.36,0.19-0.48,0.37c-0.27,0.39-0.48,0.81-0.77,1.19
				c0.04-0.05,0.08-0.11,0.13-0.16c-0.13,0.17-0.28,0.33-0.46,0.46c0.05-0.04,0.11-0.08,0.16-0.13c-0.12,0.09-0.24,0.17-0.36,0.24
				c-0.37,0.2-0.52,0.74-0.29,1.1C131.93,125.99,132.4,126.12,132.79,125.91L132.79,125.91z"/>
		</g>
	</g>
	<g>
		<g>
			<path d="M133.33,123.56c0.14,0.9,0.42,1.76,0.78,2.59c0.07,0.17,0.31,0.32,0.48,0.37c0.19,0.05,0.45,0.03,0.62-0.08
				c0.17-0.11,0.32-0.28,0.37-0.48c0.01-0.07,0.02-0.14,0.03-0.21c0-0.15-0.04-0.28-0.11-0.41c-0.01-0.03-0.02-0.05-0.04-0.08
				c0.03,0.06,0.05,0.13,0.08,0.19c-0.31-0.74-0.53-1.52-0.66-2.32c-0.03-0.19-0.21-0.39-0.37-0.48c-0.17-0.1-0.43-0.14-0.62-0.08
				c-0.19,0.06-0.38,0.18-0.48,0.37C133.31,123.15,133.3,123.34,133.33,123.56L133.33,123.56z"/>
		</g>
	</g>
	<g>
		<g>
			<path d="M134.59,126.61c2.41,0.56,4.89,0.29,7.13-0.73c0.4-0.18,0.49-0.75,0.29-1.1c-0.24-0.41-0.7-0.47-1.1-0.29
				c-1.83,0.83-3.93,1.02-5.89,0.57c-0.42-0.1-0.87,0.13-0.99,0.56C133.91,126.03,134.16,126.51,134.59,126.61L134.59,126.61z"/>
		</g>
	</g>
	<g>
		<g>
			<path d="M142.02,125.54c3.36-7.34,2.96-15.46,2.3-23.31c-0.09-1.03-1.7-1.03-1.61,0c0.63,7.52,1.15,15.46-2.08,22.5
				C140.2,125.67,141.58,126.48,142.02,125.54L142.02,125.54z"/>
		</g>
	</g>
	<g>
		<g>
			<path d="M53.04,145.93c4,0.5,8.14-0.5,11.49-2.74c0.88-0.59,0.05-2.01-0.83-1.42c-3.14,2.1-6.91,2.98-10.66,2.51
				c-0.44-0.06-0.82,0.42-0.82,0.82C52.21,145.6,52.6,145.88,53.04,145.93L53.04,145.93z"/>
		</g>
	</g>
	<g>
		<g>
			<path d="M64.91,142.43c-0.06-0.64-0.05-1.28,0.04-1.92c-0.01,0.07-0.02,0.15-0.03,0.22c0.05-0.33,0.11-0.65,0.19-0.97
				c0.11-0.42-0.14-0.91-0.57-1.01c-0.43-0.1-0.9,0.13-1.01,0.57c-0.26,1.01-0.35,2.07-0.26,3.11c0.02,0.22,0.08,0.42,0.24,0.58
				c0.14,0.14,0.38,0.25,0.58,0.24C64.5,143.23,64.95,142.89,64.91,142.43L64.91,142.43z"/>
		</g>
	</g>
	<g>
		<g>
			<path d="M63.79,139.96c0.73,0.86,1.46,1.71,2.19,2.57c0.13,0.15,0.39,0.24,0.58,0.24c0.2,0,0.44-0.09,0.58-0.24
				c0.32-0.35,0.3-0.81,0-1.16c-0.73-0.86-1.46-1.71-2.19-2.57c-0.13-0.15-0.39-0.24-0.58-0.24c-0.2,0-0.44,0.09-0.58,0.24
				C63.47,139.15,63.49,139.61,63.79,139.96L63.79,139.96z"/>
		</g>
	</g>
	<g>
		<g>
			<path d="M67.21,142.91c2.4-1.16,4.85-2.2,7.34-3.13c2.31-0.86,4.74-1.79,7.2-2.08c1.04-0.12,1.05-1.77,0-1.64
				c-2.63,0.31-5.18,1.22-7.64,2.14c-2.62,0.98-5.21,2.08-7.74,3.3C65.43,141.95,66.26,143.37,67.21,142.91L67.21,142.91z"/>
		</g>
	</g>
	<g>
		<g>
			<path d="M114.35,139.96c0.69-0.04,1.38-0.06,2.07,0c0.19,0.02-0.15-0.03,0.02,0c0.05,0.01,0.11,0.02,0.16,0.03
				c0.1,0.02,0.19,0.04,0.29,0.07c0.08,0.02,0.16,0.05,0.24,0.08c0.04,0.02,0.08,0.03,0.12,0.05c0.08,0.03-0.2-0.09-0.03-0.01
				c1.07,0.5,2.14,0.87,3.31,1.1c0.44,0.09,0.89-0.12,1.01-0.57c0.11-0.4-0.14-0.92-0.57-1.01c-0.71-0.14-1.42-0.31-2.1-0.57
				c-0.06-0.02-0.11-0.05-0.17-0.07c-0.16-0.06,0.15,0.07-0.01-0.01c-0.09-0.04-0.17-0.08-0.26-0.12c-0.19-0.09-0.38-0.18-0.58-0.26
				c-1.11-0.47-2.32-0.43-3.5-0.36c-0.44,0.03-0.82,0.36-0.82,0.82C113.53,139.56,113.9,139.98,114.35,139.96L114.35,139.96z"/>
		</g>
	</g>
	<g>
		<g>
			<path d="M120.96,141.28c0.64-0.2,1.3-0.44,1.85-0.83c0.6-0.42,1.09-0.96,1.44-1.61c0.21-0.38,0.11-0.91-0.29-1.13
				c-0.38-0.2-0.91-0.11-1.13,0.29c-0.08,0.14-0.16,0.27-0.25,0.4c-0.04,0.06-0.21,0.25-0.02,0.04c-0.05,0.05-0.09,0.11-0.13,0.16
				c-0.09,0.11-0.19,0.21-0.3,0.3c-0.05,0.04-0.09,0.08-0.14,0.12c-0.11,0.09,0.16-0.12,0.05-0.04c-0.03,0.02-0.06,0.04-0.09,0.06
				c-0.22,0.16-0.47,0.29-0.71,0.4c-0.05,0.02-0.2,0.08,0.05-0.02c-0.04,0.01-0.07,0.03-0.11,0.04c-0.06,0.02-0.12,0.05-0.19,0.07
				c-0.16,0.06-0.31,0.11-0.47,0.16c-0.41,0.13-0.71,0.58-0.57,1.01C120.08,141.12,120.52,141.41,120.96,141.28L120.96,141.28z"/>
		</g>
	</g>
	<g>
		<g>
			<path d="M122.72,138.42c-0.08,1.12-0.25,2.29,0.11,3.39c0.13,0.41,0.57,0.72,1.01,0.57c0.41-0.13,0.72-0.57,0.57-1.01
				c-0.04-0.12-0.08-0.25-0.1-0.38c-0.01-0.06-0.02-0.12-0.03-0.18c-0.01-0.09-0.01-0.07,0.01,0.06c0-0.04-0.01-0.07-0.01-0.11
				c-0.02-0.25-0.03-0.51-0.02-0.77c0.01-0.53,0.07-1.05,0.11-1.58c0.03-0.43-0.4-0.84-0.82-0.82
				C123.07,137.62,122.75,137.96,122.72,138.42L122.72,138.42z"/>
		</g>
	</g>
	<g>
		<g>
			<path d="M123.39,142.6c2.06,0.52,4.21,0.69,6.33,0.7c0.93,0,1.86-0.03,2.79-0.15c0.53-0.06,0.66-0.13,1.06,0.23
				c0.18,0.16,0.38,0.31,0.58,0.44c1.19,0.78,2.59,1.3,3.9,1.82c1.18,0.47,2.42,0.99,3.69,1.15c1.05,0.14,1.04-1.51,0-1.64
				c-0.91-0.12-2.41-0.76-3.45-1.17c-1.14-0.45-2.56-0.94-3.5-1.7c-0.64-0.52-1.05-0.93-1.93-0.82c-0.91,0.11-1.82,0.19-2.74,0.2
				c-2.11,0.03-4.24-0.12-6.29-0.64C122.8,140.76,122.36,142.35,123.39,142.6L123.39,142.6z"/>
		</g>
	</g>
	<g>
		<g>
			<path d="M73.52,68.78c-3.46,3.95-5.9,8.36-7.61,13.32c-1.88,5.46-2.3,11.36-2.49,17.1c-0.03,1.06,1.61,1.06,1.64,0
				c0.18-5.47,0.57-11.07,2.31-16.29c1.61-4.82,3.96-9.13,7.31-12.96C75.38,69.15,74.22,67.98,73.52,68.78L73.52,68.78z"/>
		</g>
	</g>
	<g>
		<g>
			<path d="M63.93,99.97c2.74,1.35,5.88,1.41,8.88,1.47c2.88,0.05,5.9-0.01,8.69-0.79c1.02-0.29,0.58-1.87-0.44-1.59
				c-2.58,0.73-5.34,0.78-8,0.74c-2.75-0.04-5.79-0.01-8.3-1.25C63.81,98.08,62.98,99.5,63.93,99.97L63.93,99.97z"/>
		</g>
	</g>
	<g>
		<g>
			<path d="M81.86,100.43c0.65-0.71,0.93-1.73,1.19-2.63c0.25-0.85,0.43-1.73,0.77-2.55c0.17-0.4-0.18-0.92-0.57-1.01
				c-0.48-0.11-0.83,0.15-1.01,0.57c-0.32,0.78-0.5,1.62-0.73,2.43c-0.13,0.45-0.27,0.9-0.44,1.34c-0.01,0.04-0.03,0.1-0.05,0.13
				c0.12-0.14,0.03-0.07,0,0c-0.04,0.09-0.08,0.18-0.13,0.27c-0.04,0.08-0.09,0.16-0.14,0.23c-0.02,0.03-0.1,0.13-0.01,0.02
				c0.1-0.12-0.01,0.01-0.03,0.03c-0.29,0.32-0.34,0.85,0,1.16C81.01,100.72,81.55,100.76,81.86,100.43L81.86,100.43z"/>
		</g>
	</g>
	<g>
		<g>
			<path d="M82.24,95.18c0.4,1.68,0.47,3.44,0.95,5.11c0.12,0.41,0.59,0.71,1.01,0.57c0.42-0.14,0.7-0.57,0.57-1.01
				c-0.48-1.67-0.55-3.43-0.95-5.11c-0.1-0.42-0.6-0.71-1.01-0.57C82.38,94.31,82.13,94.73,82.24,95.18L82.24,95.18z"/>
		</g>
	</g>
	<g>
		<g>
			<path d="M83.76,101.02c4.02,1.43,8.64,1.29,12.85,1.22c4.5-0.08,9.19-0.29,13.54-1.52c1.02-0.29,0.58-1.87-0.44-1.59
				c-4.21,1.19-8.75,1.38-13.1,1.46c-4.07,0.07-8.53,0.22-12.41-1.16C83.2,99.08,82.77,100.67,83.76,101.02L83.76,101.02z"/>
		</g>
	</g>
	<g>
		<g>
			<path d="M110.68,100.31c0.74-1.57,1.25-3.19,1.4-4.93c0.16-1.76-0.08-3.53-0.41-5.26c-0.2-1.04-1.78-0.6-1.59,0.44
				c0.3,1.54,0.49,3.11,0.36,4.68c-0.11,1.48-0.56,2.91-1.19,4.24c-0.19,0.4-0.11,0.89,0.29,1.13
				C109.91,100.81,110.49,100.71,110.68,100.31L110.68,100.31z"/>
		</g>
	</g>
	<g>
		<g>
			<path d="M110.5,95.12c0.08,0.41,0.25,0.81,0.4,1.2c0.17,0.46,0.36,0.91,0.54,1.36c0.41,1,0.74,2.03,1.5,2.82
				c0.3,0.31,0.87,0.32,1.16,0c0.31-0.33,0.32-0.83,0-1.16c-0.05-0.05-0.1-0.11-0.15-0.17c-0.06-0.07-0.06-0.08-0.01-0.01
				c-0.02-0.03-0.04-0.06-0.06-0.09c-0.08-0.12-0.16-0.25-0.23-0.38c-0.07-0.13-0.14-0.27-0.2-0.41c-0.02-0.04-0.1-0.23-0.02-0.04
				c-0.02-0.06-0.05-0.11-0.07-0.17c-0.12-0.31-0.24-0.61-0.37-0.92c-0.18-0.44-0.36-0.89-0.53-1.33c-0.14-0.37-0.3-0.75-0.38-1.14
				c-0.09-0.42-0.61-0.7-1.01-0.57C110.63,94.25,110.41,94.66,110.5,95.12L110.5,95.12z"/>
		</g>
	</g>
	<g>
		<g>
			<path d="M113.58,100.86c7.77,0.93,15.85,0.48,23.29-2.06c1-0.34,0.57-1.93-0.44-1.59c-7.32,2.49-15.21,2.91-22.86,2
				C112.53,99.09,112.54,100.74,113.58,100.86L113.58,100.86z"/>
		</g>
	</g>
	<g>
		<g>
			<path d="M137.32,98.28c1.29-4.92,0.21-10.24-1.46-14.94c-1.7-4.78-4.37-8.75-7.91-12.37c-0.74-0.76-1.9,0.4-1.16,1.16
				c3.33,3.41,5.88,7.13,7.49,11.64c1.57,4.42,2.67,9.43,1.46,14.07C135.46,98.87,137.05,99.31,137.32,98.28L137.32,98.28z"/>
		</g>
	</g>
	<g>
		<g>
			<path d="M63.94,136.18c-0.42-1.27-0.84-2.54-1.26-3.8c-0.14-0.41-0.57-0.72-1.01-0.57c-0.41,0.13-0.72,0.57-0.57,1.01
				c0.42,1.27,0.84,2.54,1.26,3.8c0.14,0.41,0.57,0.72,1.01,0.57C63.78,137.06,64.09,136.61,63.94,136.18L63.94,136.18z"/>
		</g>
	</g>
	<g>
		<g>
			<path d="M134.49,141.94c1.38-2.78,2.24-5.74,2.58-8.82c0.05-0.44-0.41-0.82-0.82-0.82c-0.49,0-0.77,0.38-0.82,0.82
				c-0.31,2.77-1.11,5.5-2.35,7.99C132.6,142.06,134.02,142.89,134.49,141.94L134.49,141.94z"/>
		</g>
	</g>
	<g>
		<g>
			<path d="M75.73,100c-0.33-3.83-0.65-7.79,0.76-11.45c0.38-0.99-1.21-1.42-1.59-0.44c-1.46,3.79-1.16,7.92-0.82,11.88
				C74.17,101.05,75.82,101.06,75.73,100L75.73,100z"/>
		</g>
	</g>
	<g>
		<g>
			<path d="M128.31,99.42c0.2-4.04-0.58-8.1-1.93-11.89c-0.35-0.99-1.94-0.56-1.59,0.44c1.31,3.67,2.07,7.55,1.87,11.46
				C126.62,100.48,128.26,100.48,128.31,99.42L128.31,99.42z"/>
		</g>
	</g>
	<g>
		<g>
			<path d="M94.39,74.05c-0.04,1.56-0.12,3.12-0.01,4.68c0.11,1.6,0.38,3.19,0.6,4.78c0.06,0.44,0.62,0.68,1.01,0.57
				c0.47-0.13,0.64-0.57,0.57-1.01c-0.2-1.47-0.46-2.94-0.55-4.43c-0.1-1.53-0.02-3.07,0.02-4.6
				C96.06,72.99,94.42,72.99,94.39,74.05L94.39,74.05z"/>
		</g>
	</g>
	<polygon points="177.1,111.66 160.8,111.3 176.99,112.86 176.71,124.52 178.42,112.94 190,112.9 178.56,111.7 178.06,100.55 	"/>
	<polygon points="17.4,111.66 33.46,111.55 17.49,112.86 17.59,124.52 16.08,112.92 4.67,112.7 15.96,111.68 16.62,100.54 	"/>
	<path d="M132.3,181.95c-0.07,0-0.21-0.02-0.3-0.13l-3.6-4.64c-0.4-0.51-0.85-1.1-0.47-1.69c0.25-0.38,0.75-0.66,1.19-0.91
		c0.13-0.07,0.25-0.14,0.36-0.21l0.28-0.17c0.44-0.27,0.9-0.55,1.33-0.86c0.2-0.15,0.4-0.31,0.59-0.48
		c0.31-0.27,0.63-0.54,0.99-0.72c0.3-0.15,0.61-0.23,0.92-0.23c0.35,0,0.68,0.1,0.99,0.29c0.47,0.3,0.85,0.76,1.21,1.2
		c0.09,0.11,0.18,0.21,0.26,0.32l0.56,0.65c0.85,0.99,1.74,2.01,2.47,3.11c0.1,0.14,0.11,0.29,0.04,0.42
		c-0.09,0.16-0.29,0.28-0.49,0.28l0,0c-0.12,0-0.28-0.04-0.4-0.22c-0.09-0.14-0.19-0.28-0.29-0.42l-0.26-0.36l-0.01,0.44
		c0,0.1-0.04,0.35-0.34,0.43c-1.78,0.5-3.41,1.46-4.73,2.76l-0.09,0.09l0.16,0.2c0.15,0.2,0.24,0.48,0.01,0.7
		C132.59,181.89,132.44,181.95,132.3,181.95z M128.98,176.33c0.03,0.06,0.06,0.11,0.08,0.13l2.84,3.66l0.12-0.11
		c1.41-1.36,3.16-2.37,5.05-2.9c0.05-0.01,0.1-0.02,0.15-0.02c0.02,0,0.05,0,0.07,0.01l0.37,0.06l-0.23-0.3
		c-0.49-0.63-1.02-1.24-1.53-1.83c-0.19-0.22-0.39-0.45-0.58-0.67c-0.09-0.1-0.18-0.21-0.27-0.33c-0.29-0.36-0.58-0.73-0.96-0.98
		c-0.16-0.11-0.33-0.16-0.51-0.16c-0.36,0-0.69,0.23-0.96,0.45c-0.75,0.62-1.59,1.21-2.72,1.91c-0.27,0.17-0.53,0.33-0.8,0.51
		c-0.03,0.02-0.06,0.04-0.09,0.06c-0.04,0.03-0.08,0.06-0.13,0.09l-0.17,0.09c0,0,0.14,0.16,0.15,0.17l0.01,0.11l0.06,0
		C128.95,176.28,128.97,176.31,128.98,176.33z"/>
</g>
</svg>
