<?xml version="1.0" encoding="utf-8"?>
<!-- Generator: Adobe Illustrator 23.0.4, SVG Export Plug-In . SVG Version: 6.00 Build 0)  -->
<svg version="1.1" id="Capa_1" xmlns="http://www.w3.org/2000/svg" xmlns:xlink="http://www.w3.org/1999/xlink" x="0px" y="0px"
	 viewBox="0 0 298 288" style="enable-background:new 0 0 298 288;" xml:space="preserve">
<style type="text/css">
	.st0{stroke:#000000;stroke-width:0.6327;stroke-miterlimit:10;}
</style>
<g>
	<g>
		<g>
			<path d="M56.39,234.14c-1.93,0.07-3.54-0.05-4.87-0.36c-1.01-0.25-1.81-0.69-2.43-1.36c-0.13-0.14-0.2-0.4-0.26-0.74
				c-0.02-0.37,0.03-0.61,0.13-0.71c0.46-0.42,0.87-0.44,1.26-0.01c0,0,0.01,0.09,0.06,0.24c0.01,0.15,0.04,0.26,0.09,0.31
				c0.47,0.51,1.54,0.87,3.2,1.04c1.63,0.17,3.48,0.1,5.57-0.22c2.47-0.4,4.21-1.06,5.22-1.99c0.81-0.75,0.9-1.48,0.26-2.17
				c-1.01-1.1-2.34-2.06-3.97-2.91c-0.83,0.02-1.45-0.23-1.88-0.69c-0.55-0.6-0.6-1.08-0.16-1.49c0.21-0.19,0.5-0.2,0.92-0.03
				c2.77,1.17,4.84,2.47,6.16,3.91c0.65,0.71,0.92,1.47,0.87,2.27c-0.07,0.78-0.4,1.45-1.04,2.03
				C63.67,232.97,60.62,233.91,56.39,234.14z M68.48,231.92c-0.08-0.09-0.15-0.38-0.17-0.89c-0.01-0.26-0.02-0.63-0.04-1.11
				c-0.08-0.12-0.11-0.19-0.14-0.23c-0.32-0.35-0.26-0.74,0.24-1.2c0.39-0.36,0.73-0.41,1.02-0.09c0.16,0.18,0.2,1.22,0.16,3.12
				c0.01,0.19-0.05,0.34-0.17,0.45C69.06,232.27,68.77,232.24,68.48,231.92z M70.43,232.48c-0.26-0.28-0.24-0.79,0.12-1.54
				c0.13-0.64,0.3-1.06,0.48-1.22c0.09-0.08,0.21-0.13,0.38-0.09c0.17,0.01,0.32,0.07,0.43,0.19c0.21,0.23,0.16,0.74-0.13,1.49
				l-0.13,0.74c-0.08,0.2-0.19,0.37-0.29,0.46C70.98,232.79,70.69,232.76,70.43,232.48z"/>
		</g>
		<g>
			<path d="M79.95,253.88c-1.54,0.54-3.25,0.94-5.13,1.16c-2.15,0.24-3.61,0.11-4.36-0.41c-0.44-0.3-0.5-0.67-0.2-1.1
				c0.29-0.42,0.66-0.45,1.14-0.12c0.57,0.19,1.18,0.29,1.83,0.27c3.44-0.11,6.28-0.89,8.55-2.31c0.51-0.32,0.87-0.63,1.06-0.9
				c0.63-0.91,0.35-1.77-0.84-2.59c-0.32-0.22-1.41-0.8-3.22-1.73c-0.25,0.03-0.66-0.02-1.22-0.14c-0.68-0.15-1.19-0.35-1.52-0.58
				c-0.67-0.46-0.83-0.95-0.48-1.47c0.26-0.38,0.9-0.37,1.95,0.01c2.15,0.78,3.95,1.68,5.38,2.66c0.83,0.57,1.37,1.24,1.66,1.96
				c0.31,0.86,0.22,1.67-0.33,2.46C83.41,252.21,81.98,253.15,79.95,253.88z M86.34,244.97c-1.96-0.89-3.59-1.78-4.9-2.68
				c-0.67-0.46-1.18-0.87-1.53-1.29c-0.25-0.23-0.24-0.54,0.01-0.9c0.12-0.18,0.32-0.3,0.61-0.37c0.28-0.07,0.53-0.04,0.71,0.08
				c0.28,0.19,0.49,0.48,0.63,0.87c0.29,0.26,0.49,0.39,0.61,0.48c0.45,0.31,1.99,1.14,4.6,2.48c0.36,0.25,0.4,0.6,0.1,1.04
				C86.92,245.02,86.64,245.12,86.34,244.97z"/>
		</g>
		<g>
			<path d="M107.62,260.48c-0.02-0.01-0.36-0.18-1.02-0.51c-0.35-0.17-0.86-0.43-1.52-0.75c-1.97-0.98-3.16-1.57-3.57-1.75
				c-0.79-0.34-1.7-0.65-2.7-0.96c-0.5,0.05-1.06-0.08-1.74-0.37c-0.24-0.1-0.41-0.26-0.53-0.49c-0.14-0.24-0.16-0.47-0.07-0.69
				c0.22-0.51,1.86-0.1,4.95,1.22c1.37,0.58,2.81,1.28,4.31,2.06c0.44,0.23,0.69,0.35,0.75,0.38c0.05,0.02,0.14,0.06,0.28,0.1
				c0.11,0.03,0.2,0.05,0.27,0.07c0.29,0.12,0.55,0.34,0.8,0.6c0.29,0.34,0.38,0.64,0.27,0.91
				C108.02,260.53,107.86,260.58,107.62,260.48z"/>
		</g>
		<g>
			<path d="M130.56,269.55c-1.92,1.47-3.59,2.53-5,3.17c-1.68,0.78-3.56,1.33-5.6,1.6c-0.25,0.24-0.56,0.35-0.96,0.37
				c-0.59,0-1-0.01-1.24-0.06c-0.8-0.16-1.11-0.55-1-1.11c0.1-0.47,0.34-0.69,0.73-0.71c2.52-0.07,4.68-0.44,6.49-1.14
				c1.6-0.63,3.51-1.78,5.74-3.46c0.23-0.17,0.44-0.25,0.63-0.21c0.49,0.1,0.69,0.46,0.57,1.03
				C130.9,269.21,130.76,269.4,130.56,269.55z M124.13,265.24c-0.19-0.04-0.41-0.26-0.67-0.7c-0.17-0.26-0.63-0.74-1.42-1.45
				c-0.52-0.45-0.72-0.93-0.61-1.45c0.11-0.52,0.49-0.71,1.15-0.57c0.49,0.1,1.27,1,2.34,2.69c0.21,0.29,0.3,0.55,0.26,0.79
				C125.06,265.14,124.7,265.36,124.13,265.24z"/>
		</g>
		<g>
			<path d="M155.27,274.23c0.13,0.33,0.2,0.52,0.21,0.62c0.01,0.53-0.22,0.77-0.68,0.78c-0.55-0.04-1.08-0.07-1.59-0.06
				c-0.53,0.01-1.49,0.1-2.88,0.23c-1.54,0.13-2.38,0.24-2.57,0.34c-0.52,0.23-0.86,0.33-1,0.33c-0.31,0.01-0.55-0.06-0.73-0.25
				c-0.2-0.19-0.3-0.38-0.3-0.57c-0.01-0.43,0.27-0.73,0.85-0.86c2.03-0.5,4.36-0.79,7.01-0.84c0.71-0.69,1.48-1.83,2.26-3.41
				c0.86-1.68,1.29-2.96,1.27-3.87c-0.02-1.11-0.85-1.64-2.46-1.61c-2.02,0.04-3.82,0.3-5.4,0.76c-0.57,0.28-1.05,0.41-1.43,0.41
				c-0.89,0.02-1.33-0.24-1.34-0.79c-0.01-0.53,0.22-0.82,0.75-0.93c3.16-0.64,5.61-0.98,7.29-1.02c2.62-0.05,3.97,1.02,4.01,3.21
				C158.56,268.27,157.46,270.77,155.27,274.23z"/>
		</g>
		<g>
			<path d="M181.13,267.2c-0.26,0.46-0.61,0.75-1.03,0.85c-0.75,0.19-1.34,0.01-1.81-0.51c-0.18-0.13-0.34-0.26-0.47-0.4
				c-0.15-0.11-0.25-0.31-0.33-0.64c-0.23-0.91,0.13-1.55,1.14-1.9c0.12-0.13,0.29-0.22,0.48-0.27c0.28-0.07,0.67,0.01,1.12,0.22
				c0.63,0.34,1,0.74,1.13,1.25C181.47,266.27,181.39,266.74,181.13,267.2z"/>
		</g>
		<g>
			<path d="M229.26,237.9c-0.01,0.01-0.33,0.24-0.94,0.65c-0.31,0.23-0.78,0.55-1.38,0.98c-1.8,1.27-2.88,2.03-3.23,2.31
				c-0.68,0.54-1.38,1.19-2.13,1.93c-0.2,0.46-0.57,0.9-1.15,1.36c-0.2,0.16-0.42,0.24-0.68,0.24c-0.28,0.01-0.49-0.08-0.64-0.27
				c-0.34-0.43,0.79-1.69,3.42-3.77c1.16-0.92,2.46-1.86,3.86-2.81c0.41-0.28,0.64-0.44,0.69-0.48c0.04-0.03,0.11-0.09,0.22-0.2
				c0.07-0.08,0.14-0.15,0.19-0.2c0.24-0.19,0.56-0.33,0.91-0.42c0.44-0.09,0.75-0.03,0.93,0.2
				C229.49,237.58,229.46,237.74,229.26,237.9z"/>
		</g>
		<g>
			<path d="M247.67,223.94c0.04,0.22-0.02,0.39-0.11,0.5c-0.12,0.15-0.3,0.25-0.59,0.32c-0.25,0.11-0.49,0.21-0.73,0.27
				c-0.65,0.33-1.73,0.78-3.18,1.38c1.36,1.15,3.45,3.1,6.3,5.85c0.67,0.69,0.87,1.24,0.53,1.64c-0.37,0.44-0.76,0.46-1.17,0.12
				c-0.08-0.13-0.16-0.29-0.28-0.52c-0.54-0.59-1.97-1.95-4.29-4.09c-2.35-2.11-4.36-3.9-6.07-5.34c-0.33-0.28-0.95-0.74-1.86-1.38
				l-0.48-0.25c-0.15-0.12-0.25-0.3-0.27-0.54c-0.02-0.2,0.05-0.4,0.18-0.54c0.28-0.33,0.63-0.38,1.08-0.19
				c0.37,0.19,1.25,0.83,2.57,1.95c0.68,0.57,1.44,1.24,2.27,2.01c0.95-0.23,2.42-0.85,4.42-1.81c0.52-0.25,0.99-0.2,1.36,0.11
				C247.52,223.56,247.62,223.74,247.67,223.94z"/>
		</g>
	</g>
	<g>
		<path class="st0" d="M26.03,93.13l2.39-5.57c0.3-0.7,0.68-1.38,1.14-2.04c0.46-0.66,0.99-1.19,1.6-1.61
			c0.61-0.42,1.3-0.67,2.07-0.77c0.77-0.1,1.62,0.06,2.55,0.46c0.99,0.42,1.71,1.09,2.18,2.01c0.47,0.91,0.61,1.93,0.4,3.03
			l0.05,0.02c0.66-1.15,1.56-1.95,2.71-2.41c1.14-0.45,2.4-0.39,3.77,0.2c0.77,0.33,1.41,0.8,1.91,1.4c0.5,0.6,0.85,1.3,1.04,2.09
			c0.19,0.79,0.23,1.67,0.1,2.63c-0.12,0.97-0.42,1.98-0.88,3.05l-2.38,5.53L26.03,93.13z M35.03,94.75l1.65-3.83
			c0.2-0.46,0.34-0.94,0.44-1.45c0.09-0.51,0.1-1.02,0.01-1.51c-0.09-0.5-0.29-0.95-0.61-1.37c-0.32-0.42-0.79-0.76-1.4-1.03
			c-0.6-0.26-1.15-0.36-1.67-0.3c-0.52,0.06-0.99,0.23-1.43,0.53c-0.44,0.29-0.83,0.68-1.18,1.18c-0.35,0.5-0.66,1.05-0.92,1.67
			l-1.42,3.3L35.03,94.75z M43.89,98.56l1.52-3.53c0.29-0.69,0.51-1.37,0.65-2.05c0.14-0.68,0.16-1.32,0.07-1.91
			c-0.09-0.59-0.31-1.13-0.65-1.61c-0.35-0.48-0.84-0.86-1.49-1.14c-1.23-0.53-2.33-0.51-3.3,0.07c-0.97,0.57-1.78,1.63-2.44,3.16
			l-1.67,3.88L43.89,98.56z"/>
		<path class="st0" d="M55.16,76.76l5.43-7.77l1.51,1.05l-6.62,9.46L38.82,67.86L40,66.16L55.16,76.76z"/>
		<path class="st0" d="M67.89,63.29l-1.66,1.55l-7.44-20.87l1.47-1.37l20.25,8.92l-1.68,1.57l-5.28-2.38l-7.69,7.17L67.89,63.29z
			 M65.14,55.96l6.55-6.11l-10.64-4.84L65.14,55.96z"/>
		<path class="st0" d="M98.87,36.84l0.05-0.03L90.5,21.68l1.81-1.01l9.89,17.77l-2.26,1.26l-18.84-9.53l-0.05,0.03l8.51,15.28
			l-1.81,1.01l-9.89-17.77l2.26-1.26L98.87,36.84z"/>
		<path class="st0" d="M128.27,26.71c-0.2,0.59-0.48,1.17-0.83,1.74c-0.35,0.57-0.79,1.11-1.32,1.61c-0.53,0.5-1.14,0.95-1.84,1.35
			c-0.7,0.4-1.49,0.71-2.38,0.95c-1.48,0.39-2.92,0.5-4.31,0.32c-1.4-0.18-2.67-0.61-3.82-1.28c-1.15-0.67-2.15-1.57-2.99-2.69
			c-0.84-1.12-1.47-2.43-1.87-3.93c-0.4-1.5-0.51-2.95-0.33-4.34c0.18-1.4,0.61-2.67,1.28-3.83c0.67-1.16,1.56-2.17,2.67-3.02
			c1.11-0.85,2.4-1.47,3.86-1.86c0.72-0.19,1.45-0.31,2.18-0.34c0.73-0.03,1.44,0,2.13,0.11c0.68,0.11,1.33,0.29,1.93,0.54
			c0.6,0.25,1.13,0.57,1.59,0.96l-1.34,1.67c-0.29-0.26-0.64-0.5-1.07-0.73c-0.43-0.22-0.9-0.39-1.43-0.51
			c-0.53-0.12-1.08-0.18-1.67-0.18c-0.58,0-1.19,0.08-1.82,0.25c-1.28,0.34-2.36,0.88-3.24,1.61c-0.89,0.73-1.58,1.58-2.07,2.55
			c-0.49,0.97-0.79,2.02-0.88,3.15c-0.09,1.13,0.01,2.27,0.32,3.41c0.3,1.14,0.78,2.18,1.44,3.11c0.65,0.93,1.44,1.7,2.35,2.29
			c0.91,0.6,1.93,0.99,3.07,1.18c1.13,0.19,2.32,0.12,3.58-0.22c1.13-0.3,2.14-0.82,3.03-1.55s1.55-1.7,1.96-2.9L128.27,26.71z"/>
		<path class="st0" d="M158.01,18.3c0.03,1.55-0.22,2.98-0.73,4.29c-0.52,1.31-1.24,2.45-2.17,3.41c-0.93,0.96-2.04,1.72-3.32,2.28
			c-1.28,0.56-2.68,0.85-4.19,0.87c-1.51,0.02-2.92-0.22-4.22-0.74c-1.3-0.51-2.43-1.24-3.4-2.17c-0.96-0.93-1.72-2.04-2.28-3.34
			c-0.56-1.29-0.85-2.71-0.87-4.27c-0.03-1.55,0.22-2.98,0.73-4.29c0.51-1.31,1.24-2.45,2.17-3.41c0.93-0.96,2.04-1.72,3.32-2.28
			c1.28-0.56,2.68-0.85,4.19-0.87c1.51-0.02,2.92,0.22,4.22,0.74c1.3,0.52,2.43,1.24,3.4,2.17c0.96,0.93,1.72,2.05,2.28,3.34
			C157.69,15.33,157.98,16.75,158.01,18.3z M155.83,18.35c-0.02-1.18-0.23-2.31-0.63-3.37c-0.4-1.06-0.97-2-1.71-2.8
			c-0.74-0.8-1.64-1.43-2.69-1.89c-1.05-0.46-2.23-0.68-3.53-0.66c-1.3,0.02-2.47,0.28-3.51,0.77c-1.04,0.49-1.91,1.15-2.62,1.98
			c-0.71,0.82-1.25,1.77-1.62,2.85c-0.37,1.08-0.54,2.21-0.52,3.39c0.02,1.19,0.23,2.31,0.63,3.37c0.4,1.06,0.97,1.99,1.71,2.78
			c0.74,0.79,1.64,1.42,2.69,1.88c1.05,0.46,2.23,0.68,3.53,0.66c1.3-0.02,2.47-0.28,3.51-0.77c1.04-0.49,1.91-1.15,2.63-1.96
			c0.71-0.81,1.25-1.76,1.62-2.84C155.67,20.67,155.85,19.54,155.83,18.35z"/>
		<path class="st0" d="M183.21,34.17l-1.94-0.72l7.09-19.06l5.6,2.08c0.93,0.35,1.77,0.76,2.5,1.24s1.31,1.03,1.75,1.65
			c0.43,0.62,0.69,1.31,0.77,2.08c0.08,0.77-0.05,1.62-0.4,2.55c-0.26,0.7-0.62,1.29-1.09,1.77c-0.47,0.48-0.99,0.85-1.58,1.11
			c-0.59,0.26-1.22,0.41-1.91,0.44c-0.69,0.03-1.39-0.05-2.12-0.24l2.2,11.14l-2.37-0.88l-1.96-10.87l-3.23-1.2L183.21,34.17z
			 M187.15,23.6l3.36,1.25c1.56,0.58,2.87,0.75,3.92,0.49c1.05-0.25,1.79-0.94,2.21-2.07c0.23-0.63,0.31-1.2,0.24-1.72
			c-0.07-0.52-0.27-0.99-0.58-1.41c-0.31-0.42-0.74-0.81-1.29-1.15c-0.55-0.35-1.18-0.65-1.89-0.92l-3.45-1.28L187.15,23.6z"/>
		<path class="st0" d="M224.81,45.24c-0.87,1.28-1.9,2.31-3.07,3.08c-1.18,0.77-2.42,1.29-3.74,1.54c-1.32,0.25-2.66,0.23-4.03-0.05
			c-1.37-0.29-2.68-0.85-3.93-1.7c-1.25-0.85-2.26-1.86-3.02-3.03s-1.27-2.41-1.52-3.73c-0.25-1.32-0.23-2.66,0.06-4.04
			c0.29-1.38,0.87-2.71,1.74-3.99c0.87-1.28,1.9-2.31,3.07-3.08c1.18-0.77,2.42-1.29,3.74-1.54c1.32-0.25,2.66-0.23,4.03,0.05
			c1.37,0.28,2.68,0.85,3.93,1.7c1.25,0.85,2.26,1.86,3.02,3.03c0.77,1.17,1.27,2.41,1.52,3.73c0.25,1.32,0.23,2.66-0.06,4.04
			C226.27,42.63,225.69,43.96,224.81,45.24z M223,44.03c0.67-0.98,1.14-2.02,1.43-3.12c0.29-1.1,0.36-2.19,0.21-3.27
			c-0.14-1.08-0.51-2.11-1.11-3.1c-0.59-0.98-1.43-1.84-2.5-2.57c-1.08-0.73-2.18-1.2-3.31-1.39c-1.13-0.19-2.23-0.16-3.29,0.1
			c-1.06,0.26-2.05,0.73-2.97,1.4c-0.92,0.67-1.71,1.49-2.38,2.47c-0.67,0.98-1.14,2.02-1.43,3.12c-0.29,1.1-0.36,2.19-0.21,3.26
			c0.15,1.07,0.52,2.1,1.11,3.08c0.59,0.98,1.43,1.84,2.5,2.57c1.08,0.73,2.18,1.2,3.31,1.39c1.13,0.19,2.22,0.16,3.28-0.09
			c1.05-0.25,2.04-0.72,2.96-1.38C221.54,45.83,222.34,45.01,223,44.03z"/>
		<path class="st0" d="M230.16,64.97l-1.4-1.52l13.61-12.52l-4.61-5.01l1.35-1.24l10.62,11.54l-1.35,1.24l-4.61-5.01L230.16,64.97z"
			/>
		<path class="st0" d="M258.41,88.89c-1.35,0.76-2.72,1.23-4.12,1.4c-1.4,0.17-2.74,0.08-4.03-0.28c-1.29-0.36-2.49-0.97-3.59-1.83
			c-1.1-0.86-2.03-1.95-2.77-3.27c-0.74-1.32-1.2-2.67-1.37-4.06c-0.17-1.39-0.07-2.73,0.29-4.02c0.36-1.29,0.97-2.49,1.84-3.6
			c0.87-1.11,1.98-2.04,3.33-2.8c1.35-0.76,2.72-1.23,4.12-1.4c1.4-0.17,2.74-0.08,4.03,0.28c1.29,0.36,2.49,0.97,3.59,1.83
			c1.1,0.86,2.03,1.95,2.77,3.27c0.74,1.32,1.2,2.67,1.37,4.06c0.17,1.39,0.07,2.73-0.29,4.02c-0.36,1.29-0.97,2.49-1.84,3.6
			C260.87,87.19,259.76,88.13,258.41,88.89z M257.32,87c1.03-0.58,1.92-1.3,2.66-2.16c0.74-0.86,1.29-1.81,1.64-2.84
			c0.35-1.03,0.48-2.12,0.38-3.26c-0.1-1.14-0.47-2.28-1.11-3.42s-1.42-2.04-2.35-2.71c-0.93-0.67-1.93-1.13-2.99-1.36
			c-1.07-0.23-2.16-0.25-3.28-0.06c-1.12,0.19-2.2,0.58-3.23,1.16c-1.03,0.58-1.92,1.3-2.66,2.16c-0.74,0.86-1.29,1.8-1.63,2.83
			c-0.34,1.03-0.46,2.11-0.37,3.26c0.1,1.14,0.47,2.28,1.11,3.42c0.64,1.13,1.42,2.04,2.35,2.71c0.93,0.67,1.92,1.13,2.98,1.37
			c1.06,0.24,2.14,0.26,3.27,0.07C255.21,87.97,256.29,87.58,257.32,87z"/>
	</g>
	<g>
		<path d="M178.64,160.14c-0.17,1.05-0.04,2.09,0.31,3.12c0.53,1.55,3.83,0.94,3.52-0.66c-0.17-0.85-0.11-1.65-0.18-2.46
			c-0.05-0.67-0.92-1.24-1.82-1.24C179.38,158.91,178.74,159.48,178.64,160.14L178.64,160.14z"/>
	</g>
	<g>
		<g>
			<g id="XMLID_42_">
				<g>
					<path d="M151.79,176.69c0.93-0.05,1.89-0.05,2.9,0.01c-0.44,0.56-0.91,1.09-1.42,1.57
						C152.74,177.78,152.25,177.25,151.79,176.69z"/>
					<path d="M154.69,176.69c-1.01-0.05-1.98-0.05-2.9-0.01c0.46,0.56,0.96,1.09,1.48,1.57
						C153.78,177.78,154.25,177.25,154.69,176.69z M156.26,175.98c0.11,0.26,0.07,0.55-0.11,0.76l-0.09,0.12
						c-0.68,0.94-1.45,1.81-2.29,2.57c-0.12,0.12-0.3,0.2-0.47,0.2s-0.34-0.07-0.47-0.18c-0.91-0.77-1.71-1.64-2.4-2.6l-0.09-0.12
						c-0.17-0.18-0.21-0.48-0.1-0.74c0.11-0.24,0.34-0.4,0.59-0.42c1.5-0.14,3.11-0.14,4.81-0.01
						C155.9,175.57,156.15,175.73,156.26,175.98z"/>
				</g>
			</g>
		</g>
		<g>
			<g>
				<path d="M138.56,189.48c1.81,2.02,4.2,3.21,6.89,3.56c1.16,0.15,2.33,0.14,3.48-0.07c2.3-0.41,4.25-1.93,6.71-1.36
					c1.18,0.28,1.68-1.54,0.5-1.82c-2.56-0.6-4.11,0.44-6.55,1.1c-3.52,0.95-7.26-0.03-9.7-2.75
					C139.08,187.25,137.75,188.58,138.56,189.48L138.56,189.48z"/>
			</g>
		</g>
		<g>
			<g>
				<path d="M168.98,188.15c-2.44,2.72-6.18,3.7-9.7,2.75c-2.44-0.66-3.99-1.7-6.55-1.1c-1.18,0.28-0.68,2.09,0.5,1.82
					c2.48-0.58,4.28,0.92,6.58,1.34c1.19,0.22,2.41,0.24,3.61,0.08c2.69-0.34,5.08-1.54,6.89-3.56
					C171.12,188.59,169.79,187.25,168.98,188.15L168.98,188.15z"/>
			</g>
		</g>
		<g>
			<g>
				<path d="M167.15,191.94c0.88-0.63,1.94-0.98,2.81-1.62c0.76-0.56,1.74-1.7,0.83-2.59c-1.67-1.62-3.4,1.92-4.59,2.58
					C165.13,190.9,166.08,192.52,167.15,191.94c0.59-0.33,1.08-0.78,1.52-1.3c0.45-0.53,0.94-0.98,1.4-1.48
					c0.05-0.03,0.1-0.07,0.14-0.11c0.33-0.27,0.03-0.5-0.91-0.68c-0.11,0.06-0.2,0.23-0.3,0.32c-0.22,0.19-0.48,0.32-0.73,0.45
					c-0.71,0.37-1.43,0.71-2.08,1.18C165.22,191.01,166.16,192.65,167.15,191.94L167.15,191.94z"/>
			</g>
		</g>
		<g>
			<g>
				<path d="M141.79,189.84c-0.57-0.38-1.19-0.68-1.82-0.97c-0.35-0.16-1.33-0.49-1.4-0.94c-0.03,0.24-0.06,0.48-0.09,0.73
					c-0.08,0.07-0.16,0.14-0.24,0.21c-0.22-0.09-0.44-0.18-0.67-0.28c0.52,0.46,1.03,0.87,1.5,1.4c0.52,0.58,1.07,1.12,1.77,1.48
					C141.92,192.02,142.87,190.4,141.79,189.84c-1.21-0.62-3.09-4.08-4.7-2.47c-0.88,0.88,0.04,1.97,0.81,2.52
					c0.9,0.65,2.02,0.96,2.95,1.58C141.85,192.14,142.8,190.51,141.79,189.84L141.79,189.84z"/>
			</g>
		</g>
		<g>
			<g>
				<path d="M165.85,152.71c0.13-1.63,1.83-2.42,3.15-2.84c-0.48-0.83-0.96-1.65-1.44-2.48c-1.28,1.49-2.56,2.99-3.85,4.48
					c-0.9,1.05-0.23,2.37,1.05,2.53c1.76,0.22,3.41-0.27,4.97-1.06c1.34-0.68,3.03-1.55,3.67-2.99c0.48-1.09,0.13-2.37-1.11-2.73
					c-1.51-0.43-3.35,0.75-4.55,1.51c0.68,0.68,1.35,1.35,2.03,2.03c0.06-0.1,0.12-0.2,0.18-0.3c1.75-0.7,0.99-3.57-0.79-2.86
					c-0.88,0.35-1.51,0.79-1.95,1.66c-0.63,1.25,0.7,2.87,2.03,2.03c0.42-0.26,0.84-0.54,1.28-0.76c0.27-0.13,1.16-0.27,0.85-0.46
					c-0.23-0.3-0.45-0.59-0.68-0.89c-0.14-0.57-0.57,0.09-0.88,0.3c-0.5,0.33-1.03,0.63-1.57,0.9c-1.14,0.57-2.2,0.82-3.47,0.66
					c0.35,0.84,0.7,1.69,1.05,2.53c1.28-1.49,2.56-2.99,3.85-4.48c0.9-1.05,0.07-2.97-1.44-2.48c-2.7,0.87-5.08,2.64-5.33,5.7
					C162.73,154.61,165.69,154.6,165.85,152.71L165.85,152.71z"/>
			</g>
		</g>
		<g>
			<g>
				<path d="M142.44,152.51c-0.41-3.05-2.76-4.74-5.54-5.48c-1.45-0.39-2.46,1.41-1.44,2.48c1.36,1.43,2.71,2.85,4.07,4.28
					c0.22-0.83,0.44-1.65,0.65-2.48c-1.16,0.21-2.3-0.12-3.35-0.6c-0.47-0.21-0.93-0.45-1.38-0.71c-0.32-0.19-0.86-0.86-0.98-0.22
					c-0.23,0.3-0.45,0.59-0.68,0.89c-0.36,0.02-0.35,0.05,0.02,0.09c0.26,0.04,0.51,0.11,0.75,0.21c0.49,0.18,0.96,0.48,1.42,0.74
					c1.29,0.73,2.77-0.73,2.03-2.03c-0.48-0.84-1.09-1.29-2-1.6c-1.81-0.62-2.59,2.25-0.79,2.86c0.08,0.08,0.15,0.16,0.23,0.24
					c0.68-0.68,1.35-1.35,2.03-2.03c-1.25-0.7-3.11-1.8-4.61-1.33c-1.34,0.41-1.6,1.82-0.97,2.93c0.78,1.38,2.53,2.13,3.92,2.74
					c1.69,0.74,3.35,1.02,5.17,0.69c1.15-0.21,1.36-1.73,0.65-2.48c-1.36-1.43-2.71-2.85-4.07-4.28c-0.48,0.83-0.96,1.65-1.44,2.48
					c1.29,0.35,3.15,1.03,3.36,2.62C139.72,154.38,142.69,154.4,142.44,152.51L142.44,152.51z"/>
			</g>
		</g>
		<g>
			<g id="XMLID_41_">
				<g>
					<path d="M152.99,150.74c1.42,4.57,1.55,9.42,0.37,14.06l-0.12,0.49l-0.25-0.72C151.51,160.1,151.51,155.2,152.99,150.74z"/>
					<path d="M153.37,164.8c1.17-4.64,1.04-9.49-0.37-14.06c-1.48,4.47-1.48,9.36,0.01,13.83l0.25,0.72L153.37,164.8z
						 M153.31,150.24c1.55,4.75,1.73,9.82,0.5,14.66l-0.24,0.97c-0.04,0.13-0.15,0.23-0.29,0.23c-0.01,0-0.01,0-0.01,0
						c-0.14,0-0.25-0.08-0.3-0.21l-0.4-1.19c-1.56-4.67-1.52-9.81,0.11-14.46c0.05-0.13,0.17-0.22,0.31-0.22
						C153.14,150.02,153.26,150.11,153.31,150.24z"/>
				</g>
			</g>
		</g>
		<g>
			<g>
				<path d="M172.15,166.1c5.46-10.05,20.69-4.16,27.01-13.37c0.92-1.34-1.26-2.6-2.17-1.27c-4.09,5.96-11.91,4.29-17.82,6.55
					c-3.43,1.31-7.38,3.48-9.19,6.82C169.21,166.25,171.38,167.52,172.15,166.1L172.15,166.1z"/>
			</g>
		</g>
		<g>
			<g>
				<path d="M137.11,164.49c-1.78-3.1-5.45-5.01-8.67-6.26c-5.99-2.33-14-0.57-18.34-6.38c-0.93-1.25-3.05-0.03-2.11,1.23
					c6.52,8.73,21.46,2.98,27.01,12.65C135.78,167.08,137.89,165.85,137.11,164.49L137.11,164.49z"/>
			</g>
		</g>
		<g>
			<path d="M125.81,160.49c-0.03,0.79-0.04,1.55-0.17,2.34c-0.24,1.52,2.85,2.1,3.35,0.62c0.33-0.98,0.45-1.97,0.29-2.96
				c-0.1-0.63-0.73-1.17-1.74-1.17C126.69,159.32,125.71,159.86,125.81,160.49L125.81,160.49z"/>
		</g>
	</g>
	<g>
		<g>
			<path d="M197.06,178.34c-9.51,14.26-23.52,24.1-40.98,24.96c-17.15,0.85-34.97-8.05-44.25-22.61c-0.87-1.36-3.04-0.1-2.17,1.27
				c9.75,15.29,28.37,24.73,46.42,23.85c18.39-0.89,33.14-11.18,43.15-26.21C200.13,178.26,197.95,177,197.06,178.34L197.06,178.34z
				"/>
		</g>
	</g>
	<g>
		<g>
			<path d="M103.47,71.09c-9.09,5.37-16.98,11.64-22.46,20.82c-5.81,9.74-7.13,20.95-8.26,32.02c-0.89,8.76-3.18,17.19-4.9,25.81
				c-1.82,9.11-2.51,17.49-1.12,26.75c1.85,12.27,7.87,22.89,13.82,33.59c0.79,1.41,2.96,0.15,2.17-1.27
				c-6.66-11.97-12.82-23.48-14.08-37.35c-1.02-11.3,1.79-22.15,4.24-33.11c2.4-10.74,2.4-21.86,5.13-32.52
				c3.83-14.96,13.78-24.94,26.72-32.57C106.13,72.44,104.87,70.26,103.47,71.09L103.47,71.09z"/>
		</g>
	</g>
	<g>
		<g>
			<path d="M218.96,103.78c3.66,8.27,4.45,17.19,6.69,25.86c2.41,9.3,5.58,18.52,6.12,28.19c1.03,18.31-7.34,36.66-15.62,52.48
				c-0.75,1.43,1.42,2.7,2.17,1.27c8.49-16.22,17.02-34.99,15.97-53.75c-0.54-9.59-3.53-18.79-5.98-28.02
				c-2.44-9.16-3.3-18.55-7.17-27.3C220.47,101.03,218.31,102.31,218.96,103.78L218.96,103.78z"/>
		</g>
	</g>
	<g>
		<g>
			<path d="M119.86,65.83c20.75-7.06,43.51-5.65,63.18,4.03c1.45,0.71,2.72-1.46,1.27-2.17c-20.27-9.98-43.72-11.57-65.12-4.29
				C117.67,63.93,118.33,66.36,119.86,65.83L119.86,65.83z"/>
		</g>
	</g>
	<g>
		<g>
			<path d="M198.93,76.18c6.32,5.13,10.96,11.48,15.35,18.27c0.88,1.35,3.05,0.09,2.17-1.27c-4.51-6.96-9.26-13.51-15.75-18.78
				C199.46,73.39,197.67,75.16,198.93,76.18L198.93,76.18z"/>
		</g>
	</g>
	<g>
		<g>
			<path d="M86.11,111.92c-1.79,6.15-3.78,11.86-4.43,18.28c-0.16,1.61,2.35,1.6,2.51,0c0.62-6.19,2.61-11.68,4.34-17.61
				C88.99,111.03,86.56,110.37,86.11,111.92L86.11,111.92z"/>
		</g>
	</g>
	<g>
		<g>
			<path d="M84.05,152.85c0.41,8.93-1.56,17.8,0.46,26.63c0.36,1.58,2.79,0.91,2.42-0.67c-1.97-8.59,0.02-17.28-0.37-25.96
				C86.49,151.24,83.98,151.23,84.05,152.85L84.05,152.85z"/>
		</g>
	</g>
	<g>
		<g>
			<path d="M85.66,180.62c3.45,1.41,7.67,1.54,11.25,0.58c1.56-0.42,0.9-2.85-0.67-2.42c-3.18,0.86-6.86,0.67-9.91-0.58
				C84.83,177.59,84.18,180.02,85.66,180.62L85.66,180.62z"/>
		</g>
	</g>
	<g>
		<g>
			<path d="M97.76,179.55c0.07-1.2,0.42-2.31,1.03-3.34c0.82-1.4-1.35-2.67-2.17-1.27c-0.83,1.42-1.28,2.97-1.37,4.61
				C95.16,181.17,97.67,181.16,97.76,179.55L97.76,179.55z"/>
		</g>
	</g>
	<g>
		<g>
			<path d="M96.53,175.94c0.77,1.92,1.66,3.77,2.73,5.55c0.84,1.38,3.01,0.12,2.17-1.27c-0.96-1.58-1.8-3.23-2.48-4.95
				C98.36,173.79,95.93,174.44,96.53,175.94L96.53,175.94z"/>
		</g>
	</g>
	<g>
		<g>
			<path d="M100.14,182.2c5.86,1.51,12.13,0.58,17.61-1.85c1.48-0.65,0.2-2.82-1.27-2.17c-4.84,2.15-10.5,2.93-15.67,1.6
				C99.24,179.38,98.57,181.8,100.14,182.2L100.14,182.2z"/>
		</g>
	</g>
	<g>
		<g>
			<path d="M106.66,141.91c1.5,12.86,5.76,25.26,9.24,37.69c0.44,1.56,2.86,0.89,2.42-0.67c-3.42-12.19-7.68-24.4-9.15-37.02
				C108.98,140.32,106.47,140.3,106.66,141.91L106.66,141.91z"/>
		</g>
	</g>
	<g>
		<g>
			<path d="M204.2,139.1c-0.45,5.7-2.26,10.2-4.28,15.46c-2.3,5.99-4.59,11.89-7.21,17.76c-0.64,1.43,1.48,2.69,2.13,1.24
				c2.72-6.08,5.08-12.14,7.46-18.34c2.11-5.5,3.9-10.18,4.37-16.12C206.79,137.52,204.33,137.53,204.2,139.1L204.2,139.1z"/>
		</g>
	</g>
	<g>
		<g>
			<path d="M192.8,174.48c2.84,2.61,6.08,4.56,9.72,5.84c1.5,0.53,2.14-1.85,0.65-2.37c-3.23-1.13-6.12-2.89-8.64-5.21
				C193.37,171.67,191.63,173.4,192.8,174.48L192.8,174.48z"/>
		</g>
	</g>
	<g>
		<g>
			<path d="M203.56,180.26c1.37-0.78,2.03-2.07,2.88-3.33c0.37-0.55,0.11-1.36-0.44-1.68c-0.6-0.35-1.31-0.11-1.68,0.44
				c-0.6,0.9-1.02,1.9-1.99,2.45C200.94,178.92,202.18,181.05,203.56,180.26L203.56,180.26z"/>
		</g>
	</g>
	<g>
		<g>
			<path d="M204.39,176.68c0.23,1.38,0.65,2.67,1.19,3.96c0.26,0.61,1.16,0.75,1.68,0.44c0.63-0.37,0.7-1.07,0.44-1.68
				c-0.46-1.08-0.75-2.22-0.94-3.37c-0.11-0.66-0.92-1.02-1.51-0.86C204.55,175.36,204.28,176.03,204.39,176.68L204.39,176.68z"/>
		</g>
	</g>
	<g>
		<g>
			<path d="M206.3,181.34c3.75,0.81,7.38,0.42,10.9-1.11c1.45-0.63,0.2-2.75-1.24-2.13c-2.87,1.25-5.95,1.53-9,0.87
				C205.41,178.63,204.75,181,206.3,181.34L206.3,181.34z"/>
		</g>
	</g>
	<g>
		<g>
			<path d="M217.66,179.71c5.02-11.35,4.52-23.52,3.52-35.63c-0.13-1.57-2.59-1.58-2.46,0c0.96,11.59,1.64,23.5-3.18,34.39
				C214.9,179.9,217.02,181.16,217.66,179.71L217.66,179.71z"/>
		</g>
	</g>
	<g>
		<g>
			<path d="M81.66,210.87c6.24,0.67,12.28-0.79,17.56-4.18c1.36-0.87,0.1-3.05-1.27-2.17c-4.95,3.19-10.44,4.47-16.29,3.84
				C80.05,208.19,80.07,210.7,81.66,210.87L81.66,210.87z"/>
		</g>
	</g>
	<g>
		<g>
			<path d="M99.81,205.52c-0.11-1.39-0.03-2.73,0.3-4.08c0.38-1.57-2.04-2.24-2.42-0.67c-0.38,1.56-0.53,3.15-0.39,4.75
				C97.42,207.12,99.94,207.14,99.81,205.52L99.81,205.52z"/>
		</g>
	</g>
	<g>
		<g>
			<path d="M98.09,201.75c1.12,1.31,2.23,2.62,3.35,3.93c1.05,1.23,2.82-0.55,1.78-1.78c-1.12-1.31-2.23-2.62-3.35-3.93
				C98.82,198.74,97.05,200.52,98.09,201.75L98.09,201.75z"/>
		</g>
	</g>
	<g>
		<g>
			<path d="M103.32,206.26c7.05-3.38,14.76-6.93,22.57-8.02c1.6-0.22,0.92-2.64-0.67-2.42c-8.01,1.11-15.93,4.8-23.17,8.27
				C100.59,204.78,101.86,206.95,103.32,206.26L103.32,206.26z"/>
		</g>
	</g>
	<g>
		<g>
			<path d="M175.37,201.74c1.62-0.08,3.14-0.16,4.65,0.46c1.59,0.65,3.09,1.2,4.78,1.56c1.58,0.33,2.25-2.09,0.67-2.42
				c-1.78-0.37-3.3-1.01-4.97-1.65c-1.64-0.62-3.41-0.55-5.13-0.46C173.76,199.31,173.75,201.82,175.37,201.74L175.37,201.74z"/>
		</g>
	</g>
	<g>
		<g>
			<path d="M185.48,203.76c2.13-0.67,3.91-1.75,5.03-3.74c0.79-1.41-1.38-2.68-2.17-1.27c-0.8,1.42-2.01,2.11-3.52,2.58
				C183.27,201.82,183.93,204.25,185.48,203.76L185.48,203.76z"/>
		</g>
	</g>
	<g>
		<g>
			<path d="M188.16,199.39c-0.13,1.73-0.34,3.48,0.17,5.18c0.46,1.55,2.89,0.89,2.42-0.67c-0.44-1.46-0.19-3.01-0.08-4.51
				C190.79,197.78,188.28,197.78,188.16,199.39L188.16,199.39z"/>
		</g>
	</g>
	<g>
		<g>
			<path d="M189.19,205.79c3.05,0.71,6.16,1.04,9.29,1.07c2.46,0.02,4.59-0.58,6.75,0.52c3.69,1.88,7.52,4.06,11.67,4.78
				c1.58,0.28,2.26-2.15,0.67-2.42c-4.52-0.79-7.95-3.45-11.91-5.25c-1.62-0.73-2.91-0.28-4.71-0.18c-3.71,0.2-7.48-0.09-11.09-0.93
				C188.28,203,187.61,205.42,189.19,205.79L189.19,205.79z"/>
		</g>
	</g>
	<g>
		<g>
			<path d="M112.96,92.95c-11.48,13.32-14.83,29.3-15.44,46.49c-0.06,1.62,2.46,1.62,2.51,0c0.58-16.5,3.65-31.9,14.7-44.71
				C115.79,93.51,114.02,91.72,112.96,92.95L112.96,92.95z"/>
		</g>
	</g>
	<g>
		<g>
			<path d="M98.3,140.62c7.67,3.51,18.83,3.12,26.86,1.03c1.56-0.41,0.9-2.83-0.67-2.42c-7.18,1.87-18.06,2.37-24.92-0.77
				C98.11,137.78,96.83,139.94,98.3,140.62L98.3,140.62z"/>
		</g>
	</g>
	<g>
		<g>
			<path d="M125.71,141.32c1.84-2.18,1.97-5.34,3-7.91c0.6-1.5-1.83-2.15-2.42-0.67c-0.44,1.11-0.71,2.29-1.04,3.43
				c-0.31,1.07-0.57,2.49-1.31,3.37C122.9,140.77,124.67,142.56,125.71,141.32L125.71,141.32z"/>
		</g>
	</g>
	<g>
		<g>
			<path d="M126.29,133.3c0.59,2.58,0.75,5.26,1.45,7.81c0.42,1.56,2.85,0.9,2.42-0.67c-0.7-2.56-0.86-5.23-1.45-7.81
				C128.35,131.06,125.93,131.72,126.29,133.3L126.29,133.3z"/>
		</g>
	</g>
	<g>
		<g>
			<path d="M128.61,142.23c6.25,2.07,13.14,1.98,19.64,1.86c6.92-0.12,13.99-0.52,20.7-2.32c1.56-0.42,0.9-2.84-0.67-2.42
				c-6.49,1.74-13.33,2.11-20.03,2.23c-6.29,0.11-12.94,0.22-18.98-1.77C127.74,139.29,127.08,141.72,128.61,142.23L128.61,142.23z"
				/>
		</g>
	</g>
	<g>
		<g>
			<path d="M169.76,141.14c2.34-5.15,2.53-10.06,1.52-15.58c-0.29-1.59-2.71-0.92-2.42,0.67c0.88,4.79,0.77,9.15-1.27,13.64
				C166.92,141.34,169.09,142.62,169.76,141.14L169.76,141.14z"/>
		</g>
	</g>
	<g>
		<g>
			<path d="M169.49,133.2c0.33,1.43,0.99,2.79,1.53,4.14c0.59,1.48,1.13,2.88,2.2,4.09c1.08,1.21,2.85-0.57,1.78-1.78
				c-0.88-0.99-1.27-2.29-1.77-3.5c-0.48-1.18-1.03-2.38-1.32-3.63C171.55,130.96,169.13,131.63,169.49,133.2L169.49,133.2z"/>
		</g>
	</g>
	<g>
		<g>
			<path d="M174.19,141.98c11.97,1.36,24.12,0.66,35.61-3.15c1.53-0.51,0.87-2.93-0.67-2.42c-11.29,3.74-23.17,4.39-34.94,3.06
				C172.59,139.29,172.6,141.8,174.19,141.98L174.19,141.98z"/>
		</g>
	</g>
	<g>
		<g>
			<path d="M210.47,138.04c3.62-15-4.08-31.16-14.31-41.74c-1.13-1.17-2.9,0.61-1.78,1.78c9.58,9.91,17.07,25.2,13.67,39.29
				C207.67,138.95,210.09,139.62,210.47,138.04L210.47,138.04z"/>
		</g>
	</g>
	<g>
		<g>
			<path d="M98.33,195.96c-0.64-1.94-1.29-3.88-1.93-5.82c-0.51-1.53-2.94-0.87-2.42,0.67c0.64,1.94,1.29,3.88,1.93,5.82
				C96.41,198.16,98.84,197.51,98.33,195.96L98.33,195.96z"/>
		</g>
	</g>
	<g>
		<g>
			<path d="M206.15,204.78c2.08-4.29,3.37-8.76,3.94-13.49c0.19-1.6-2.32-1.59-2.51,0c-0.51,4.27-1.72,8.35-3.6,12.22
				C203.28,204.96,205.44,206.23,206.15,204.78L206.15,204.78z"/>
		</g>
	</g>
	<g>
		<g>
			<path d="M116.34,140.67c-0.5-5.93-0.88-11.8,1.17-17.5c0.55-1.53-1.88-2.18-2.42-0.67c-2.12,5.91-1.78,12.01-1.26,18.16
				C113.96,142.27,116.48,142.29,116.34,140.67L116.34,140.67z"/>
		</g>
	</g>
	<g>
		<g>
			<path d="M196.71,139.79c0.23-6.25-0.91-12.29-2.95-18.18c-0.53-1.52-2.96-0.87-2.42,0.67c1.97,5.68,3.08,11.48,2.87,17.51
				C194.14,141.41,196.66,141.4,196.71,139.79L196.71,139.79z"/>
		</g>
	</g>
	<g>
		<g>
			<path d="M144.86,101c-0.13,4.95,0.22,9.56,0.9,14.46c0.22,1.6,2.64,0.92,2.42-0.67c-0.65-4.68-0.94-9.06-0.81-13.79
				C147.42,99.38,144.91,99.38,144.86,101L144.86,101z"/>
		</g>
	</g>
	<g>
		<polygon points="271.28,158.49 246.37,157.94 271.12,160.33 270.69,178.14 273.3,160.45 291,160.38 273.52,158.55 272.75,141.51 
					"/>
	</g>
	<g>
		<polygon points="27.18,158.49 51.73,158.32 27.32,160.33 27.48,178.15 25.17,160.42 7.73,160.08 24.98,158.52 25.99,141.49 		"/>
	</g>
	<g>
		<path d="M202.81,265.93c-0.11,0-0.33-0.03-0.46-0.2l-5.51-7.1c-0.61-0.79-1.31-1.68-0.71-2.58c0.38-0.57,1.14-1.01,1.81-1.39
			c0.2-0.11,0.39-0.22,0.56-0.33l0.42-0.26c0.68-0.42,1.38-0.85,2.03-1.32c0.31-0.22,0.61-0.48,0.91-0.73
			c0.47-0.41,0.96-0.83,1.51-1.1c0.46-0.23,0.93-0.35,1.4-0.35c0.54,0,1.04,0.15,1.51,0.45c0.72,0.46,1.29,1.16,1.85,1.83
			c0.13,0.16,0.27,0.33,0.4,0.48l0.86,1c1.3,1.51,2.65,3.08,3.78,4.75c0.15,0.22,0.17,0.44,0.06,0.64
			c-0.13,0.25-0.44,0.43-0.75,0.43l0,0c-0.18,0-0.43-0.06-0.62-0.34c-0.14-0.21-0.29-0.43-0.44-0.63l-0.39-0.55l-0.02,0.67
			c0,0.16-0.06,0.53-0.52,0.66c-2.72,0.77-5.22,2.23-7.23,4.22l-0.14,0.14l0.24,0.31c0.23,0.3,0.36,0.74,0.02,1.07
			C203.25,265.84,203.03,265.93,202.81,265.93z M197.73,257.33c0.05,0.09,0.1,0.16,0.13,0.2l4.34,5.6l0.18-0.17
			c2.16-2.09,4.83-3.62,7.72-4.44c0.08-0.02,0.15-0.03,0.22-0.03c0.04,0,0.07,0,0.1,0.01l0.57,0.09l-0.35-0.45
			c-0.75-0.96-1.56-1.89-2.34-2.79c-0.29-0.34-0.59-0.68-0.88-1.02c-0.14-0.16-0.27-0.33-0.41-0.5c-0.44-0.55-0.89-1.12-1.47-1.5
			c-0.25-0.17-0.51-0.25-0.78-0.25c-0.56,0-1.05,0.35-1.47,0.69c-1.15,0.95-2.43,1.85-4.15,2.92c-0.41,0.25-0.82,0.51-1.22,0.77
			c-0.05,0.03-0.09,0.06-0.14,0.1c-0.06,0.05-0.13,0.1-0.2,0.13l-0.26,0.13c0,0,0.21,0.24,0.22,0.26l0.01,0.16l0.09-0.01
			C197.69,257.26,197.71,257.3,197.73,257.33z"/>
	</g>
</g>
</svg>
